<?xml version="1.0" encoding="UTF-8" standalone="no"?>
<!DOCTYPE svg PUBLIC "-//W3C//DTD SVG 1.1//EN"
 "http://www.w3.org/Graphics/SVG/1.1/DTD/svg11.dtd">
<!-- Generated by graphviz version 8.1.0 (20230707.0739)
 -->
<!-- Title: dependency&#45;cruiser output Pages: 1 -->
<svg width="729pt" height="204pt"
 viewBox="0.00 0.00 728.50 203.66" xmlns="http://www.w3.org/2000/svg" xmlns:xlink="http://www.w3.org/1999/xlink">
<g id="graph0" class="graph" transform="scale(1 1) rotate(0) translate(4 199.66)">
<title>dependency&#45;cruiser output</title>
<polygon fill="white" stroke="none" points="-4,4 -4,-199.66 724.5,-199.66 724.5,4 -4,4"/>
<g id="clust1" class="cluster">
<title>cluster_src</title>
<path fill="#ffffff" stroke="black" stroke-width="2" d="M20,-17.66C20,-17.66 700.5,-17.66 700.5,-17.66 706.5,-17.66 712.5,-23.66 712.5,-29.66 712.5,-29.66 712.5,-175.66 712.5,-175.66 712.5,-181.66 706.5,-187.66 700.5,-187.66 700.5,-187.66 20,-187.66 20,-187.66 14,-187.66 8,-181.66 8,-175.66 8,-175.66 8,-29.66 8,-29.66 8,-23.66 14,-17.66 20,-17.66"/>
<text text-anchor="middle" x="360.25" y="-175.11" font-family="Helvetica,sans-Serif" font-weight="bold" font-size="9.00">src</text>
</g>
<!-- src/Gameboard.js -->
<g id="node1" class="node">
<title>src/Gameboard.js</title>
<g id="a_node1"><a xlink:href="src/Gameboard.js" xlink:title="Gameboard.js">
<path fill="#ffffcc" stroke="black" d="M475.58,-117.54C475.58,-117.54 413.67,-117.54 413.67,-117.54 410.71,-117.54 407.75,-114.58 407.75,-111.62 407.75,-111.62 407.75,-105.7 407.75,-105.7 407.75,-102.74 410.71,-99.79 413.67,-99.79 413.67,-99.79 475.58,-99.79 475.58,-99.79 478.54,-99.79 481.5,-102.74 481.5,-105.7 481.5,-105.7 481.5,-111.62 481.5,-111.62 481.5,-114.58 478.54,-117.54 475.58,-117.54"/>
<text text-anchor="start" x="415.75" y="-104.99" font-family="Helvetica,sans-Serif" font-size="9.00">Gameboard.js</text>
</a>
</g>
</g>
<!-- src/updateDomMessage.js -->
<g id="node2" class="node">
<title>src/updateDomMessage.js</title>
<g id="a_node2"><a xlink:href="src/updateDomMessage.js" xlink:title="updateDomMessage.js">
<path fill="#ffffcc" stroke="black" d="M698.58,-100.54C698.58,-100.54 599.92,-100.54 599.92,-100.54 596.96,-100.54 594,-97.58 594,-94.62 594,-94.62 594,-88.7 594,-88.7 594,-85.74 596.96,-82.79 599.92,-82.79 599.92,-82.79 698.58,-82.79 698.58,-82.79 701.54,-82.79 704.5,-85.74 704.5,-88.7 704.5,-88.7 704.5,-94.62 704.5,-94.62 704.5,-97.58 701.54,-100.54 698.58,-100.54"/>
<text text-anchor="start" x="602" y="-87.99" font-family="Helvetica,sans-Serif" font-size="9.00">updateDomMessage.js</text>
</a>
</g>
</g>
<!-- src/Gameboard.js&#45;&gt;src/updateDomMessage.js -->
<g id="edge1" class="edge">
<title>src/Gameboard.js&#45;&gt;src/updateDomMessage.js</title>
<path fill="none" stroke="#000000" stroke-width="2" stroke-opacity="0.200000" d="M481.85,-105.62C510.38,-103.23 550.84,-99.83 584.73,-96.99"/>
<polygon fill="#000000" fill-opacity="0.200000" stroke="#000000" stroke-width="2" stroke-opacity="0.200000" points="584.84,-98.84 590.64,-96.24 584.49,-94.65 584.84,-98.84"/>
</g>
<!-- src/wichFactory.js -->
<g id="node3" class="node">
<title>src/wichFactory.js</title>
<g id="a_node3"><a xlink:href="src/wichFactory.js" xlink:title="wichFactory.js">
<path fill="#ffffcc" stroke="black" d="M575.08,-89.54C575.08,-89.54 513.17,-89.54 513.17,-89.54 510.21,-89.54 507.25,-86.58 507.25,-83.62 507.25,-83.62 507.25,-77.7 507.25,-77.7 507.25,-74.74 510.21,-71.79 513.17,-71.79 513.17,-71.79 575.08,-71.79 575.08,-71.79 578.04,-71.79 581,-74.74 581,-77.7 581,-77.7 581,-83.62 581,-83.62 581,-86.58 578.04,-89.54 575.08,-89.54"/>
<text text-anchor="start" x="515.25" y="-76.99" font-family="Helvetica,sans-Serif" font-size="9.00">wichFactory.js</text>
</a>
</g>
</g>
<!-- src/Gameboard.js&#45;&gt;src/wichFactory.js -->
<g id="edge2" class="edge">
<title>src/Gameboard.js&#45;&gt;src/wichFactory.js</title>
<path fill="none" stroke="#000000" stroke-width="2" stroke-opacity="0.200000" d="M478.09,-99.34C485.82,-97.12 494.17,-94.72 502.22,-92.41"/>
<polygon fill="#000000" fill-opacity="0.200000" stroke="#000000" stroke-width="2" stroke-opacity="0.200000" points="503.61,-93.62 508.8,-89.94 502.45,-89.58 503.61,-93.62"/>
</g>
<!-- src/wichFactory.js&#45;&gt;src/updateDomMessage.js -->
<g id="edge16" class="edge">
<title>src/wichFactory.js&#45;&gt;src/updateDomMessage.js</title>
<path fill="none" stroke="#000000" stroke-width="2" stroke-opacity="0.200000" d="M581.48,-84.54C582.59,-84.66 583.71,-84.78 584.84,-84.9"/>
<polygon fill="#000000" fill-opacity="0.200000" stroke="#000000" stroke-width="2" stroke-opacity="0.200000" points="584.41,-87.28 590.6,-85.83 584.86,-83.11 584.41,-87.28"/>
</g>
<!-- src/Gameboard.test.js -->
<g id="node4" class="node">
<title>src/Gameboard.test.js</title>
<g id="a_node4"><a xlink:href="src/Gameboard.test.js" xlink:title="Gameboard.test.js">
<path fill="#ffffcc" stroke="black" d="M376.08,-65.54C376.08,-65.54 297.67,-65.54 297.67,-65.54 294.71,-65.54 291.75,-62.58 291.75,-59.62 291.75,-59.62 291.75,-53.7 291.75,-53.7 291.75,-50.74 294.71,-47.79 297.67,-47.79 297.67,-47.79 376.08,-47.79 376.08,-47.79 379.04,-47.79 382,-50.74 382,-53.7 382,-53.7 382,-59.62 382,-59.62 382,-62.58 379.04,-65.54 376.08,-65.54"/>
<text text-anchor="start" x="299.75" y="-52.99" font-family="Helvetica,sans-Serif" font-size="9.00">Gameboard.test.js</text>
</a>
</g>
</g>
<!-- src/Gameboard.test.js&#45;&gt;src/Gameboard.js -->
<g id="edge4" class="edge">
<title>src/Gameboard.test.js&#45;&gt;src/Gameboard.js</title>
<path fill="none" stroke="#000000" stroke-width="2" stroke-opacity="0.200000" d="M355.06,-65.89C363.4,-70.59 373.44,-76.59 382,-82.66 388.17,-87.04 388.36,-90.03 395,-93.66 396.48,-94.47 398.01,-95.25 399.58,-95.98"/>
<polygon fill="#000000" fill-opacity="0.200000" stroke="#000000" stroke-width="2" stroke-opacity="0.200000" points="399.28,-97.98 405.62,-98.37 400.91,-94.11 399.28,-97.98"/>
</g>
<!-- src/Gameboard.test.js&#45;&gt;src/wichFactory.js -->
<g id="edge5" class="edge">
<title>src/Gameboard.test.js&#45;&gt;src/wichFactory.js</title>
<path fill="none" stroke="#000000" stroke-width="2" stroke-opacity="0.200000" d="M382.42,-55.25C413.93,-55.08 457.02,-56.51 494.25,-63.66 500.18,-64.8 506.36,-66.51 512.26,-68.42"/>
<polygon fill="#000000" fill-opacity="0.200000" stroke="#000000" stroke-width="2" stroke-opacity="0.200000" points="512.27,-71.33 518.63,-71.3 513.64,-67.36 512.27,-71.33"/>
</g>
<!-- src/buildHTMLBoards.js -->
<g id="node5" class="node">
<title>src/buildHTMLBoards.js</title>
<g id="a_node5"><a xlink:href="src/buildHTMLBoards.js" xlink:title="buildHTMLBoards.js">
<path fill="#ffffcc" stroke="black" d="M488.33,-43.54C488.33,-43.54 400.92,-43.54 400.92,-43.54 397.96,-43.54 395,-40.58 395,-37.62 395,-37.62 395,-31.7 395,-31.7 395,-28.74 397.96,-25.79 400.92,-25.79 400.92,-25.79 488.33,-25.79 488.33,-25.79 491.29,-25.79 494.25,-28.74 494.25,-31.7 494.25,-31.7 494.25,-37.62 494.25,-37.62 494.25,-40.58 491.29,-43.54 488.33,-43.54"/>
<text text-anchor="start" x="403" y="-30.99" font-family="Helvetica,sans-Serif" font-size="9.00">buildHTMLBoards.js</text>
</a>
</g>
</g>
<!-- src/Gameboard.test.js&#45;&gt;src/buildHTMLBoards.js -->
<g id="edge3" class="edge">
<title>src/Gameboard.test.js&#45;&gt;src/buildHTMLBoards.js</title>
<path fill="none" stroke="#000000" stroke-width="2" stroke-opacity="0.200000" d="M382.42,-47.4C384.96,-46.87 387.52,-46.33 390.09,-45.8"/>
<polygon fill="#000000" fill-opacity="0.200000" stroke="#000000" stroke-width="2" stroke-opacity="0.200000" points="391.35,-47.27 396.8,-43.99 390.49,-43.15 391.35,-47.27"/>
</g>
<!-- src/Player.js -->
<g id="node6" class="node">
<title>src/Player.js</title>
<g id="a_node6"><a xlink:href="src/Player.js" xlink:title="Player.js">
<path fill="#ffffcc" stroke="black" d="M357.96,-106.54C357.96,-106.54 315.79,-106.54 315.79,-106.54 312.83,-106.54 309.88,-103.58 309.88,-100.62 309.88,-100.62 309.88,-94.7 309.88,-94.7 309.88,-91.74 312.83,-88.79 315.79,-88.79 315.79,-88.79 357.96,-88.79 357.96,-88.79 360.92,-88.79 363.88,-91.74 363.88,-94.7 363.88,-94.7 363.88,-100.62 363.88,-100.62 363.88,-103.58 360.92,-106.54 357.96,-106.54"/>
<text text-anchor="start" x="319.25" y="-93.99" font-family="Helvetica,sans-Serif" font-size="9.00">Player.js</text>
</a>
</g>
</g>
<!-- src/Player.js&#45;&gt;src/Gameboard.js -->
<g id="edge6" class="edge">
<title>src/Player.js&#45;&gt;src/Gameboard.js</title>
<path fill="none" stroke="#000000" stroke-width="2" stroke-opacity="0.200000" d="M364.29,-100.41C374.72,-101.49 387,-102.77 398.75,-103.99"/>
<polygon fill="#000000" fill-opacity="0.200000" stroke="#000000" stroke-width="2" stroke-opacity="0.200000" points="398.4,-106.38 404.59,-104.91 398.84,-102.2 398.4,-106.38"/>
</g>
<!-- src/gameLoopEvents.js -->
<g id="node7" class="node">
<title>src/gameLoopEvents.js</title>
<g id="a_node7"><a xlink:href="src/gameLoopEvents.js" xlink:title="gameLoopEvents.js">
<path fill="#ffffcc" stroke="black" d="M174.08,-57.54C174.08,-57.54 88.92,-57.54 88.92,-57.54 85.96,-57.54 83,-54.58 83,-51.62 83,-51.62 83,-45.7 83,-45.7 83,-42.74 85.96,-39.79 88.92,-39.79 88.92,-39.79 174.08,-39.79 174.08,-39.79 177.04,-39.79 180,-42.74 180,-45.7 180,-45.7 180,-51.62 180,-51.62 180,-54.58 177.04,-57.54 174.08,-57.54"/>
<text text-anchor="start" x="91" y="-44.99" font-family="Helvetica,sans-Serif" font-size="9.00">gameLoopEvents.js</text>
</a>
</g>
</g>
<!-- src/playerCreation.js -->
<g id="node8" class="node">
<title>src/playerCreation.js</title>
<g id="a_node8"><a xlink:href="src/playerCreation.js" xlink:title="playerCreation.js">
<path fill="#ffffcc" stroke="black" d="M272.83,-79.54C272.83,-79.54 198.92,-79.54 198.92,-79.54 195.96,-79.54 193,-76.58 193,-73.62 193,-73.62 193,-67.7 193,-67.7 193,-64.74 195.96,-61.79 198.92,-61.79 198.92,-61.79 272.83,-61.79 272.83,-61.79 275.79,-61.79 278.75,-64.74 278.75,-67.7 278.75,-67.7 278.75,-73.62 278.75,-73.62 278.75,-76.58 275.79,-79.54 272.83,-79.54"/>
<text text-anchor="start" x="201" y="-66.99" font-family="Helvetica,sans-Serif" font-size="9.00">playerCreation.js</text>
</a>
</g>
</g>
<!-- src/gameLoopEvents.js&#45;&gt;src/playerCreation.js -->
<g id="edge7" class="edge">
<title>src/gameLoopEvents.js&#45;&gt;src/playerCreation.js</title>
<path fill="none" stroke="#000000" stroke-width="2" stroke-opacity="0.200000" d="M175.92,-57.99C178.61,-58.57 181.33,-59.15 184.05,-59.74"/>
<polygon fill="#000000" fill-opacity="0.200000" stroke="#000000" stroke-width="2" stroke-opacity="0.200000" points="184.39,-62.39 190.7,-61.6 185.27,-58.28 184.39,-62.39"/>
</g>
<!-- src/playerCreation.js&#45;&gt;src/Player.js -->
<g id="edge14" class="edge">
<title>src/playerCreation.js&#45;&gt;src/Player.js</title>
<path fill="none" stroke="#000000" stroke-width="2" stroke-opacity="0.200000" d="M271.22,-80.03C280.8,-82.64 291.22,-85.48 300.83,-88.1"/>
<polygon fill="#000000" fill-opacity="0.200000" stroke="#000000" stroke-width="2" stroke-opacity="0.200000" points="301.05,-90.89 307.39,-90.44 302.16,-86.83 301.05,-90.89"/>
</g>
<!-- src/index.js -->
<g id="node9" class="node">
<title>src/index.js</title>
<g id="a_node9"><a xlink:href="src/index.js" xlink:title="index.js">
<path fill="#ffffcc" stroke="black" d="M64.08,-101.54C64.08,-101.54 21.92,-101.54 21.92,-101.54 18.96,-101.54 16,-98.58 16,-95.62 16,-95.62 16,-89.7 16,-89.7 16,-86.74 18.96,-83.79 21.92,-83.79 21.92,-83.79 64.08,-83.79 64.08,-83.79 67.04,-83.79 70,-86.74 70,-89.7 70,-89.7 70,-95.62 70,-95.62 70,-98.58 67.04,-101.54 64.08,-101.54"/>
<text text-anchor="start" x="27.25" y="-88.99" font-family="Helvetica,sans-Serif" font-size="9.00">index.js</text>
</a>
</g>
</g>
<!-- src/index.js&#45;&gt;src/buildHTMLBoards.js -->
<g id="edge8" class="edge">
<title>src/index.js&#45;&gt;src/buildHTMLBoards.js</title>
<path fill="none" stroke="#000000" stroke-width="2" stroke-opacity="0.200000" d="M46.96,-83.37C51.91,-69.6 63.32,-44.24 83,-33.66 187.44,22.5 334.74,-4.99 404.31,-23.09"/>
<polygon fill="#000000" fill-opacity="0.200000" stroke="#000000" stroke-width="2" stroke-opacity="0.200000" points="404.46,-25.84 410.8,-25.35 405.54,-21.78 404.46,-25.84"/>
</g>
<!-- src/index.js&#45;&gt;src/gameLoopEvents.js -->
<g id="edge9" class="edge">
<title>src/index.js&#45;&gt;src/gameLoopEvents.js</title>
<path fill="none" stroke="#000000" stroke-width="2" stroke-opacity="0.200000" d="M56.21,-83.48C63.68,-78.13 73.59,-71.5 83,-66.66 86.68,-64.77 90.6,-62.97 94.56,-61.28"/>
<polygon fill="#000000" fill-opacity="0.200000" stroke="#000000" stroke-width="2" stroke-opacity="0.200000" points="95.89,-63.2 100.66,-59.01 94.31,-59.31 95.89,-63.2"/>
</g>
<!-- src/index.js&#45;&gt;src/playerCreation.js -->
<g id="edge11" class="edge">
<title>src/index.js&#45;&gt;src/playerCreation.js</title>
<path fill="none" stroke="#000000" stroke-width="2" stroke-opacity="0.200000" d="M64.68,-83.3C70.49,-81.05 76.89,-78.94 83,-77.66 116.01,-70.74 153.91,-68.99 183.59,-68.96"/>
<polygon fill="#000000" fill-opacity="0.200000" stroke="#000000" stroke-width="2" stroke-opacity="0.200000" points="183.51,-71.08 189.52,-69.01 183.53,-66.88 183.51,-71.08"/>
</g>
<!-- src/meyer&#45;reset.css -->
<g id="node10" class="node">
<title>src/meyer&#45;reset.css</title>
<g id="a_node10"><a xlink:href="src/meyer-reset.css" xlink:title="meyer&#45;reset.css">
<path fill="#ffffcc" stroke="black" d="M165.83,-101.54C165.83,-101.54 97.17,-101.54 97.17,-101.54 94.21,-101.54 91.25,-98.58 91.25,-95.62 91.25,-95.62 91.25,-89.7 91.25,-89.7 91.25,-86.74 94.21,-83.79 97.17,-83.79 97.17,-83.79 165.83,-83.79 165.83,-83.79 168.79,-83.79 171.75,-86.74 171.75,-89.7 171.75,-89.7 171.75,-95.62 171.75,-95.62 171.75,-98.58 168.79,-101.54 165.83,-101.54"/>
<text text-anchor="start" x="99.25" y="-88.99" font-family="Helvetica,sans-Serif" font-size="9.00">meyer&#45;reset.css</text>
</a>
</g>
</g>
<!-- src/index.js&#45;&gt;src/meyer&#45;reset.css -->
<g id="edge10" class="edge">
<title>src/index.js&#45;&gt;src/meyer&#45;reset.css</title>
<path fill="none" stroke="#000000" stroke-width="2" stroke-opacity="0.200000" d="M70.42,-92.66C74.16,-92.66 78.09,-92.66 82.08,-92.66"/>
<polygon fill="#000000" fill-opacity="0.200000" stroke="#000000" stroke-width="2" stroke-opacity="0.200000" points="81.86,-94.76 87.86,-92.66 81.86,-90.56 81.86,-94.76"/>
</g>
<!-- src/renderBoard.js -->
<g id="node11" class="node">
<title>src/renderBoard.js</title>
<g id="a_node11"><a xlink:href="src/renderBoard.js" xlink:title="renderBoard.js">
<path fill="#ffffcc" stroke="black" d="M163.96,-131.54C163.96,-131.54 99.04,-131.54 99.04,-131.54 96.08,-131.54 93.12,-128.58 93.12,-125.62 93.12,-125.62 93.12,-119.7 93.12,-119.7 93.12,-116.74 96.08,-113.79 99.04,-113.79 99.04,-113.79 163.96,-113.79 163.96,-113.79 166.92,-113.79 169.88,-116.74 169.88,-119.7 169.88,-119.7 169.88,-125.62 169.88,-125.62 169.88,-128.58 166.92,-131.54 163.96,-131.54"/>
<text text-anchor="start" x="101.12" y="-118.99" font-family="Helvetica,sans-Serif" font-size="9.00">renderBoard.js</text>
</a>
</g>
</g>
<!-- src/index.js&#45;&gt;src/renderBoard.js -->
<g id="edge12" class="edge">
<title>src/index.js&#45;&gt;src/renderBoard.js</title>
<g id="a_edge12"><a xlink:title="no&#45;circular">
<path fill="none" stroke="orange" stroke-width="2" d="M70.35,-97.13C74.57,-98.64 78.89,-100.22 83,-101.66 91.07,-104.48 99.98,-107.36 107.89,-110.18"/>
<polygon fill="none" stroke="orange" stroke-width="2" points="107.94,-112.19 114.29,-112.32 109.41,-108.25 107.94,-112.19"/>
</a>
</g>
<text text-anchor="middle" x="114.88" y="-103.88" font-family="Helvetica,sans-Serif" font-size="9.00" fill="orange">no&#45;circular</text>
</g>
<!-- src/style.css -->
<g id="node12" class="node">
<title>src/style.css</title>
<g id="a_node12"><a xlink:href="src/style.css" xlink:title="style.css">
<path fill="#ffffcc" stroke="black" d="M152.58,-161.54C152.58,-161.54 110.42,-161.54 110.42,-161.54 107.46,-161.54 104.5,-158.58 104.5,-155.62 104.5,-155.62 104.5,-149.7 104.5,-149.7 104.5,-146.74 107.46,-143.79 110.42,-143.79 110.42,-143.79 152.58,-143.79 152.58,-143.79 155.54,-143.79 158.5,-146.74 158.5,-149.7 158.5,-149.7 158.5,-155.62 158.5,-155.62 158.5,-158.58 155.54,-161.54 152.58,-161.54"/>
<text text-anchor="start" x="114.25" y="-148.99" font-family="Helvetica,sans-Serif" font-size="9.00">style.css</text>
</a>
</g>
</g>
<!-- src/index.js&#45;&gt;src/style.css -->
<g id="edge13" class="edge">
<title>src/index.js&#45;&gt;src/style.css</title>
<path fill="none" stroke="#000000" stroke-width="2" stroke-opacity="0.200000" d="M49.75,-101.94C56.52,-112.11 68.66,-128.24 83,-137.66 86.98,-140.27 91.43,-142.46 95.99,-144.27"/>
<polygon fill="#000000" fill-opacity="0.200000" stroke="#000000" stroke-width="2" stroke-opacity="0.200000" points="95.84,-146.15 102.2,-146.16 97.23,-142.19 95.84,-146.15"/>
</g>
<!-- src/renderBoard.js&#45;&gt;src/index.js -->
<g id="edge15" class="edge">
<title>src/renderBoard.js&#45;&gt;src/index.js</title>
<g id="a_edge15"><a xlink:title="no&#45;circular">
<path fill="none" stroke="orange" stroke-width="2" d="M92.83,-116.98C89.5,-115.9 86.18,-114.78 83,-113.66 76.32,-111.32 69.06,-108.59 62.64,-105.76"/>
<polygon fill="none" stroke="orange" stroke-width="2" points="62.85,-103.58 56.53,-102.89 61.04,-107.37 62.85,-103.58"/>
</a>
</g>
<text text-anchor="middle" x="51.62" y="-111.34" font-family="Helvetica,sans-Serif" font-size="9.00" fill="orange">no&#45;circular</text>
</g>
<!-- src/wichFactory.test.js -->
<g id="node13" class="node">
<title>src/wichFactory.test.js</title>
<g id="a_node13"><a xlink:href="src/wichFactory.test.js" xlink:title="wichFactory.test.js">
<path fill="#ffffcc" stroke="black" d="M483.83,-87.54C483.83,-87.54 405.42,-87.54 405.42,-87.54 402.46,-87.54 399.5,-84.58 399.5,-81.62 399.5,-81.62 399.5,-75.7 399.5,-75.7 399.5,-72.74 402.46,-69.79 405.42,-69.79 405.42,-69.79 483.83,-69.79 483.83,-69.79 486.79,-69.79 489.75,-72.74 489.75,-75.7 489.75,-75.7 489.75,-81.62 489.75,-81.62 489.75,-84.58 486.79,-87.54 483.83,-87.54"/>
<text text-anchor="start" x="407.5" y="-74.99" font-family="Helvetica,sans-Serif" font-size="9.00">wichFactory.test.js</text>
</a>
</g>
</g>
<!-- src/wichFactory.test.js&#45;&gt;src/wichFactory.js -->
<g id="edge17" class="edge">
<title>src/wichFactory.test.js&#45;&gt;src/wichFactory.js</title>
<path fill="none" stroke="#000000" stroke-width="2" stroke-opacity="0.200000" d="M490.1,-79.57C492.73,-79.63 495.39,-79.68 498.02,-79.74"/>
<polygon fill="#000000" fill-opacity="0.200000" stroke="#000000" stroke-width="2" stroke-opacity="0.200000" points="497.86,-81.89 503.9,-79.92 497.94,-77.7 497.86,-81.89"/>
</g>
</g>
</svg>
