<?xml version="1.0" encoding="UTF-8" standalone="no"?>
<!DOCTYPE svg PUBLIC "-//W3C//DTD SVG 1.1//EN"
 "http://www.w3.org/Graphics/SVG/1.1/DTD/svg11.dtd">
<!-- Generated by graphviz version 8.1.0 (20230707.0739)
 -->
<!-- Title: dependency&#45;cruiser output Pages: 1 -->
<svg width="729pt" height="238pt"
 viewBox="0.00 0.00 728.50 238.00" xmlns="http://www.w3.org/2000/svg" xmlns:xlink="http://www.w3.org/1999/xlink">
<g id="graph0" class="graph" transform="scale(1 1) rotate(0) translate(4 234)">
<title>dependency&#45;cruiser output</title>
<polygon fill="white" stroke="none" points="-4,4 -4,-234 724.5,-234 724.5,4 -4,4"/>
<g id="clust1" class="cluster">
<title>cluster_src</title>
<path fill="#ffffff" stroke="black" stroke-width="2" d="M20,-8C20,-8 700.5,-8 700.5,-8 706.5,-8 712.5,-14 712.5,-20 712.5,-20 712.5,-210 712.5,-210 712.5,-216 706.5,-222 700.5,-222 700.5,-222 20,-222 20,-222 14,-222 8,-216 8,-210 8,-210 8,-20 8,-20 8,-14 14,-8 20,-8"/>
<text text-anchor="middle" x="360.25" y="-209.45" font-family="Helvetica,sans-Serif" font-weight="bold" font-size="9.00">src</text>
</g>
<!-- src/Gameboard.js -->
<g id="node1" class="node">
<title>src/Gameboard.js</title>
<g id="a_node1"><a xlink:href="src/Gameboard.js" xlink:title="Gameboard.js">
<path fill="#ffffcc" stroke="black" d="M475.58,-47.88C475.58,-47.88 413.67,-47.88 413.67,-47.88 410.71,-47.88 407.75,-44.92 407.75,-41.96 407.75,-41.96 407.75,-36.04 407.75,-36.04 407.75,-33.08 410.71,-30.12 413.67,-30.12 413.67,-30.12 475.58,-30.12 475.58,-30.12 478.54,-30.12 481.5,-33.08 481.5,-36.04 481.5,-36.04 481.5,-41.96 481.5,-41.96 481.5,-44.92 478.54,-47.88 475.58,-47.88"/>
<text text-anchor="start" x="415.75" y="-35.33" font-family="Helvetica,sans-Serif" font-size="9.00">Gameboard.js</text>
</a>
</g>
</g>
<!-- src/updateDomMessage.js -->
<g id="node2" class="node">
<title>src/updateDomMessage.js</title>
<g id="a_node2"><a xlink:href="src/updateDomMessage.js" xlink:title="updateDomMessage.js">
<path fill="#ffffcc" stroke="black" d="M698.58,-47.88C698.58,-47.88 599.92,-47.88 599.92,-47.88 596.96,-47.88 594,-44.92 594,-41.96 594,-41.96 594,-36.04 594,-36.04 594,-33.08 596.96,-30.12 599.92,-30.12 599.92,-30.12 698.58,-30.12 698.58,-30.12 701.54,-30.12 704.5,-33.08 704.5,-36.04 704.5,-36.04 704.5,-41.96 704.5,-41.96 704.5,-44.92 701.54,-47.88 698.58,-47.88"/>
<text text-anchor="start" x="602" y="-35.33" font-family="Helvetica,sans-Serif" font-size="9.00">updateDomMessage.js</text>
</a>
</g>
</g>
<!-- src/Gameboard.js&#45;&gt;src/updateDomMessage.js -->
<g id="edge1" class="edge">
<title>src/Gameboard.js&#45;&gt;src/updateDomMessage.js</title>
<path fill="none" stroke="#000000" stroke-width="2" stroke-opacity="0.200000" d="M481.85,-39C510.38,-39 550.84,-39 584.73,-39"/>
<polygon fill="#000000" fill-opacity="0.200000" stroke="#000000" stroke-width="2" stroke-opacity="0.200000" points="584.64,-41.1 590.64,-39 584.64,-36.9 584.64,-41.1"/>
</g>
<!-- src/wichFactory.js -->
<g id="node3" class="node">
<title>src/wichFactory.js</title>
<g id="a_node3"><a xlink:href="src/wichFactory.js" xlink:title="wichFactory.js">
<path fill="#ffffcc" stroke="black" d="M575.08,-69.88C575.08,-69.88 513.17,-69.88 513.17,-69.88 510.21,-69.88 507.25,-66.92 507.25,-63.96 507.25,-63.96 507.25,-58.04 507.25,-58.04 507.25,-55.08 510.21,-52.12 513.17,-52.12 513.17,-52.12 575.08,-52.12 575.08,-52.12 578.04,-52.12 581,-55.08 581,-58.04 581,-58.04 581,-63.96 581,-63.96 581,-66.92 578.04,-69.88 575.08,-69.88"/>
<text text-anchor="start" x="515.25" y="-57.33" font-family="Helvetica,sans-Serif" font-size="9.00">wichFactory.js</text>
</a>
</g>
</g>
<!-- src/Gameboard.js&#45;&gt;src/wichFactory.js -->
<g id="edge2" class="edge">
<title>src/Gameboard.js&#45;&gt;src/wichFactory.js</title>
<path fill="none" stroke="#000000" stroke-width="2" stroke-opacity="0.200000" d="M481.93,-47.19C487.26,-48.39 492.8,-49.65 498.28,-50.88"/>
<polygon fill="#000000" fill-opacity="0.200000" stroke="#000000" stroke-width="2" stroke-opacity="0.200000" points="498.47,-53.53 504.79,-52.8 499.4,-49.43 498.47,-53.53"/>
</g>
<!-- src/wichFactory.js&#45;&gt;src/updateDomMessage.js -->
<g id="edge20" class="edge">
<title>src/wichFactory.js&#45;&gt;src/updateDomMessage.js</title>
<path fill="none" stroke="#000000" stroke-width="2" stroke-opacity="0.200000" d="M581.48,-53.24C586.12,-52.25 590.94,-51.23 595.77,-50.2"/>
<polygon fill="#000000" fill-opacity="0.200000" stroke="#000000" stroke-width="2" stroke-opacity="0.200000" points="597.01,-51.65 602.44,-48.35 596.13,-47.54 597.01,-51.65"/>
</g>
<!-- src/Gameboard.test.js -->
<g id="node4" class="node">
<title>src/Gameboard.test.js</title>
<g id="a_node4"><a xlink:href="src/Gameboard.test.js" xlink:title="Gameboard.test.js">
<path fill="#ffffcc" stroke="black" d="M376.08,-77.88C376.08,-77.88 297.67,-77.88 297.67,-77.88 294.71,-77.88 291.75,-74.92 291.75,-71.96 291.75,-71.96 291.75,-66.04 291.75,-66.04 291.75,-63.08 294.71,-60.12 297.67,-60.12 297.67,-60.12 376.08,-60.12 376.08,-60.12 379.04,-60.12 382,-63.08 382,-66.04 382,-66.04 382,-71.96 382,-71.96 382,-74.92 379.04,-77.88 376.08,-77.88"/>
<text text-anchor="start" x="299.75" y="-65.33" font-family="Helvetica,sans-Serif" font-size="9.00">Gameboard.test.js</text>
</a>
</g>
</g>
<!-- src/Gameboard.test.js&#45;&gt;src/Gameboard.js -->
<g id="edge4" class="edge">
<title>src/Gameboard.test.js&#45;&gt;src/Gameboard.js</title>
<path fill="none" stroke="#000000" stroke-width="2" stroke-opacity="0.200000" d="M370.76,-59.67C380.7,-56.85 391.76,-53.71 402.19,-50.76"/>
<polygon fill="#000000" fill-opacity="0.200000" stroke="#000000" stroke-width="2" stroke-opacity="0.200000" points="403.57,-51.98 408.77,-48.32 402.42,-47.94 403.57,-51.98"/>
</g>
<!-- src/Gameboard.test.js&#45;&gt;src/wichFactory.js -->
<g id="edge5" class="edge">
<title>src/Gameboard.test.js&#45;&gt;src/wichFactory.js</title>
<path fill="none" stroke="#000000" stroke-width="2" stroke-opacity="0.200000" d="M382.41,-67.26C416.61,-65.93 463.65,-64.1 497.99,-62.76"/>
<polygon fill="#000000" fill-opacity="0.200000" stroke="#000000" stroke-width="2" stroke-opacity="0.200000" points="497.97,-64.74 503.88,-62.41 497.8,-60.55 497.97,-64.74"/>
</g>
<!-- src/buildHTMLBoards.js -->
<g id="node5" class="node">
<title>src/buildHTMLBoards.js</title>
<g id="a_node5"><a xlink:href="src/buildHTMLBoards.js" xlink:title="buildHTMLBoards.js">
<path fill="#ffffcc" stroke="black" d="M488.33,-91.88C488.33,-91.88 400.92,-91.88 400.92,-91.88 397.96,-91.88 395,-88.92 395,-85.96 395,-85.96 395,-80.04 395,-80.04 395,-77.08 397.96,-74.12 400.92,-74.12 400.92,-74.12 488.33,-74.12 488.33,-74.12 491.29,-74.12 494.25,-77.08 494.25,-80.04 494.25,-80.04 494.25,-85.96 494.25,-85.96 494.25,-88.92 491.29,-91.88 488.33,-91.88"/>
<text text-anchor="start" x="403" y="-79.33" font-family="Helvetica,sans-Serif" font-size="9.00">buildHTMLBoards.js</text>
</a>
</g>
</g>
<!-- src/Gameboard.test.js&#45;&gt;src/buildHTMLBoards.js -->
<g id="edge3" class="edge">
<title>src/Gameboard.test.js&#45;&gt;src/buildHTMLBoards.js</title>
<path fill="none" stroke="#000000" stroke-width="2" stroke-opacity="0.200000" d="M382.42,-74.9C383.56,-75.05 384.71,-75.2 385.86,-75.35"/>
<polygon fill="#000000" fill-opacity="0.200000" stroke="#000000" stroke-width="2" stroke-opacity="0.200000" points="385.49,-77.82 391.71,-76.52 386.04,-73.66 385.49,-77.82"/>
</g>
<!-- src/Player.js -->
<g id="node6" class="node">
<title>src/Player.js</title>
<g id="a_node6"><a xlink:href="src/Player.js" xlink:title="Player.js">
<path fill="#ffffcc" stroke="black" d="M357.96,-47.88C357.96,-47.88 315.79,-47.88 315.79,-47.88 312.83,-47.88 309.88,-44.92 309.88,-41.96 309.88,-41.96 309.88,-36.04 309.88,-36.04 309.88,-33.08 312.83,-30.12 315.79,-30.12 315.79,-30.12 357.96,-30.12 357.96,-30.12 360.92,-30.12 363.88,-33.08 363.88,-36.04 363.88,-36.04 363.88,-41.96 363.88,-41.96 363.88,-44.92 360.92,-47.88 357.96,-47.88"/>
<text text-anchor="start" x="319.25" y="-35.33" font-family="Helvetica,sans-Serif" font-size="9.00">Player.js</text>
</a>
</g>
</g>
<!-- src/Player.js&#45;&gt;src/Gameboard.js -->
<g id="edge6" class="edge">
<title>src/Player.js&#45;&gt;src/Gameboard.js</title>
<path fill="none" stroke="#000000" stroke-width="2" stroke-opacity="0.200000" d="M364.29,-39C374.72,-39 387,-39 398.75,-39"/>
<polygon fill="#000000" fill-opacity="0.200000" stroke="#000000" stroke-width="2" stroke-opacity="0.200000" points="398.59,-41.1 404.59,-39 398.59,-36.9 398.59,-41.1"/>
</g>
<!-- src/Player.test.js -->
<g id="node7" class="node">
<title>src/Player.test.js</title>
<g id="a_node7"><a xlink:href="src/Player.test.js" xlink:title="Player.test.js">
<path fill="#ffffcc" stroke="black" d="M263.83,-47.88C263.83,-47.88 207.92,-47.88 207.92,-47.88 204.96,-47.88 202,-44.92 202,-41.96 202,-41.96 202,-36.04 202,-36.04 202,-33.08 204.96,-30.12 207.92,-30.12 207.92,-30.12 263.83,-30.12 263.83,-30.12 266.79,-30.12 269.75,-33.08 269.75,-36.04 269.75,-36.04 269.75,-41.96 269.75,-41.96 269.75,-44.92 266.79,-47.88 263.83,-47.88"/>
<text text-anchor="start" x="210" y="-35.33" font-family="Helvetica,sans-Serif" font-size="9.00">Player.test.js</text>
</a>
</g>
</g>
<!-- src/Player.test.js&#45;&gt;src/Player.js -->
<g id="edge7" class="edge">
<title>src/Player.test.js&#45;&gt;src/Player.js</title>
<path fill="none" stroke="#000000" stroke-width="2" stroke-opacity="0.200000" d="M270.12,-39C279.92,-39 290.68,-39 300.61,-39"/>
<polygon fill="#000000" fill-opacity="0.200000" stroke="#000000" stroke-width="2" stroke-opacity="0.200000" points="300.44,-41.1 306.44,-39 300.44,-36.9 300.44,-41.1"/>
</g>
<!-- src/checkWinner.js -->
<g id="node8" class="node">
<title>src/checkWinner.js</title>
<g id="a_node8"><a xlink:href="src/checkWinner.js" xlink:title="checkWinner.js">
<path fill="#ffffcc" stroke="black" d="M164.71,-77.88C164.71,-77.88 98.29,-77.88 98.29,-77.88 95.33,-77.88 92.38,-74.92 92.38,-71.96 92.38,-71.96 92.38,-66.04 92.38,-66.04 92.38,-63.08 95.33,-60.12 98.29,-60.12 98.29,-60.12 164.71,-60.12 164.71,-60.12 167.67,-60.12 170.62,-63.08 170.62,-66.04 170.62,-66.04 170.62,-71.96 170.62,-71.96 170.62,-74.92 167.67,-77.88 164.71,-77.88"/>
<text text-anchor="start" x="100.38" y="-65.33" font-family="Helvetica,sans-Serif" font-size="9.00">checkWinner.js</text>
</a>
</g>
</g>
<!-- src/playerCreation.js -->
<g id="node9" class="node">
<title>src/playerCreation.js</title>
<g id="a_node9"><a xlink:href="src/playerCreation.js" xlink:title="playerCreation.js">
<path fill="#ffffcc" stroke="black" d="M272.83,-77.88C272.83,-77.88 198.92,-77.88 198.92,-77.88 195.96,-77.88 193,-74.92 193,-71.96 193,-71.96 193,-66.04 193,-66.04 193,-63.08 195.96,-60.12 198.92,-60.12 198.92,-60.12 272.83,-60.12 272.83,-60.12 275.79,-60.12 278.75,-63.08 278.75,-66.04 278.75,-66.04 278.75,-71.96 278.75,-71.96 278.75,-74.92 275.79,-77.88 272.83,-77.88"/>
<text text-anchor="start" x="201" y="-65.33" font-family="Helvetica,sans-Serif" font-size="9.00">playerCreation.js</text>
</a>
</g>
</g>
<!-- src/checkWinner.js&#45;&gt;src/playerCreation.js -->
<g id="edge8" class="edge">
<title>src/checkWinner.js&#45;&gt;src/playerCreation.js</title>
<path fill="none" stroke="#000000" stroke-width="2" stroke-opacity="0.200000" d="M170.91,-69C175.16,-69 179.53,-69 183.89,-69"/>
<polygon fill="#000000" fill-opacity="0.200000" stroke="#000000" stroke-width="2" stroke-opacity="0.200000" points="183.82,-71.1 189.82,-69 183.82,-66.9 183.82,-71.1"/>
</g>
<!-- src/playerCreation.js&#45;&gt;src/Player.js -->
<g id="edge18" class="edge">
<title>src/playerCreation.js&#45;&gt;src/Player.js</title>
<path fill="none" stroke="#000000" stroke-width="2" stroke-opacity="0.200000" d="M267.66,-59.67C278.23,-56.47 290.13,-52.86 301,-49.57"/>
<polygon fill="#000000" fill-opacity="0.200000" stroke="#000000" stroke-width="2" stroke-opacity="0.200000" points="302.32,-50.76 307.45,-47.01 301.1,-46.74 302.32,-50.76"/>
</g>
<!-- src/gameLoopEvents.js -->
<g id="node10" class="node">
<title>src/gameLoopEvents.js</title>
<g id="a_node10"><a xlink:href="src/gameLoopEvents.js" xlink:title="gameLoopEvents.js">
<path fill="#ffffcc" stroke="black" d="M174.08,-121.88C174.08,-121.88 88.92,-121.88 88.92,-121.88 85.96,-121.88 83,-118.92 83,-115.96 83,-115.96 83,-110.04 83,-110.04 83,-107.08 85.96,-104.12 88.92,-104.12 88.92,-104.12 174.08,-104.12 174.08,-104.12 177.04,-104.12 180,-107.08 180,-110.04 180,-110.04 180,-115.96 180,-115.96 180,-118.92 177.04,-121.88 174.08,-121.88"/>
<text text-anchor="start" x="91" y="-109.33" font-family="Helvetica,sans-Serif" font-size="9.00">gameLoopEvents.js</text>
</a>
</g>
</g>
<!-- src/gameLoopEvents.js&#45;&gt;src/playerCreation.js -->
<g id="edge9" class="edge">
<title>src/gameLoopEvents.js&#45;&gt;src/playerCreation.js</title>
<path fill="none" stroke="#000000" stroke-width="2" stroke-opacity="0.200000" d="M158.29,-103.66C165.37,-100.98 173.02,-97.97 180,-95 189.36,-91.02 199.46,-86.34 208.41,-82.07"/>
<polygon fill="#000000" fill-opacity="0.200000" stroke="#000000" stroke-width="2" stroke-opacity="0.200000" points="209.76,-83.78 214.25,-79.28 207.93,-80 209.76,-83.78"/>
</g>
<!-- src/index.js -->
<g id="node11" class="node">
<title>src/index.js</title>
<g id="a_node11"><a xlink:href="src/index.js" xlink:title="index.js">
<path fill="#ffffcc" stroke="black" d="M64.08,-110.88C64.08,-110.88 21.92,-110.88 21.92,-110.88 18.96,-110.88 16,-107.92 16,-104.96 16,-104.96 16,-99.04 16,-99.04 16,-96.08 18.96,-93.12 21.92,-93.12 21.92,-93.12 64.08,-93.12 64.08,-93.12 67.04,-93.12 70,-96.08 70,-99.04 70,-99.04 70,-104.96 70,-104.96 70,-107.92 67.04,-110.88 64.08,-110.88"/>
<text text-anchor="start" x="27.25" y="-98.33" font-family="Helvetica,sans-Serif" font-size="9.00">index.js</text>
</a>
</g>
</g>
<!-- src/index.js&#45;&gt;src/updateDomMessage.js -->
<g id="edge17" class="edge">
<title>src/index.js&#45;&gt;src/updateDomMessage.js</title>
<path fill="none" stroke="#000000" stroke-width="2" stroke-opacity="0.200000" d="M45.52,-92.78C48.88,-75.8 58.63,-39.85 83,-24 139.65,12.84 167.3,-17 234.88,-17 234.88,-17 234.88,-17 445.62,-17 492.5,-17 545.13,-22.89 584.99,-28.58"/>
<polygon fill="#000000" fill-opacity="0.200000" stroke="#000000" stroke-width="2" stroke-opacity="0.200000" points="585.57,-31.07 591.81,-29.86 586.18,-26.92 585.57,-31.07"/>
</g>
<!-- src/index.js&#45;&gt;src/buildHTMLBoards.js -->
<g id="edge10" class="edge">
<title>src/index.js&#45;&gt;src/buildHTMLBoards.js</title>
<path fill="none" stroke="#000000" stroke-width="2" stroke-opacity="0.200000" d="M47.27,-111.27C52.49,-124.45 64.1,-148.13 83,-158 121.21,-177.96 137.3,-163.96 180,-158 202.37,-154.88 336.59,-115.13 404.43,-94.8"/>
<polygon fill="#000000" fill-opacity="0.200000" stroke="#000000" stroke-width="2" stroke-opacity="0.200000" points="405.61,-96.04 410.75,-92.3 404.4,-92.02 405.61,-96.04"/>
</g>
<!-- src/index.js&#45;&gt;src/checkWinner.js -->
<g id="edge11" class="edge">
<title>src/index.js&#45;&gt;src/checkWinner.js</title>
<path fill="none" stroke="#000000" stroke-width="2" stroke-opacity="0.200000" d="M67.92,-92.78C72.9,-90.86 78.12,-88.86 83,-87 87.75,-85.19 92.77,-83.28 97.7,-81.41"/>
<polygon fill="#000000" fill-opacity="0.200000" stroke="#000000" stroke-width="2" stroke-opacity="0.200000" points="98.97,-83.41 103.84,-79.32 97.48,-79.48 98.97,-83.41"/>
</g>
<!-- src/index.js&#45;&gt;src/playerCreation.js -->
<g id="edge14" class="edge">
<title>src/index.js&#45;&gt;src/playerCreation.js</title>
<path fill="none" stroke="#000000" stroke-width="2" stroke-opacity="0.200000" d="M70.38,-98.94C103.84,-94.98 159.63,-88.11 180,-84 184.96,-83 190.14,-81.8 195.24,-80.51"/>
<polygon fill="#000000" fill-opacity="0.200000" stroke="#000000" stroke-width="2" stroke-opacity="0.200000" points="196.43,-81.85 201.71,-78.3 195.37,-77.79 196.43,-81.85"/>
</g>
<!-- src/index.js&#45;&gt;src/gameLoopEvents.js -->
<g id="edge12" class="edge">
<title>src/index.js&#45;&gt;src/gameLoopEvents.js</title>
<path fill="none" stroke="#000000" stroke-width="2" stroke-opacity="0.200000" d="M70.42,-105.36C71.51,-105.5 72.62,-105.64 73.74,-105.78"/>
<polygon fill="#000000" fill-opacity="0.200000" stroke="#000000" stroke-width="2" stroke-opacity="0.200000" points="73.32,-108.23 79.53,-106.9 73.85,-104.06 73.32,-108.23"/>
</g>
<!-- src/meyer&#45;reset.css -->
<g id="node12" class="node">
<title>src/meyer&#45;reset.css</title>
<g id="a_node12"><a xlink:href="src/meyer-reset.css" xlink:title="meyer&#45;reset.css">
<path fill="#ffffcc" stroke="black" d="M165.83,-151.88C165.83,-151.88 97.17,-151.88 97.17,-151.88 94.21,-151.88 91.25,-148.92 91.25,-145.96 91.25,-145.96 91.25,-140.04 91.25,-140.04 91.25,-137.08 94.21,-134.12 97.17,-134.12 97.17,-134.12 165.83,-134.12 165.83,-134.12 168.79,-134.12 171.75,-137.08 171.75,-140.04 171.75,-140.04 171.75,-145.96 171.75,-145.96 171.75,-148.92 168.79,-151.88 165.83,-151.88"/>
<text text-anchor="start" x="99.25" y="-139.32" font-family="Helvetica,sans-Serif" font-size="9.00">meyer&#45;reset.css</text>
</a>
</g>
</g>
<!-- src/index.js&#45;&gt;src/meyer&#45;reset.css -->
<g id="edge13" class="edge">
<title>src/index.js&#45;&gt;src/meyer&#45;reset.css</title>
<path fill="none" stroke="#000000" stroke-width="2" stroke-opacity="0.200000" d="M56.11,-111.37C63.55,-116.79 73.46,-123.43 83,-128 84.77,-128.85 86.61,-129.67 88.48,-130.45"/>
<polygon fill="#000000" fill-opacity="0.200000" stroke="#000000" stroke-width="2" stroke-opacity="0.200000" points="88.47,-132.47 94.82,-132.67 89.98,-128.55 88.47,-132.47"/>
</g>
<!-- src/renderBoard.js -->
<g id="node13" class="node">
<title>src/renderBoard.js</title>
<g id="a_node13"><a xlink:href="src/renderBoard.js" xlink:title="renderBoard.js">
<path fill="#ffffcc" stroke="black" d="M163.96,-47.88C163.96,-47.88 99.04,-47.88 99.04,-47.88 96.08,-47.88 93.12,-44.92 93.12,-41.96 93.12,-41.96 93.12,-36.04 93.12,-36.04 93.12,-33.08 96.08,-30.12 99.04,-30.12 99.04,-30.12 163.96,-30.12 163.96,-30.12 166.92,-30.12 169.88,-33.08 169.88,-36.04 169.88,-36.04 169.88,-41.96 169.88,-41.96 169.88,-44.92 166.92,-47.88 163.96,-47.88"/>
<text text-anchor="start" x="101.12" y="-35.33" font-family="Helvetica,sans-Serif" font-size="9.00">renderBoard.js</text>
</a>
</g>
</g>
<!-- src/index.js&#45;&gt;src/renderBoard.js -->
<g id="edge15" class="edge">
<title>src/index.js&#45;&gt;src/renderBoard.js</title>
<path fill="none" stroke="#000000" stroke-width="2" stroke-opacity="0.200000" d="M49.14,-92.86C55.66,-82.06 67.91,-64.26 83,-54 83.93,-53.37 84.88,-52.77 85.85,-52.19"/>
<polygon fill="#000000" fill-opacity="0.200000" stroke="#000000" stroke-width="2" stroke-opacity="0.200000" points="87.29,-53.8 91.69,-49.21 85.39,-50.05 87.29,-53.8"/>
</g>
<!-- src/style.css -->
<g id="node14" class="node">
<title>src/style.css</title>
<g id="a_node14"><a xlink:href="src/style.css" xlink:title="style.css">
<path fill="#ffffcc" stroke="black" d="M152.58,-195.88C152.58,-195.88 110.42,-195.88 110.42,-195.88 107.46,-195.88 104.5,-192.92 104.5,-189.96 104.5,-189.96 104.5,-184.04 104.5,-184.04 104.5,-181.08 107.46,-178.12 110.42,-178.12 110.42,-178.12 152.58,-178.12 152.58,-178.12 155.54,-178.12 158.5,-181.08 158.5,-184.04 158.5,-184.04 158.5,-189.96 158.5,-189.96 158.5,-192.92 155.54,-195.88 152.58,-195.88"/>
<text text-anchor="start" x="114.25" y="-183.32" font-family="Helvetica,sans-Serif" font-size="9.00">style.css</text>
</a>
</g>
</g>
<!-- src/index.js&#45;&gt;src/style.css -->
<g id="edge16" class="edge">
<title>src/index.js&#45;&gt;src/style.css</title>
<path fill="none" stroke="#000000" stroke-width="2" stroke-opacity="0.200000" d="M47.04,-111.12C52.22,-125.38 64.11,-152.99 83,-169 86.88,-172.29 91.42,-175.01 96.13,-177.25"/>
<polygon fill="#000000" fill-opacity="0.200000" stroke="#000000" stroke-width="2" stroke-opacity="0.200000" points="95.78,-179.21 102.12,-179.58 97.39,-175.33 95.78,-179.21"/>
</g>
<!-- src/renderBoard.js&#45;&gt;src/playerCreation.js -->
<g id="edge19" class="edge">
<title>src/renderBoard.js&#45;&gt;src/playerCreation.js</title>
<path fill="none" stroke="#000000" stroke-width="2" stroke-opacity="0.200000" d="M164.33,-48.33C173.86,-51.12 184.45,-54.22 194.46,-57.16"/>
<polygon fill="#000000" fill-opacity="0.200000" stroke="#000000" stroke-width="2" stroke-opacity="0.200000" points="194.72,-60.01 201.06,-59.68 195.9,-55.98 194.72,-60.01"/>
</g>
<!-- src/wichFactory.test.js -->
<g id="node15" class="node">
<title>src/wichFactory.test.js</title>
<g id="a_node15"><a xlink:href="src/wichFactory.test.js" xlink:title="wichFactory.test.js">
<path fill="#ffffcc" stroke="black" d="M483.83,-121.88C483.83,-121.88 405.42,-121.88 405.42,-121.88 402.46,-121.88 399.5,-118.92 399.5,-115.96 399.5,-115.96 399.5,-110.04 399.5,-110.04 399.5,-107.08 402.46,-104.12 405.42,-104.12 405.42,-104.12 483.83,-104.12 483.83,-104.12 486.79,-104.12 489.75,-107.08 489.75,-110.04 489.75,-110.04 489.75,-115.96 489.75,-115.96 489.75,-118.92 486.79,-121.88 483.83,-121.88"/>
<text text-anchor="start" x="407.5" y="-109.33" font-family="Helvetica,sans-Serif" font-size="9.00">wichFactory.test.js</text>
</a>
</g>
</g>
<!-- src/wichFactory.test.js&#45;&gt;src/wichFactory.js -->
<g id="edge21" class="edge">
<title>src/wichFactory.test.js&#45;&gt;src/wichFactory.js</title>
<path fill="none" stroke="#000000" stroke-width="2" stroke-opacity="0.200000" d="M481,-103.69C485.56,-102.03 490.08,-100.14 494.25,-98 505.91,-92.03 517.66,-83.24 526.71,-75.73"/>
<polygon fill="#000000" fill-opacity="0.200000" stroke="#000000" stroke-width="2" stroke-opacity="0.200000" points="528.15,-76.56 531.34,-71.06 525.42,-73.36 528.15,-76.56"/>
</g>
</g>
</svg>
