<?xml version="1.0" encoding="UTF-8" standalone="no"?>
<!DOCTYPE svg PUBLIC "-//W3C//DTD SVG 1.1//EN"
 "http://www.w3.org/Graphics/SVG/1.1/DTD/svg11.dtd">
<!-- Generated by graphviz version 8.1.0 (20230707.0739)
 -->
<!-- Title: dependency&#45;cruiser output Pages: 1 -->
<svg width="895pt" height="308pt"
 viewBox="0.00 0.00 895.25 308.00" xmlns="http://www.w3.org/2000/svg" xmlns:xlink="http://www.w3.org/1999/xlink">
<g id="graph0" class="graph" transform="scale(1 1) rotate(0) translate(4 304)">
<title>dependency&#45;cruiser output</title>
<polygon fill="white" stroke="none" points="-4,4 -4,-304 891.25,-304 891.25,4 -4,4"/>
<g id="clust1" class="cluster">
<title>cluster_src</title>
<path fill="#ffffff" stroke="black" stroke-width="2" d="M20,-8C20,-8 867.25,-8 867.25,-8 873.25,-8 879.25,-14 879.25,-20 879.25,-20 879.25,-280 879.25,-280 879.25,-286 873.25,-292 867.25,-292 867.25,-292 20,-292 20,-292 14,-292 8,-286 8,-280 8,-280 8,-20 8,-20 8,-14 14,-8 20,-8"/>
<text text-anchor="middle" x="443.62" y="-279.45" font-family="Helvetica,sans-Serif" font-weight="bold" font-size="9.00">src</text>
</g>
<!-- src/Gameboard.js -->
<g id="node1" class="node">
<title>src/Gameboard.js</title>
<g id="a_node1"><a xlink:href="src/Gameboard.js" xlink:title="Gameboard.js">
<path fill="#ffffcc" stroke="black" d="M646.83,-128.88C646.83,-128.88 584.92,-128.88 584.92,-128.88 581.96,-128.88 579,-125.92 579,-122.96 579,-122.96 579,-117.04 579,-117.04 579,-114.08 581.96,-111.12 584.92,-111.12 584.92,-111.12 646.83,-111.12 646.83,-111.12 649.79,-111.12 652.75,-114.08 652.75,-117.04 652.75,-117.04 652.75,-122.96 652.75,-122.96 652.75,-125.92 649.79,-128.88 646.83,-128.88"/>
<text text-anchor="start" x="587" y="-116.33" font-family="Helvetica,sans-Serif" font-size="9.00">Gameboard.js</text>
</a>
</g>
</g>
<!-- src/updateDomMessage.js -->
<g id="node2" class="node">
<title>src/updateDomMessage.js</title>
<g id="a_node2"><a xlink:href="src/updateDomMessage.js" xlink:title="updateDomMessage.js">
<path fill="#ffffcc" stroke="black" d="M865.33,-157.88C865.33,-157.88 766.67,-157.88 766.67,-157.88 763.71,-157.88 760.75,-154.92 760.75,-151.96 760.75,-151.96 760.75,-146.04 760.75,-146.04 760.75,-143.08 763.71,-140.12 766.67,-140.12 766.67,-140.12 865.33,-140.12 865.33,-140.12 868.29,-140.12 871.25,-143.08 871.25,-146.04 871.25,-146.04 871.25,-151.96 871.25,-151.96 871.25,-154.92 868.29,-157.88 865.33,-157.88"/>
<text text-anchor="start" x="768.75" y="-145.32" font-family="Helvetica,sans-Serif" font-size="9.00">updateDomMessage.js</text>
</a>
</g>
</g>
<!-- src/Gameboard.js&#45;&gt;src/updateDomMessage.js -->
<g id="edge1" class="edge">
<title>src/Gameboard.js&#45;&gt;src/updateDomMessage.js</title>
<path fill="none" stroke="#000000" stroke-width="2" stroke-opacity="0.200000" d="M653.21,-125.32C680.8,-129.36 719.41,-135.01 751.99,-139.78"/>
<polygon fill="#000000" fill-opacity="0.200000" stroke="#000000" stroke-width="2" stroke-opacity="0.200000" points="752.33,-142.24 758.57,-141.03 752.94,-138.09 752.33,-142.24"/>
</g>
<!-- src/wichFactory.js -->
<g id="node3" class="node">
<title>src/wichFactory.js</title>
<g id="a_node3"><a xlink:href="src/wichFactory.js" xlink:title="wichFactory.js">
<path fill="#ffffcc" stroke="black" d="M741.83,-104.88C741.83,-104.88 679.92,-104.88 679.92,-104.88 676.96,-104.88 674,-101.92 674,-98.96 674,-98.96 674,-93.04 674,-93.04 674,-90.08 676.96,-87.12 679.92,-87.12 679.92,-87.12 741.83,-87.12 741.83,-87.12 744.79,-87.12 747.75,-90.08 747.75,-93.04 747.75,-93.04 747.75,-98.96 747.75,-98.96 747.75,-101.92 744.79,-104.88 741.83,-104.88"/>
<text text-anchor="start" x="682" y="-92.33" font-family="Helvetica,sans-Serif" font-size="9.00">wichFactory.js</text>
</a>
</g>
</g>
<!-- src/Gameboard.js&#45;&gt;src/wichFactory.js -->
<g id="edge2" class="edge">
<title>src/Gameboard.js&#45;&gt;src/wichFactory.js</title>
<path fill="none" stroke="#000000" stroke-width="2" stroke-opacity="0.200000" d="M653.1,-110.65C656.99,-109.65 660.98,-108.62 664.96,-107.59"/>
<polygon fill="#000000" fill-opacity="0.200000" stroke="#000000" stroke-width="2" stroke-opacity="0.200000" points="666.31,-108.89 671.6,-105.36 665.26,-104.83 666.31,-108.89"/>
</g>
<!-- src/wichFactory.js&#45;&gt;src/updateDomMessage.js -->
<g id="edge34" class="edge">
<title>src/wichFactory.js&#45;&gt;src/updateDomMessage.js</title>
<path fill="none" stroke="#000000" stroke-width="2" stroke-opacity="0.200000" d="M729.84,-105.23C746.23,-113.65 770.63,-126.2 789.12,-135.7"/>
<polygon fill="#000000" fill-opacity="0.200000" stroke="#000000" stroke-width="2" stroke-opacity="0.200000" points="788.6,-137.82 794.9,-138.7 790.52,-134.09 788.6,-137.82"/>
</g>
<!-- src/Gameboard.test.js -->
<g id="node4" class="node">
<title>src/Gameboard.test.js</title>
<g id="a_node4"><a xlink:href="src/Gameboard.test.js" xlink:title="Gameboard.test.js">
<path fill="#ffffcc" stroke="black" d="M273.83,-39.88C273.83,-39.88 195.42,-39.88 195.42,-39.88 192.46,-39.88 189.5,-36.92 189.5,-33.96 189.5,-33.96 189.5,-28.04 189.5,-28.04 189.5,-25.08 192.46,-22.12 195.42,-22.12 195.42,-22.12 273.83,-22.12 273.83,-22.12 276.79,-22.12 279.75,-25.08 279.75,-28.04 279.75,-28.04 279.75,-33.96 279.75,-33.96 279.75,-36.92 276.79,-39.88 273.83,-39.88"/>
<text text-anchor="start" x="197.5" y="-27.32" font-family="Helvetica,sans-Serif" font-size="9.00">Gameboard.test.js</text>
</a>
</g>
</g>
<!-- src/Gameboard.test.js&#45;&gt;src/Gameboard.js -->
<g id="edge4" class="edge">
<title>src/Gameboard.test.js&#45;&gt;src/Gameboard.js</title>
<path fill="none" stroke="#000000" stroke-width="2" stroke-opacity="0.200000" d="M279.96,-26.22C311.38,-23.73 354.43,-22.1 392,-27 467.58,-36.86 501.08,-20.03 557.75,-71 569.78,-81.82 559.1,-93.78 570.75,-105 571.04,-105.28 571.34,-105.56 571.64,-105.83"/>
<polygon fill="#000000" fill-opacity="0.200000" stroke="#000000" stroke-width="2" stroke-opacity="0.200000" points="570.51,-108.02 576.62,-109.78 572.94,-104.6 570.51,-108.02"/>
</g>
<!-- src/Gameboard.test.js&#45;&gt;src/wichFactory.js -->
<g id="edge5" class="edge">
<title>src/Gameboard.test.js&#45;&gt;src/wichFactory.js</title>
<path fill="none" stroke="#000000" stroke-width="2" stroke-opacity="0.200000" d="M280.13,-31C322.89,-31 389.29,-31 446.88,-31 446.88,-31 446.88,-31 531.75,-31 590.93,-31 654.83,-63.05 687.64,-82.14"/>
<polygon fill="#000000" fill-opacity="0.200000" stroke="#000000" stroke-width="2" stroke-opacity="0.200000" points="687.06,-84.43 693.29,-85.69 689.2,-80.82 687.06,-84.43"/>
</g>
<!-- src/buildHTMLBoards.js -->
<g id="node5" class="node">
<title>src/buildHTMLBoards.js</title>
<g id="a_node5"><a xlink:href="src/buildHTMLBoards.js" xlink:title="buildHTMLBoards.js">
<path fill="#ffffcc" stroke="black" d="M386.08,-61.88C386.08,-61.88 298.67,-61.88 298.67,-61.88 295.71,-61.88 292.75,-58.92 292.75,-55.96 292.75,-55.96 292.75,-50.04 292.75,-50.04 292.75,-47.08 295.71,-44.12 298.67,-44.12 298.67,-44.12 386.08,-44.12 386.08,-44.12 389.04,-44.12 392,-47.08 392,-50.04 392,-50.04 392,-55.96 392,-55.96 392,-58.92 389.04,-61.88 386.08,-61.88"/>
<text text-anchor="start" x="300.75" y="-49.33" font-family="Helvetica,sans-Serif" font-size="9.00">buildHTMLBoards.js</text>
</a>
</g>
</g>
<!-- src/Gameboard.test.js&#45;&gt;src/buildHTMLBoards.js -->
<g id="edge3" class="edge">
<title>src/Gameboard.test.js&#45;&gt;src/buildHTMLBoards.js</title>
<path fill="none" stroke="#000000" stroke-width="2" stroke-opacity="0.200000" d="M280.17,-40.27C282.71,-40.79 285.27,-41.33 287.84,-41.86"/>
<polygon fill="#000000" fill-opacity="0.200000" stroke="#000000" stroke-width="2" stroke-opacity="0.200000" points="288.24,-44.51 294.55,-43.67 289.1,-40.4 288.24,-44.51"/>
</g>
<!-- src/Player.js -->
<g id="node6" class="node">
<title>src/Player.js</title>
<g id="a_node6"><a xlink:href="src/Player.js" xlink:title="Player.js">
<path fill="#ffffcc" stroke="black" d="M551.83,-193.88C551.83,-193.88 509.67,-193.88 509.67,-193.88 506.71,-193.88 503.75,-190.92 503.75,-187.96 503.75,-187.96 503.75,-182.04 503.75,-182.04 503.75,-179.08 506.71,-176.12 509.67,-176.12 509.67,-176.12 551.83,-176.12 551.83,-176.12 554.79,-176.12 557.75,-179.08 557.75,-182.04 557.75,-182.04 557.75,-187.96 557.75,-187.96 557.75,-190.92 554.79,-193.88 551.83,-193.88"/>
<text text-anchor="start" x="513.12" y="-181.32" font-family="Helvetica,sans-Serif" font-size="9.00">Player.js</text>
</a>
</g>
</g>
<!-- src/Player.js&#45;&gt;src/Gameboard.js -->
<g id="edge6" class="edge">
<title>src/Player.js&#45;&gt;src/Gameboard.js</title>
<path fill="none" stroke="#000000" stroke-width="2" stroke-opacity="0.200000" d="M543.66,-175.69C557.36,-164.97 580.04,-147.24 596.12,-134.67"/>
<polygon fill="#000000" fill-opacity="0.200000" stroke="#000000" stroke-width="2" stroke-opacity="0.200000" points="597.55,-135.65 600.99,-130.3 594.97,-132.34 597.55,-135.65"/>
</g>
<!-- src/Player.test.js -->
<g id="node7" class="node">
<title>src/Player.test.js</title>
<g id="a_node7"><a xlink:href="src/Player.test.js" xlink:title="Player.test.js">
<path fill="#ffffcc" stroke="black" d="M475.83,-193.88C475.83,-193.88 419.92,-193.88 419.92,-193.88 416.96,-193.88 414,-190.92 414,-187.96 414,-187.96 414,-182.04 414,-182.04 414,-179.08 416.96,-176.12 419.92,-176.12 419.92,-176.12 475.83,-176.12 475.83,-176.12 478.79,-176.12 481.75,-179.08 481.75,-182.04 481.75,-182.04 481.75,-187.96 481.75,-187.96 481.75,-190.92 478.79,-193.88 475.83,-193.88"/>
<text text-anchor="start" x="422" y="-181.32" font-family="Helvetica,sans-Serif" font-size="9.00">Player.test.js</text>
</a>
</g>
</g>
<!-- src/Player.test.js&#45;&gt;src/Player.js -->
<g id="edge7" class="edge">
<title>src/Player.test.js&#45;&gt;src/Player.js</title>
<path fill="none" stroke="#000000" stroke-width="2" stroke-opacity="0.200000" d="M482.24,-185C486.36,-185 490.59,-185 494.74,-185"/>
<polygon fill="#000000" fill-opacity="0.200000" stroke="#000000" stroke-width="2" stroke-opacity="0.200000" points="494.63,-187.1 500.63,-185 494.63,-182.9 494.63,-187.1"/>
</g>
<!-- src/boardSetUp.js -->
<g id="node8" class="node">
<title>src/boardSetUp.js</title>
<g id="a_node8"><a xlink:href="src/boardSetUp.js" xlink:title="boardSetUp.js">
<path fill="#ffffcc" stroke="black" d="M265.96,-237.88C265.96,-237.88 203.29,-237.88 203.29,-237.88 200.33,-237.88 197.38,-234.92 197.38,-231.96 197.38,-231.96 197.38,-226.04 197.38,-226.04 197.38,-223.08 200.33,-220.12 203.29,-220.12 203.29,-220.12 265.96,-220.12 265.96,-220.12 268.92,-220.12 271.88,-223.08 271.88,-226.04 271.88,-226.04 271.88,-231.96 271.88,-231.96 271.88,-234.92 268.92,-237.88 265.96,-237.88"/>
<text text-anchor="start" x="205.38" y="-225.32" font-family="Helvetica,sans-Serif" font-size="9.00">boardSetUp.js</text>
</a>
</g>
</g>
<!-- src/boardSetUp.js&#45;&gt;src/updateDomMessage.js -->
<g id="edge10" class="edge">
<title>src/boardSetUp.js&#45;&gt;src/updateDomMessage.js</title>
<path fill="none" stroke="#000000" stroke-width="2" stroke-opacity="0.200000" d="M255.82,-238.35C266.56,-242.92 280.12,-248.06 292.75,-251 359.73,-266.62 378.09,-265 446.88,-265 446.88,-265 446.88,-265 616.88,-265 647.27,-265 745.65,-228.4 747.75,-227 772.3,-210.71 793.11,-183.08 804.82,-165.45"/>
<polygon fill="#000000" fill-opacity="0.200000" stroke="#000000" stroke-width="2" stroke-opacity="0.200000" points="807.05,-166.32 808.54,-160.14 803.52,-164.04 807.05,-166.32"/>
</g>
<!-- src/gameLoop.js -->
<g id="node9" class="node">
<title>src/gameLoop.js</title>
<g id="a_node9"><a xlink:href="src/gameLoop.js" xlink:title="gameLoop.js">
<path fill="#ffffcc" stroke="black" d="M79.33,-201.88C79.33,-201.88 21.92,-201.88 21.92,-201.88 18.96,-201.88 16,-198.92 16,-195.96 16,-195.96 16,-190.04 16,-190.04 16,-187.08 18.96,-184.12 21.92,-184.12 21.92,-184.12 79.33,-184.12 79.33,-184.12 82.29,-184.12 85.25,-187.08 85.25,-190.04 85.25,-190.04 85.25,-195.96 85.25,-195.96 85.25,-198.92 82.29,-201.88 79.33,-201.88"/>
<text text-anchor="start" x="24" y="-189.32" font-family="Helvetica,sans-Serif" font-size="9.00">gameLoop.js</text>
</a>
</g>
</g>
<!-- src/boardSetUp.js&#45;&gt;src/gameLoop.js -->
<g id="edge8" class="edge">
<title>src/boardSetUp.js&#45;&gt;src/gameLoop.js</title>
<g id="a_edge8"><a xlink:title="no&#45;circular">
<path fill="none" stroke="orange" stroke-width="2" d="M198.42,-219.71C191.27,-217.21 183.73,-214.77 176.5,-213 149.6,-206.43 118.68,-202.93 94.34,-200.35"/>
<polygon fill="none" stroke="orange" stroke-width="2" points="94.88,-197.97 88.69,-199.43 94.44,-202.15 94.88,-197.97"/>
</a>
</g>
<text text-anchor="middle" x="121.02" y="-197.87" font-family="Helvetica,sans-Serif" font-size="9.00" fill="orange">no&#45;circular</text>
</g>
<!-- src/playerCreation.js -->
<g id="node10" class="node">
<title>src/playerCreation.js</title>
<g id="a_node10"><a xlink:href="src/playerCreation.js" xlink:title="playerCreation.js">
<path fill="#ffffcc" stroke="black" d="M484.83,-223.88C484.83,-223.88 410.92,-223.88 410.92,-223.88 407.96,-223.88 405,-220.92 405,-217.96 405,-217.96 405,-212.04 405,-212.04 405,-209.08 407.96,-206.12 410.92,-206.12 410.92,-206.12 484.83,-206.12 484.83,-206.12 487.79,-206.12 490.75,-209.08 490.75,-212.04 490.75,-212.04 490.75,-217.96 490.75,-217.96 490.75,-220.92 487.79,-223.88 484.83,-223.88"/>
<text text-anchor="start" x="413" y="-211.32" font-family="Helvetica,sans-Serif" font-size="9.00">playerCreation.js</text>
</a>
</g>
</g>
<!-- src/boardSetUp.js&#45;&gt;src/playerCreation.js -->
<g id="edge9" class="edge">
<title>src/boardSetUp.js&#45;&gt;src/playerCreation.js</title>
<path fill="none" stroke="#000000" stroke-width="2" stroke-opacity="0.200000" d="M265.28,-238.33C274.04,-240.66 283.7,-242.83 292.75,-244 336.5,-249.65 349.19,-254.62 392,-244 404.05,-241.01 416.37,-234.84 426.27,-228.96"/>
<polygon fill="#000000" fill-opacity="0.200000" stroke="#000000" stroke-width="2" stroke-opacity="0.200000" points="427.66,-230.32 431.64,-225.36 425.44,-226.75 427.66,-230.32"/>
</g>
<!-- src/welcomeScreen.js -->
<g id="node11" class="node">
<title>src/welcomeScreen.js</title>
<g id="a_node11"><a xlink:href="src/welcomeScreen.js" xlink:title="welcomeScreen.js">
<path fill="#ffffcc" stroke="black" d="M381.96,-237.88C381.96,-237.88 302.79,-237.88 302.79,-237.88 299.83,-237.88 296.88,-234.92 296.88,-231.96 296.88,-231.96 296.88,-226.04 296.88,-226.04 296.88,-223.08 299.83,-220.12 302.79,-220.12 302.79,-220.12 381.96,-220.12 381.96,-220.12 384.92,-220.12 387.88,-223.08 387.88,-226.04 387.88,-226.04 387.88,-231.96 387.88,-231.96 387.88,-234.92 384.92,-237.88 381.96,-237.88"/>
<text text-anchor="start" x="304.88" y="-225.32" font-family="Helvetica,sans-Serif" font-size="9.00">welcomeScreen.js</text>
</a>
</g>
</g>
<!-- src/boardSetUp.js&#45;&gt;src/welcomeScreen.js -->
<g id="edge11" class="edge">
<title>src/boardSetUp.js&#45;&gt;src/welcomeScreen.js</title>
<g id="a_edge11"><a xlink:title="no&#45;circular">
<path fill="none" stroke="orange" stroke-width="2" d="M272.31,-224.69C277.36,-224.57 282.62,-224.5 287.89,-224.5"/>
<polygon fill="none" stroke="orange" stroke-width="2" points="287.72,-226.62 293.73,-224.55 287.74,-222.42 287.72,-226.62"/>
</a>
</g>
<text text-anchor="middle" x="262.69" y="-215.96" font-family="Helvetica,sans-Serif" font-size="9.00" fill="orange">no&#45;circular</text>
</g>
<!-- src/gameLoop.js&#45;&gt;src/Gameboard.js -->
<g id="edge16" class="edge">
<title>src/gameLoop.js&#45;&gt;src/Gameboard.js</title>
<path fill="none" stroke="#000000" stroke-width="2" stroke-opacity="0.200000" d="M57.96,-183.74C66.18,-172.28 81.45,-152.73 98.25,-140 151.44,-99.69 166.88,-75 233.62,-75 233.62,-75 233.62,-75 448.88,-75 474.1,-75 538.35,-94.61 579.12,-107.94"/>
<polygon fill="#000000" fill-opacity="0.200000" stroke="#000000" stroke-width="2" stroke-opacity="0.200000" points="579.08,-110.79 585.44,-110.68 580.4,-106.8 579.08,-110.79"/>
</g>
<!-- src/gameLoop.js&#45;&gt;src/buildHTMLBoards.js -->
<g id="edge14" class="edge">
<title>src/gameLoop.js&#45;&gt;src/buildHTMLBoards.js</title>
<path fill="none" stroke="#000000" stroke-width="2" stroke-opacity="0.200000" d="M52,-183.71C53.49,-160.29 60.96,-98.75 98.25,-71 126.53,-49.96 220.92,-48.68 283.43,-50.35"/>
<polygon fill="#000000" fill-opacity="0.200000" stroke="#000000" stroke-width="2" stroke-opacity="0.200000" points="283.35,-52.54 289.41,-50.62 283.48,-48.34 283.35,-52.54"/>
</g>
<!-- src/gameLoop.js&#45;&gt;src/boardSetUp.js -->
<g id="edge13" class="edge">
<title>src/gameLoop.js&#45;&gt;src/boardSetUp.js</title>
<g id="a_edge13"><a xlink:title="no&#45;circular">
<path fill="none" stroke="orange" stroke-width="2" d="M85.69,-189.5C111.03,-190.12 146.3,-193.62 176.5,-201 189.99,-204.3 204.6,-209.96 215.66,-215.51"/>
<polygon fill="none" stroke="orange" stroke-width="2" points="215.08,-217.68 221.35,-218.7 217.09,-213.99 215.08,-217.68"/>
</a>
</g>
<text text-anchor="middle" x="133.99" y="-188.09" font-family="Helvetica,sans-Serif" font-size="9.00" fill="orange">no&#45;circular</text>
</g>
<!-- src/gameLoop.js&#45;&gt;src/welcomeScreen.js -->
<g id="edge19" class="edge">
<title>src/gameLoop.js&#45;&gt;src/welcomeScreen.js</title>
<g id="a_edge19"><a xlink:title="no&#45;circular">
<path fill="none" stroke="orange" stroke-width="2" d="M85.75,-192.18C89.96,-192.11 94.2,-192.04 98.25,-192 133.03,-191.63 141.91,-188.36 176.5,-192 223.16,-196.92 234.01,-203.56 279.75,-214 284.7,-215.13 289.87,-216.34 295.01,-217.56"/>
<polygon fill="none" stroke="orange" stroke-width="2" points="295.29,-220.27 301.61,-219.63 296.27,-216.18 295.29,-220.27"/>
</a>
</g>
<text text-anchor="middle" x="218.2" y="-185.95" font-family="Helvetica,sans-Serif" font-size="9.00" fill="orange">no&#45;circular</text>
</g>
<!-- src/checkWinner.js -->
<g id="node12" class="node">
<title>src/checkWinner.js</title>
<g id="a_node12"><a xlink:href="src/checkWinner.js" xlink:title="checkWinner.js">
<path fill="#ffffcc" stroke="black" d="M170.58,-230.88C170.58,-230.88 104.17,-230.88 104.17,-230.88 101.21,-230.88 98.25,-227.92 98.25,-224.96 98.25,-224.96 98.25,-219.04 98.25,-219.04 98.25,-216.08 101.21,-213.12 104.17,-213.12 104.17,-213.12 170.58,-213.12 170.58,-213.12 173.54,-213.12 176.5,-216.08 176.5,-219.04 176.5,-219.04 176.5,-224.96 176.5,-224.96 176.5,-227.92 173.54,-230.88 170.58,-230.88"/>
<text text-anchor="start" x="106.25" y="-218.32" font-family="Helvetica,sans-Serif" font-size="9.00">checkWinner.js</text>
</a>
</g>
</g>
<!-- src/gameLoop.js&#45;&gt;src/checkWinner.js -->
<g id="edge15" class="edge">
<title>src/gameLoop.js&#45;&gt;src/checkWinner.js</title>
<g id="a_edge15"><a xlink:title="no&#45;circular">
<path fill="none" stroke="orange" stroke-width="2" d="M78.91,-202.34C85.86,-204.72 93.44,-207.31 100.75,-209.81"/>
<polygon fill="none" stroke="orange" stroke-width="2" points="100.79,-212.73 107.14,-212.68 102.15,-208.75 100.79,-212.73"/>
</a>
</g>
<text text-anchor="middle" x="72.44" y="-208.77" font-family="Helvetica,sans-Serif" font-size="9.00" fill="orange">no&#45;circular</text>
</g>
<!-- src/gameLoopEvents.js -->
<g id="node13" class="node">
<title>src/gameLoopEvents.js</title>
<g id="a_node13"><a xlink:href="src/gameLoopEvents.js" xlink:title="gameLoopEvents.js">
<path fill="#ffffcc" stroke="black" d="M384.96,-105.88C384.96,-105.88 299.79,-105.88 299.79,-105.88 296.83,-105.88 293.88,-102.92 293.88,-99.96 293.88,-99.96 293.88,-94.04 293.88,-94.04 293.88,-91.08 296.83,-88.12 299.79,-88.12 299.79,-88.12 384.96,-88.12 384.96,-88.12 387.92,-88.12 390.88,-91.08 390.88,-94.04 390.88,-94.04 390.88,-99.96 390.88,-99.96 390.88,-102.92 387.92,-105.88 384.96,-105.88"/>
<text text-anchor="start" x="301.88" y="-93.33" font-family="Helvetica,sans-Serif" font-size="9.00">gameLoopEvents.js</text>
</a>
</g>
</g>
<!-- src/gameLoop.js&#45;&gt;src/gameLoopEvents.js -->
<g id="edge17" class="edge">
<title>src/gameLoop.js&#45;&gt;src/gameLoopEvents.js</title>
<path fill="none" stroke="#000000" stroke-width="2" stroke-opacity="0.200000" d="M73.34,-183.69C100.29,-172.32 147.79,-152.89 189.5,-139 224.34,-127.39 264.41,-116.41 294.64,-108.59"/>
<polygon fill="#000000" fill-opacity="0.200000" stroke="#000000" stroke-width="2" stroke-opacity="0.200000" points="296,-109.89 301.29,-106.37 294.95,-105.82 296,-109.89"/>
</g>
<!-- src/renderBoard.js -->
<g id="node14" class="node">
<title>src/renderBoard.js</title>
<g id="a_node14"><a xlink:href="src/renderBoard.js" xlink:title="renderBoard.js">
<path fill="#ffffcc" stroke="black" d="M169.83,-260.88C169.83,-260.88 104.92,-260.88 104.92,-260.88 101.96,-260.88 99,-257.92 99,-254.96 99,-254.96 99,-249.04 99,-249.04 99,-246.08 101.96,-243.12 104.92,-243.12 104.92,-243.12 169.83,-243.12 169.83,-243.12 172.79,-243.12 175.75,-246.08 175.75,-249.04 175.75,-249.04 175.75,-254.96 175.75,-254.96 175.75,-257.92 172.79,-260.88 169.83,-260.88"/>
<text text-anchor="start" x="107" y="-248.32" font-family="Helvetica,sans-Serif" font-size="9.00">renderBoard.js</text>
</a>
</g>
</g>
<!-- src/gameLoop.js&#45;&gt;src/renderBoard.js -->
<g id="edge18" class="edge">
<title>src/gameLoop.js&#45;&gt;src/renderBoard.js</title>
<g id="a_edge18"><a xlink:title="no&#45;circular">
<path fill="none" stroke="orange" stroke-width="2" d="M59.39,-202.17C68.04,-211.91 82.84,-227.22 98.25,-237 99.2,-237.6 100.17,-238.18 101.16,-238.75"/>
<polygon fill="none" stroke="orange" stroke-width="2" points="100.78,-240.92 107.08,-241.75 102.67,-237.17 100.78,-240.92"/>
</a>
</g>
<text text-anchor="middle" x="60.38" y="-226.03" font-family="Helvetica,sans-Serif" font-size="9.00" fill="orange">no&#45;circular</text>
</g>
<!-- src/playerCreation.js&#45;&gt;src/Player.js -->
<g id="edge28" class="edge">
<title>src/playerCreation.js&#45;&gt;src/Player.js</title>
<path fill="none" stroke="#000000" stroke-width="2" stroke-opacity="0.200000" d="M475.04,-205.73C480.26,-203.86 485.68,-201.88 490.75,-200 493.05,-199.15 495.41,-198.26 497.79,-197.36"/>
<polygon fill="#000000" fill-opacity="0.200000" stroke="#000000" stroke-width="2" stroke-opacity="0.200000" points="499,-199.39 503.86,-195.29 497.5,-195.46 499,-199.39"/>
</g>
<!-- src/welcomeScreen.js&#45;&gt;src/updateDomMessage.js -->
<g id="edge33" class="edge">
<title>src/welcomeScreen.js&#45;&gt;src/updateDomMessage.js</title>
<path fill="none" stroke="#000000" stroke-width="2" stroke-opacity="0.200000" d="M388.01,-237.25C425.66,-243.5 481.04,-251 529.75,-251 529.75,-251 529.75,-251 616.88,-251 692.05,-251 767.24,-192.24 799.12,-163.92"/>
<polygon fill="#000000" fill-opacity="0.200000" stroke="#000000" stroke-width="2" stroke-opacity="0.200000" points="800.56,-165.64 803.59,-160.05 797.74,-162.53 800.56,-165.64"/>
</g>
<!-- src/welcomeScreen.js&#45;&gt;src/Player.js -->
<g id="edge31" class="edge">
<title>src/welcomeScreen.js&#45;&gt;src/Player.js</title>
<path fill="none" stroke="#000000" stroke-width="2" stroke-opacity="0.200000" d="M385.04,-238.35C415.68,-243.12 457.58,-245.14 490.75,-230 503.36,-224.24 513.47,-212.16 520.23,-201.97"/>
<polygon fill="#000000" fill-opacity="0.200000" stroke="#000000" stroke-width="2" stroke-opacity="0.200000" points="522.56,-202.56 523.92,-196.35 518.98,-200.36 522.56,-202.56"/>
</g>
<!-- src/welcomeScreen.js&#45;&gt;src/boardSetUp.js -->
<g id="edge30" class="edge">
<title>src/welcomeScreen.js&#45;&gt;src/boardSetUp.js</title>
<g id="a_edge30"><a xlink:title="no&#45;circular">
<path fill="none" stroke="orange" stroke-width="2" d="M296.73,-233.45C291.52,-233.51 286.2,-233.52 280.97,-233.46"/>
<polygon fill="none" stroke="orange" stroke-width="2" points="281.35,-231.31 275.31,-233.31 281.28,-235.51 281.35,-231.31"/>
</a>
</g>
<text text-anchor="middle" x="262.66" y="-234.69" font-family="Helvetica,sans-Serif" font-size="9.00" fill="orange">no&#45;circular</text>
</g>
<!-- src/welcomeScreen.js&#45;&gt;src/playerCreation.js -->
<g id="edge32" class="edge">
<title>src/welcomeScreen.js&#45;&gt;src/playerCreation.js</title>
<path fill="none" stroke="#000000" stroke-width="2" stroke-opacity="0.200000" d="M388.17,-222.94C390.73,-222.59 393.31,-222.24 395.9,-221.9"/>
<polygon fill="#000000" fill-opacity="0.200000" stroke="#000000" stroke-width="2" stroke-opacity="0.200000" points="396.96,-223.6 402.63,-220.71 396.4,-219.44 396.96,-223.6"/>
</g>
<!-- src/checkWinner.js&#45;&gt;src/boardSetUp.js -->
<g id="edge12" class="edge">
<title>src/checkWinner.js&#45;&gt;src/boardSetUp.js</title>
<g id="a_edge12"><a xlink:title="no&#45;circular">
<path fill="none" stroke="orange" stroke-width="2" d="M176.84,-224.83C180.62,-225.1 184.47,-225.39 188.31,-225.67"/>
<polygon fill="none" stroke="orange" stroke-width="2" points="188.04,-227.98 194.17,-226.32 188.34,-223.79 188.04,-227.98"/>
</a>
</g>
<text text-anchor="middle" x="208.62" y="-217.01" font-family="Helvetica,sans-Serif" font-size="9.00" fill="orange">no&#45;circular</text>
</g>
<!-- src/renderBoard.js&#45;&gt;src/boardSetUp.js -->
<g id="edge29" class="edge">
<title>src/renderBoard.js&#45;&gt;src/boardSetUp.js</title>
<g id="a_edge29"><a xlink:title="no&#45;circular">
<path fill="none" stroke="orange" stroke-width="2" d="M176.02,-242.91C180.1,-241.93 184.27,-240.92 188.43,-239.91"/>
<polygon fill="none" stroke="orange" stroke-width="2" points="189.54,-241.32 194.88,-237.87 188.55,-237.24 189.54,-241.32"/>
</a>
</g>
<text text-anchor="middle" x="164.73" y="-231.83" font-family="Helvetica,sans-Serif" font-size="9.00" fill="orange">no&#45;circular</text>
</g>
<!-- src/index.js -->
<g id="node15" class="node">
<title>src/index.js</title>
<g id="a_node15"><a xlink:href="src/index.js" xlink:title="index.js">
<path fill="#ffffcc" stroke="black" d="M255.71,-162.88C255.71,-162.88 213.54,-162.88 213.54,-162.88 210.58,-162.88 207.62,-159.92 207.62,-156.96 207.62,-156.96 207.62,-151.04 207.62,-151.04 207.62,-148.08 210.58,-145.12 213.54,-145.12 213.54,-145.12 255.71,-145.12 255.71,-145.12 258.67,-145.12 261.62,-148.08 261.62,-151.04 261.62,-151.04 261.62,-156.96 261.62,-156.96 261.62,-159.92 258.67,-162.88 255.71,-162.88"/>
<text text-anchor="start" x="218.88" y="-150.32" font-family="Helvetica,sans-Serif" font-size="9.00">index.js</text>
</a>
</g>
</g>
<!-- src/index.js&#45;&gt;src/updateDomMessage.js -->
<g id="edge26" class="edge">
<title>src/index.js&#45;&gt;src/updateDomMessage.js</title>
<path fill="none" stroke="#000000" stroke-width="2" stroke-opacity="0.200000" d="M261.97,-152.98C301.93,-151.51 380.29,-149 446.88,-149 446.88,-149 446.88,-149 616.88,-149 661.96,-149 712.83,-149 751.73,-149"/>
<polygon fill="#000000" fill-opacity="0.200000" stroke="#000000" stroke-width="2" stroke-opacity="0.200000" points="751.34,-151.1 757.34,-149 751.34,-146.9 751.34,-151.1"/>
</g>
<!-- src/index.js&#45;&gt;src/buildHTMLBoards.js -->
<g id="edge20" class="edge">
<title>src/index.js&#45;&gt;src/buildHTMLBoards.js</title>
<path fill="none" stroke="#000000" stroke-width="2" stroke-opacity="0.200000" d="M241.4,-144.71C250.81,-130.07 270.66,-101.34 292.75,-82 299.27,-76.3 307.06,-71.08 314.48,-66.7"/>
<polygon fill="#000000" fill-opacity="0.200000" stroke="#000000" stroke-width="2" stroke-opacity="0.200000" points="316.11,-68.06 320.3,-63.28 314.04,-64.4 316.11,-68.06"/>
</g>
<!-- src/index.js&#45;&gt;src/Player.js -->
<g id="edge23" class="edge">
<title>src/index.js&#45;&gt;src/Player.js</title>
<path fill="none" stroke="#000000" stroke-width="2" stroke-opacity="0.200000" d="M261.94,-154.64C318.03,-156.16 447.72,-160.61 490.75,-170 493.99,-170.71 497.31,-171.64 500.59,-172.69"/>
<polygon fill="#000000" fill-opacity="0.200000" stroke="#000000" stroke-width="2" stroke-opacity="0.200000" points="500.7,-174.67 507.06,-174.7 502.11,-170.71 500.7,-174.67"/>
</g>
<!-- src/index.js&#45;&gt;src/playerCreation.js -->
<g id="edge24" class="edge">
<title>src/index.js&#45;&gt;src/playerCreation.js</title>
<path fill="none" stroke="#000000" stroke-width="2" stroke-opacity="0.200000" d="M262.01,-160.32C271.66,-162.55 282.68,-164.99 292.75,-167 336.64,-175.75 353.37,-161.41 392,-184 399.91,-188.62 397.52,-194.7 405,-200 405.66,-200.47 406.34,-200.92 407.03,-201.37"/>
<polygon fill="#000000" fill-opacity="0.200000" stroke="#000000" stroke-width="2" stroke-opacity="0.200000" points="406.58,-203.6 412.86,-204.63 408.59,-199.91 406.58,-203.6"/>
</g>
<!-- src/index.js&#45;&gt;src/welcomeScreen.js -->
<g id="edge27" class="edge">
<title>src/index.js&#45;&gt;src/welcomeScreen.js</title>
<path fill="none" stroke="#000000" stroke-width="2" stroke-opacity="0.200000" d="M255.62,-163.21C263.98,-167.86 273.24,-174.2 279.75,-182 289.59,-193.78 281.44,-203.63 292.75,-214 293.06,-214.28 293.37,-214.56 293.69,-214.83"/>
<polygon fill="#000000" fill-opacity="0.200000" stroke="#000000" stroke-width="2" stroke-opacity="0.200000" points="292.89,-217.19 299.03,-218.83 295.25,-213.72 292.89,-217.19"/>
</g>
<!-- src/index.js&#45;&gt;src/gameLoopEvents.js -->
<g id="edge21" class="edge">
<title>src/index.js&#45;&gt;src/gameLoopEvents.js</title>
<path fill="none" stroke="#000000" stroke-width="2" stroke-opacity="0.200000" d="M247.89,-144.82C263.94,-132.83 290.32,-113.23 292.75,-112 294.45,-111.14 296.21,-110.33 298,-109.55"/>
<polygon fill="#000000" fill-opacity="0.200000" stroke="#000000" stroke-width="2" stroke-opacity="0.200000" points="299.22,-111.53 304.03,-107.36 297.68,-107.62 299.22,-111.53"/>
</g>
<!-- src/meyer&#45;reset.css -->
<g id="node16" class="node">
<title>src/meyer&#45;reset.css</title>
<g id="a_node16"><a xlink:href="src/meyer-reset.css" xlink:title="meyer&#45;reset.css">
<path fill="#ffffcc" stroke="black" d="M376.71,-207.88C376.71,-207.88 308.04,-207.88 308.04,-207.88 305.08,-207.88 302.12,-204.92 302.12,-201.96 302.12,-201.96 302.12,-196.04 302.12,-196.04 302.12,-193.08 305.08,-190.12 308.04,-190.12 308.04,-190.12 376.71,-190.12 376.71,-190.12 379.67,-190.12 382.62,-193.08 382.62,-196.04 382.62,-196.04 382.62,-201.96 382.62,-201.96 382.62,-204.92 379.67,-207.88 376.71,-207.88"/>
<text text-anchor="start" x="310.12" y="-195.32" font-family="Helvetica,sans-Serif" font-size="9.00">meyer&#45;reset.css</text>
</a>
</g>
</g>
<!-- src/index.js&#45;&gt;src/meyer&#45;reset.css -->
<g id="edge22" class="edge">
<title>src/index.js&#45;&gt;src/meyer&#45;reset.css</title>
<path fill="none" stroke="#000000" stroke-width="2" stroke-opacity="0.200000" d="M254.22,-163.29C265.3,-168.7 279.71,-175.52 292.75,-181 297.21,-182.88 301.94,-184.76 306.63,-186.56"/>
<polygon fill="#000000" fill-opacity="0.200000" stroke="#000000" stroke-width="2" stroke-opacity="0.200000" points="306.61,-188.55 312.97,-188.7 308.09,-184.62 306.61,-188.55"/>
</g>
<!-- src/style.css -->
<g id="node17" class="node">
<title>src/style.css</title>
<g id="a_node17"><a xlink:href="src/style.css" xlink:title="style.css">
<path fill="#ffffcc" stroke="black" d="M363.46,-135.88C363.46,-135.88 321.29,-135.88 321.29,-135.88 318.33,-135.88 315.38,-132.92 315.38,-129.96 315.38,-129.96 315.38,-124.04 315.38,-124.04 315.38,-121.08 318.33,-118.12 321.29,-118.12 321.29,-118.12 363.46,-118.12 363.46,-118.12 366.42,-118.12 369.38,-121.08 369.38,-124.04 369.38,-124.04 369.38,-129.96 369.38,-129.96 369.38,-132.92 366.42,-135.88 363.46,-135.88"/>
<text text-anchor="start" x="325.12" y="-123.33" font-family="Helvetica,sans-Serif" font-size="9.00">style.css</text>
</a>
</g>
</g>
<!-- src/index.js&#45;&gt;src/style.css -->
<g id="edge25" class="edge">
<title>src/index.js&#45;&gt;src/style.css</title>
<path fill="none" stroke="#000000" stroke-width="2" stroke-opacity="0.200000" d="M262.04,-147.26C275.41,-143.84 291.83,-139.65 306.25,-135.97"/>
<polygon fill="#000000" fill-opacity="0.200000" stroke="#000000" stroke-width="2" stroke-opacity="0.200000" points="307.64,-137.27 312.93,-133.75 306.6,-133.2 307.64,-137.27"/>
</g>
<!-- src/wichFactory.test.js -->
<g id="node18" class="node">
<title>src/wichFactory.test.js</title>
<g id="a_node18"><a xlink:href="src/wichFactory.test.js" xlink:title="wichFactory.test.js">
<path fill="#ffffcc" stroke="black" d="M655.08,-98.88C655.08,-98.88 576.67,-98.88 576.67,-98.88 573.71,-98.88 570.75,-95.92 570.75,-92.96 570.75,-92.96 570.75,-87.04 570.75,-87.04 570.75,-84.08 573.71,-81.12 576.67,-81.12 576.67,-81.12 655.08,-81.12 655.08,-81.12 658.04,-81.12 661,-84.08 661,-87.04 661,-87.04 661,-92.96 661,-92.96 661,-95.92 658.04,-98.88 655.08,-98.88"/>
<text text-anchor="start" x="578.75" y="-86.33" font-family="Helvetica,sans-Serif" font-size="9.00">wichFactory.test.js</text>
</a>
</g>
</g>
<!-- src/wichFactory.test.js&#45;&gt;src/wichFactory.js -->
<g id="edge35" class="edge">
<title>src/wichFactory.test.js&#45;&gt;src/wichFactory.js</title>
<path fill="none" stroke="#000000" stroke-width="2" stroke-opacity="0.200000" d="M661.47,-92.88C662.62,-92.95 663.78,-93.03 664.93,-93.1"/>
<polygon fill="#000000" fill-opacity="0.200000" stroke="#000000" stroke-width="2" stroke-opacity="0.200000" points="664.58,-95.38 670.71,-93.67 664.85,-91.18 664.58,-95.38"/>
</g>
</g>
</svg>
