<?xml version="1.0" encoding="UTF-8" standalone="no"?>
<!DOCTYPE svg PUBLIC "-//W3C//DTD SVG 1.1//EN"
 "http://www.w3.org/Graphics/SVG/1.1/DTD/svg11.dtd">
<!-- Generated by graphviz version 8.1.0 (20230707.0739)
 -->
<!-- Title: dependency&#45;cruiser output Pages: 1 -->
<svg width="527pt" height="254pt"
 viewBox="0.00 0.00 526.50 254.00" xmlns="http://www.w3.org/2000/svg" xmlns:xlink="http://www.w3.org/1999/xlink">
<g id="graph0" class="graph" transform="scale(1 1) rotate(0) translate(4 250)">
<title>dependency&#45;cruiser output</title>
<polygon fill="white" stroke="none" points="-4,4 -4,-250 522.5,-250 522.5,4 -4,4"/>
<g id="clust1" class="cluster">
<title>cluster_src</title>
<path fill="#ffffff" stroke="black" stroke-width="2" d="M20,-8C20,-8 498.5,-8 498.5,-8 504.5,-8 510.5,-14 510.5,-20 510.5,-20 510.5,-226 510.5,-226 510.5,-232 504.5,-238 498.5,-238 498.5,-238 20,-238 20,-238 14,-238 8,-232 8,-226 8,-226 8,-20 8,-20 8,-14 14,-8 20,-8"/>
<text text-anchor="middle" x="259.25" y="-225.45" font-family="Helvetica,sans-Serif" font-weight="bold" font-size="9.00">src</text>
</g>
<!-- src/Gameboard.js -->
<g id="node1" class="node">
<title>src/Gameboard.js</title>
<g id="a_node1"><a xlink:href="src/Gameboard.js" xlink:title="Gameboard.js">
<path fill="#ffffcc" stroke="black" d="M273.58,-211.88C273.58,-211.88 211.67,-211.88 211.67,-211.88 208.71,-211.88 205.75,-208.92 205.75,-205.96 205.75,-205.96 205.75,-200.04 205.75,-200.04 205.75,-197.08 208.71,-194.12 211.67,-194.12 211.67,-194.12 273.58,-194.12 273.58,-194.12 276.54,-194.12 279.5,-197.08 279.5,-200.04 279.5,-200.04 279.5,-205.96 279.5,-205.96 279.5,-208.92 276.54,-211.88 273.58,-211.88"/>
<text text-anchor="start" x="213.75" y="-199.32" font-family="Helvetica,sans-Serif" font-size="9.00">Gameboard.js</text>
</a>
</g>
</g>
<!-- src/updateDomMessage.js -->
<g id="node2" class="node">
<title>src/updateDomMessage.js</title>
<g id="a_node2"><a xlink:href="src/updateDomMessage.js" xlink:title="updateDomMessage.js">
<path fill="#ffffcc" stroke="black" d="M496.58,-181.88C496.58,-181.88 397.92,-181.88 397.92,-181.88 394.96,-181.88 392,-178.92 392,-175.96 392,-175.96 392,-170.04 392,-170.04 392,-167.08 394.96,-164.12 397.92,-164.12 397.92,-164.12 496.58,-164.12 496.58,-164.12 499.54,-164.12 502.5,-167.08 502.5,-170.04 502.5,-170.04 502.5,-175.96 502.5,-175.96 502.5,-178.92 499.54,-181.88 496.58,-181.88"/>
<text text-anchor="start" x="400" y="-169.32" font-family="Helvetica,sans-Serif" font-size="9.00">updateDomMessage.js</text>
</a>
</g>
</g>
<!-- src/Gameboard.js&#45;&gt;src/updateDomMessage.js -->
<g id="edge1" class="edge">
<title>src/Gameboard.js&#45;&gt;src/updateDomMessage.js</title>
<path fill="none" stroke="#000000" stroke-width="2" stroke-opacity="0.200000" d="M279.97,-200.06C307.31,-197.58 345.64,-193.55 379,-188 385.55,-186.91 392.43,-185.59 399.18,-184.18"/>
<polygon fill="#000000" fill-opacity="0.200000" stroke="#000000" stroke-width="2" stroke-opacity="0.200000" points="400.2,-185.68 405.63,-182.37 399.32,-181.58 400.2,-185.68"/>
</g>
<!-- src/wichFactory.js -->
<g id="node3" class="node">
<title>src/wichFactory.js</title>
<g id="a_node3"><a xlink:href="src/wichFactory.js" xlink:title="wichFactory.js">
<path fill="#ffffcc" stroke="black" d="M373.08,-181.88C373.08,-181.88 311.17,-181.88 311.17,-181.88 308.21,-181.88 305.25,-178.92 305.25,-175.96 305.25,-175.96 305.25,-170.04 305.25,-170.04 305.25,-167.08 308.21,-164.12 311.17,-164.12 311.17,-164.12 373.08,-164.12 373.08,-164.12 376.04,-164.12 379,-167.08 379,-170.04 379,-170.04 379,-175.96 379,-175.96 379,-178.92 376.04,-181.88 373.08,-181.88"/>
<text text-anchor="start" x="313.25" y="-169.32" font-family="Helvetica,sans-Serif" font-size="9.00">wichFactory.js</text>
</a>
</g>
</g>
<!-- src/Gameboard.js&#45;&gt;src/wichFactory.js -->
<g id="edge2" class="edge">
<title>src/Gameboard.js&#45;&gt;src/wichFactory.js</title>
<path fill="none" stroke="#000000" stroke-width="2" stroke-opacity="0.200000" d="M273.94,-193.67C282.93,-190.91 292.9,-187.84 302.34,-184.93"/>
<polygon fill="#000000" fill-opacity="0.200000" stroke="#000000" stroke-width="2" stroke-opacity="0.200000" points="303.71,-186.09 308.83,-182.32 302.48,-182.08 303.71,-186.09"/>
</g>
<!-- src/wichFactory.js&#45;&gt;src/updateDomMessage.js -->
<g id="edge16" class="edge">
<title>src/wichFactory.js&#45;&gt;src/updateDomMessage.js</title>
<path fill="none" stroke="#000000" stroke-width="2" stroke-opacity="0.200000" d="M379.48,-173C380.59,-173 381.71,-173 382.84,-173"/>
<polygon fill="#000000" fill-opacity="0.200000" stroke="#000000" stroke-width="2" stroke-opacity="0.200000" points="382.6,-175.1 388.6,-173 382.6,-170.9 382.6,-175.1"/>
</g>
<!-- src/Gameboard.test.js -->
<g id="node4" class="node">
<title>src/Gameboard.test.js</title>
<g id="a_node4"><a xlink:href="src/Gameboard.test.js" xlink:title="Gameboard.test.js">
<path fill="#ffffcc" stroke="black" d="M170.71,-181.88C170.71,-181.88 92.29,-181.88 92.29,-181.88 89.33,-181.88 86.38,-178.92 86.38,-175.96 86.38,-175.96 86.38,-170.04 86.38,-170.04 86.38,-167.08 89.33,-164.12 92.29,-164.12 92.29,-164.12 170.71,-164.12 170.71,-164.12 173.67,-164.12 176.62,-167.08 176.62,-170.04 176.62,-170.04 176.62,-175.96 176.62,-175.96 176.62,-178.92 173.67,-181.88 170.71,-181.88"/>
<text text-anchor="start" x="94.38" y="-169.32" font-family="Helvetica,sans-Serif" font-size="9.00">Gameboard.test.js</text>
</a>
</g>
</g>
<!-- src/Gameboard.test.js&#45;&gt;src/Gameboard.js -->
<g id="edge4" class="edge">
<title>src/Gameboard.test.js&#45;&gt;src/Gameboard.js</title>
<path fill="none" stroke="#000000" stroke-width="2" stroke-opacity="0.200000" d="M166.43,-182.33C176.8,-185.18 188.33,-188.35 199.19,-191.33"/>
<polygon fill="#000000" fill-opacity="0.200000" stroke="#000000" stroke-width="2" stroke-opacity="0.200000" points="199.37,-194.11 205.72,-193.68 200.49,-190.06 199.37,-194.11"/>
</g>
<!-- src/Gameboard.test.js&#45;&gt;src/wichFactory.js -->
<g id="edge5" class="edge">
<title>src/Gameboard.test.js&#45;&gt;src/wichFactory.js</title>
<path fill="none" stroke="#000000" stroke-width="2" stroke-opacity="0.200000" d="M163.94,-163.67C173.21,-161.34 183.44,-159.17 193,-158 236.79,-152.65 248.63,-151.46 292.25,-158 297.25,-158.75 302.45,-159.91 307.51,-161.26"/>
<polygon fill="#000000" fill-opacity="0.200000" stroke="#000000" stroke-width="2" stroke-opacity="0.200000" points="307.49,-164.02 313.84,-163.67 308.66,-159.99 307.49,-164.02"/>
</g>
<!-- src/buildHTMLBoards.js -->
<g id="node5" class="node">
<title>src/buildHTMLBoards.js</title>
<g id="a_node5"><a xlink:href="src/buildHTMLBoards.js" xlink:title="buildHTMLBoards.js">
<path fill="#ffffcc" stroke="black" d="M286.33,-137.88C286.33,-137.88 198.92,-137.88 198.92,-137.88 195.96,-137.88 193,-134.92 193,-131.96 193,-131.96 193,-126.04 193,-126.04 193,-123.08 195.96,-120.12 198.92,-120.12 198.92,-120.12 286.33,-120.12 286.33,-120.12 289.29,-120.12 292.25,-123.08 292.25,-126.04 292.25,-126.04 292.25,-131.96 292.25,-131.96 292.25,-134.92 289.29,-137.88 286.33,-137.88"/>
<text text-anchor="start" x="201" y="-125.33" font-family="Helvetica,sans-Serif" font-size="9.00">buildHTMLBoards.js</text>
</a>
</g>
</g>
<!-- src/Gameboard.test.js&#45;&gt;src/buildHTMLBoards.js -->
<g id="edge3" class="edge">
<title>src/Gameboard.test.js&#45;&gt;src/buildHTMLBoards.js</title>
<path fill="none" stroke="#000000" stroke-width="2" stroke-opacity="0.200000" d="M167.67,-163.65C171.93,-162.01 176.14,-160.13 180,-158 186.63,-154.34 186.46,-150.82 193,-147 196.19,-145.14 199.61,-143.41 203.1,-141.82"/>
<polygon fill="#000000" fill-opacity="0.200000" stroke="#000000" stroke-width="2" stroke-opacity="0.200000" points="204.59,-143.63 209.31,-139.37 202.96,-139.76 204.59,-143.63"/>
</g>
<!-- src/Player.js -->
<g id="node6" class="node">
<title>src/Player.js</title>
<g id="a_node6"><a xlink:href="src/Player.js" xlink:title="Player.js">
<path fill="#ffffcc" stroke="black" d="M152.58,-211.88C152.58,-211.88 110.42,-211.88 110.42,-211.88 107.46,-211.88 104.5,-208.92 104.5,-205.96 104.5,-205.96 104.5,-200.04 104.5,-200.04 104.5,-197.08 107.46,-194.12 110.42,-194.12 110.42,-194.12 152.58,-194.12 152.58,-194.12 155.54,-194.12 158.5,-197.08 158.5,-200.04 158.5,-200.04 158.5,-205.96 158.5,-205.96 158.5,-208.92 155.54,-211.88 152.58,-211.88"/>
<text text-anchor="start" x="113.88" y="-199.32" font-family="Helvetica,sans-Serif" font-size="9.00">Player.js</text>
</a>
</g>
</g>
<!-- src/Player.js&#45;&gt;src/Gameboard.js -->
<g id="edge6" class="edge">
<title>src/Player.js&#45;&gt;src/Gameboard.js</title>
<path fill="none" stroke="#000000" stroke-width="2" stroke-opacity="0.200000" d="M158.92,-203C170.29,-203 183.92,-203 196.8,-203"/>
<polygon fill="#000000" fill-opacity="0.200000" stroke="#000000" stroke-width="2" stroke-opacity="0.200000" points="196.56,-205.1 202.56,-203 196.56,-200.9 196.56,-205.1"/>
</g>
<!-- src/gameLoopEvents.js -->
<g id="node7" class="node">
<title>src/gameLoopEvents.js</title>
<g id="a_node7"><a xlink:href="src/gameLoopEvents.js" xlink:title="gameLoopEvents.js">
<path fill="#ffffcc" stroke="black" d="M174.08,-93.88C174.08,-93.88 88.92,-93.88 88.92,-93.88 85.96,-93.88 83,-90.92 83,-87.96 83,-87.96 83,-82.04 83,-82.04 83,-79.08 85.96,-76.12 88.92,-76.12 88.92,-76.12 174.08,-76.12 174.08,-76.12 177.04,-76.12 180,-79.08 180,-82.04 180,-82.04 180,-87.96 180,-87.96 180,-90.92 177.04,-93.88 174.08,-93.88"/>
<text text-anchor="start" x="91" y="-81.33" font-family="Helvetica,sans-Serif" font-size="9.00">gameLoopEvents.js</text>
</a>
</g>
</g>
<!-- src/index.js -->
<g id="node8" class="node">
<title>src/index.js</title>
<g id="a_node8"><a xlink:href="src/index.js" xlink:title="index.js">
<path fill="#ffffcc" stroke="black" d="M64.08,-93.88C64.08,-93.88 21.92,-93.88 21.92,-93.88 18.96,-93.88 16,-90.92 16,-87.96 16,-87.96 16,-82.04 16,-82.04 16,-79.08 18.96,-76.12 21.92,-76.12 21.92,-76.12 64.08,-76.12 64.08,-76.12 67.04,-76.12 70,-79.08 70,-82.04 70,-82.04 70,-87.96 70,-87.96 70,-90.92 67.04,-93.88 64.08,-93.88"/>
<text text-anchor="start" x="27.25" y="-81.33" font-family="Helvetica,sans-Serif" font-size="9.00">index.js</text>
</a>
</g>
</g>
<!-- src/gameLoopEvents.js&#45;&gt;src/index.js -->
<g id="edge7" class="edge">
<title>src/gameLoopEvents.js&#45;&gt;src/index.js</title>
<g id="a_edge7"><a xlink:title="no&#45;circular">
<path fill="none" stroke="orange" stroke-width="2" d="M82.53,-89.48C81.37,-89.46 80.21,-89.45 79.05,-89.43"/>
<polygon fill="none" stroke="orange" stroke-width="2" points="79.48,-87.25 73.42,-89.18 79.36,-91.45 79.48,-87.25"/>
</a>
</g>
<text text-anchor="middle" x="57.36" y="-90.63" font-family="Helvetica,sans-Serif" font-size="9.00" fill="orange">no&#45;circular</text>
</g>
<!-- src/index.js&#45;&gt;src/updateDomMessage.js -->
<g id="edge14" class="edge">
<title>src/index.js&#45;&gt;src/updateDomMessage.js</title>
<path fill="none" stroke="#000000" stroke-width="2" stroke-opacity="0.200000" d="M64.69,-94.28C70.51,-96.52 76.91,-98.66 83,-100 174.02,-120.07 201.21,-93.99 292.25,-114 338.51,-124.17 389.3,-145.84 419.44,-159.89"/>
<polygon fill="#000000" fill-opacity="0.200000" stroke="#000000" stroke-width="2" stroke-opacity="0.200000" points="419.05,-161.98 425.37,-162.64 420.85,-158.18 419.05,-161.98"/>
</g>
<!-- src/index.js&#45;&gt;src/buildHTMLBoards.js -->
<g id="edge8" class="edge">
<title>src/index.js&#45;&gt;src/buildHTMLBoards.js</title>
<path fill="none" stroke="#000000" stroke-width="2" stroke-opacity="0.200000" d="M54.82,-94.28C62.25,-100.1 72.61,-107.2 83,-111 101.07,-117.61 146.22,-122.34 183.74,-125.29"/>
<polygon fill="#000000" fill-opacity="0.200000" stroke="#000000" stroke-width="2" stroke-opacity="0.200000" points="183.46,-127.61 189.6,-125.97 183.78,-123.42 183.46,-127.61"/>
</g>
<!-- src/index.js&#45;&gt;src/Player.js -->
<g id="edge11" class="edge">
<title>src/index.js&#45;&gt;src/Player.js</title>
<path fill="none" stroke="#000000" stroke-width="2" stroke-opacity="0.200000" d="M44.83,-94.16C47.12,-114.12 55.35,-161.86 83,-188 86.7,-191.5 91.22,-194.19 95.98,-196.24"/>
<polygon fill="#000000" fill-opacity="0.200000" stroke="#000000" stroke-width="2" stroke-opacity="0.200000" points="95.76,-198.11 102.11,-198.15 97.17,-194.15 95.76,-198.11"/>
</g>
<!-- src/index.js&#45;&gt;src/gameLoopEvents.js -->
<g id="edge9" class="edge">
<title>src/index.js&#45;&gt;src/gameLoopEvents.js</title>
<g id="a_edge9"><a xlink:title="no&#45;circular">
<path fill="none" stroke="orange" stroke-width="2" d="M70.42,-80.82C71.51,-80.77 72.62,-80.74 73.74,-80.7"/>
<polygon fill="none" stroke="orange" stroke-width="2" points="73.58,-82.74 79.53,-80.52 73.49,-78.55 73.58,-82.74"/>
</a>
</g>
<text text-anchor="middle" x="95.44" y="-72.15" font-family="Helvetica,sans-Serif" font-size="9.00" fill="orange">no&#45;circular</text>
</g>
<!-- src/meyer&#45;reset.css -->
<g id="node9" class="node">
<title>src/meyer&#45;reset.css</title>
<g id="a_node9"><a xlink:href="src/meyer-reset.css" xlink:title="meyer&#45;reset.css">
<path fill="#ffffcc" stroke="black" d="M165.83,-151.88C165.83,-151.88 97.17,-151.88 97.17,-151.88 94.21,-151.88 91.25,-148.92 91.25,-145.96 91.25,-145.96 91.25,-140.04 91.25,-140.04 91.25,-137.08 94.21,-134.12 97.17,-134.12 97.17,-134.12 165.83,-134.12 165.83,-134.12 168.79,-134.12 171.75,-137.08 171.75,-140.04 171.75,-140.04 171.75,-145.96 171.75,-145.96 171.75,-148.92 168.79,-151.88 165.83,-151.88"/>
<text text-anchor="start" x="99.25" y="-139.32" font-family="Helvetica,sans-Serif" font-size="9.00">meyer&#45;reset.css</text>
</a>
</g>
</g>
<!-- src/index.js&#45;&gt;src/meyer&#45;reset.css -->
<g id="edge10" class="edge">
<title>src/index.js&#45;&gt;src/meyer&#45;reset.css</title>
<path fill="none" stroke="#000000" stroke-width="2" stroke-opacity="0.200000" d="M50.86,-94.07C58.03,-103 70.02,-116.49 83,-125 85.74,-126.8 88.69,-128.45 91.73,-129.97"/>
<polygon fill="#000000" fill-opacity="0.200000" stroke="#000000" stroke-width="2" stroke-opacity="0.200000" points="91.56,-132.1 97.89,-132.66 93.29,-128.27 91.56,-132.1"/>
</g>
<!-- src/renderBoard.js -->
<g id="node10" class="node">
<title>src/renderBoard.js</title>
<g id="a_node10"><a xlink:href="src/renderBoard.js" xlink:title="renderBoard.js">
<path fill="#ffffcc" stroke="black" d="M163.96,-33.88C163.96,-33.88 99.04,-33.88 99.04,-33.88 96.08,-33.88 93.12,-30.92 93.12,-27.96 93.12,-27.96 93.12,-22.04 93.12,-22.04 93.12,-19.08 96.08,-16.12 99.04,-16.12 99.04,-16.12 163.96,-16.12 163.96,-16.12 166.92,-16.12 169.88,-19.08 169.88,-22.04 169.88,-22.04 169.88,-27.96 169.88,-27.96 169.88,-30.92 166.92,-33.88 163.96,-33.88"/>
<text text-anchor="start" x="101.12" y="-21.32" font-family="Helvetica,sans-Serif" font-size="9.00">renderBoard.js</text>
</a>
</g>
</g>
<!-- src/index.js&#45;&gt;src/renderBoard.js -->
<g id="edge12" class="edge">
<title>src/index.js&#45;&gt;src/renderBoard.js</title>
<g id="a_edge12"><a xlink:title="no&#45;circular">
<path fill="none" stroke="orange" stroke-width="2" d="M47.35,-75.8C53.34,-63.94 66.76,-44.67 83,-34 83.66,-33.56 84.34,-33.14 85.03,-32.73"/>
<polygon fill="none" stroke="orange" stroke-width="2" points="86.39,-34.37 90.78,-29.77 84.48,-30.63 86.39,-34.37"/>
</a>
</g>
<text text-anchor="middle" x="44.41" y="-40.24" font-family="Helvetica,sans-Serif" font-size="9.00" fill="orange">no&#45;circular</text>
</g>
<!-- src/style.css -->
<g id="node11" class="node">
<title>src/style.css</title>
<g id="a_node11"><a xlink:href="src/style.css" xlink:title="style.css">
<path fill="#ffffcc" stroke="black" d="M152.58,-63.88C152.58,-63.88 110.42,-63.88 110.42,-63.88 107.46,-63.88 104.5,-60.92 104.5,-57.96 104.5,-57.96 104.5,-52.04 104.5,-52.04 104.5,-49.08 107.46,-46.12 110.42,-46.12 110.42,-46.12 152.58,-46.12 152.58,-46.12 155.54,-46.12 158.5,-49.08 158.5,-52.04 158.5,-52.04 158.5,-57.96 158.5,-57.96 158.5,-60.92 155.54,-63.88 152.58,-63.88"/>
<text text-anchor="start" x="114.25" y="-51.33" font-family="Helvetica,sans-Serif" font-size="9.00">style.css</text>
</a>
</g>
</g>
<!-- src/index.js&#45;&gt;src/style.css -->
<g id="edge13" class="edge">
<title>src/index.js&#45;&gt;src/style.css</title>
<path fill="none" stroke="#000000" stroke-width="2" stroke-opacity="0.200000" d="M67.42,-75.72C72.54,-73.77 77.93,-71.77 83,-70 87.18,-68.54 91.58,-67.06 95.96,-65.63"/>
<polygon fill="#000000" fill-opacity="0.200000" stroke="#000000" stroke-width="2" stroke-opacity="0.200000" points="97.2,-66.8 102.27,-62.97 95.92,-62.8 97.2,-66.8"/>
</g>
<!-- src/renderBoard.js&#45;&gt;src/index.js -->
<g id="edge15" class="edge">
<title>src/renderBoard.js&#45;&gt;src/index.js</title>
<g id="a_edge15"><a xlink:title="no&#45;circular">
<path fill="none" stroke="orange" stroke-width="2" d="M110,-34.35C101.2,-37.15 91.09,-40.68 83,-46 73.61,-52.17 65.16,-61.22 58.55,-69.12"/>
<polygon fill="none" stroke="orange" stroke-width="2" points="56.16,-67.96 54.01,-73.95 59.42,-70.61 56.16,-67.96"/>
</a>
</g>
<text text-anchor="middle" x="55.65" y="-51.28" font-family="Helvetica,sans-Serif" font-size="9.00" fill="orange">no&#45;circular</text>
</g>
<!-- src/wichFactory.test.js -->
<g id="node12" class="node">
<title>src/wichFactory.test.js</title>
<g id="a_node12"><a xlink:href="src/wichFactory.test.js" xlink:title="wichFactory.test.js">
<path fill="#ffffcc" stroke="black" d="M281.83,-181.88C281.83,-181.88 203.42,-181.88 203.42,-181.88 200.46,-181.88 197.5,-178.92 197.5,-175.96 197.5,-175.96 197.5,-170.04 197.5,-170.04 197.5,-167.08 200.46,-164.12 203.42,-164.12 203.42,-164.12 281.83,-164.12 281.83,-164.12 284.79,-164.12 287.75,-167.08 287.75,-170.04 287.75,-170.04 287.75,-175.96 287.75,-175.96 287.75,-178.92 284.79,-181.88 281.83,-181.88"/>
<text text-anchor="start" x="205.5" y="-169.32" font-family="Helvetica,sans-Serif" font-size="9.00">wichFactory.test.js</text>
</a>
</g>
</g>
<!-- src/wichFactory.test.js&#45;&gt;src/wichFactory.js -->
<g id="edge17" class="edge">
<title>src/wichFactory.test.js&#45;&gt;src/wichFactory.js</title>
<path fill="none" stroke="#000000" stroke-width="2" stroke-opacity="0.200000" d="M288.1,-173C290.73,-173 293.39,-173 296.02,-173"/>
<polygon fill="#000000" fill-opacity="0.200000" stroke="#000000" stroke-width="2" stroke-opacity="0.200000" points="295.9,-175.1 301.9,-173 295.9,-170.9 295.9,-175.1"/>
</g>
</g>
</svg>
