<?xml version="1.0" encoding="UTF-8" standalone="no"?>
<!DOCTYPE svg PUBLIC "-//W3C//DTD SVG 1.1//EN"
 "http://www.w3.org/Graphics/SVG/1.1/DTD/svg11.dtd">
<!-- Generated by graphviz version 8.1.0 (20230707.0739)
 -->
<!-- Title: dependency&#45;cruiser output Pages: 1 -->
<svg width="729pt" height="201pt"
 viewBox="0.00 0.00 728.50 200.53" xmlns="http://www.w3.org/2000/svg" xmlns:xlink="http://www.w3.org/1999/xlink">
<g id="graph0" class="graph" transform="scale(1 1) rotate(0) translate(4 196.53)">
<title>dependency&#45;cruiser output</title>
<polygon fill="white" stroke="none" points="-4,4 -4,-196.53 724.5,-196.53 724.5,4 -4,4"/>
<g id="clust1" class="cluster">
<title>cluster_src</title>
<path fill="#ffffff" stroke="black" stroke-width="2" d="M20,-14.53C20,-14.53 700.5,-14.53 700.5,-14.53 706.5,-14.53 712.5,-20.53 712.5,-26.53 712.5,-26.53 712.5,-172.53 712.5,-172.53 712.5,-178.53 706.5,-184.53 700.5,-184.53 700.5,-184.53 20,-184.53 20,-184.53 14,-184.53 8,-178.53 8,-172.53 8,-172.53 8,-26.53 8,-26.53 8,-20.53 14,-14.53 20,-14.53"/>
<text text-anchor="middle" x="360.25" y="-171.98" font-family="Helvetica,sans-Serif" font-weight="bold" font-size="9.00">src</text>
</g>
<!-- src/Gameboard.js -->
<g id="node1" class="node">
<title>src/Gameboard.js</title>
<g id="a_node1"><a xlink:href="src/Gameboard.js" xlink:title="Gameboard.js">
<path fill="#ffffcc" stroke="black" d="M475.58,-114.41C475.58,-114.41 413.67,-114.41 413.67,-114.41 410.71,-114.41 407.75,-111.45 407.75,-108.49 407.75,-108.49 407.75,-102.58 407.75,-102.58 407.75,-99.62 410.71,-96.66 413.67,-96.66 413.67,-96.66 475.58,-96.66 475.58,-96.66 478.54,-96.66 481.5,-99.62 481.5,-102.58 481.5,-102.58 481.5,-108.49 481.5,-108.49 481.5,-111.45 478.54,-114.41 475.58,-114.41"/>
<text text-anchor="start" x="415.75" y="-101.86" font-family="Helvetica,sans-Serif" font-size="9.00">Gameboard.js</text>
</a>
</g>
</g>
<!-- src/updateDomMessage.js -->
<g id="node2" class="node">
<title>src/updateDomMessage.js</title>
<g id="a_node2"><a xlink:href="src/updateDomMessage.js" xlink:title="updateDomMessage.js">
<path fill="#ffffcc" stroke="black" d="M698.58,-97.41C698.58,-97.41 599.92,-97.41 599.92,-97.41 596.96,-97.41 594,-94.45 594,-91.49 594,-91.49 594,-85.58 594,-85.58 594,-82.62 596.96,-79.66 599.92,-79.66 599.92,-79.66 698.58,-79.66 698.58,-79.66 701.54,-79.66 704.5,-82.62 704.5,-85.58 704.5,-85.58 704.5,-91.49 704.5,-91.49 704.5,-94.45 701.54,-97.41 698.58,-97.41"/>
<text text-anchor="start" x="602" y="-84.86" font-family="Helvetica,sans-Serif" font-size="9.00">updateDomMessage.js</text>
</a>
</g>
</g>
<!-- src/Gameboard.js&#45;&gt;src/updateDomMessage.js -->
<g id="edge1" class="edge">
<title>src/Gameboard.js&#45;&gt;src/updateDomMessage.js</title>
<path fill="none" stroke="#000000" stroke-width="2" stroke-opacity="0.200000" d="M481.85,-102.5C510.38,-100.1 550.84,-96.71 584.73,-93.86"/>
<polygon fill="#000000" fill-opacity="0.200000" stroke="#000000" stroke-width="2" stroke-opacity="0.200000" points="584.84,-95.71 590.64,-93.12 584.49,-91.53 584.84,-95.71"/>
</g>
<!-- src/wichFactory.js -->
<g id="node3" class="node">
<title>src/wichFactory.js</title>
<g id="a_node3"><a xlink:href="src/wichFactory.js" xlink:title="wichFactory.js">
<path fill="#ffffcc" stroke="black" d="M575.08,-86.41C575.08,-86.41 513.17,-86.41 513.17,-86.41 510.21,-86.41 507.25,-83.45 507.25,-80.49 507.25,-80.49 507.25,-74.58 507.25,-74.58 507.25,-71.62 510.21,-68.66 513.17,-68.66 513.17,-68.66 575.08,-68.66 575.08,-68.66 578.04,-68.66 581,-71.62 581,-74.58 581,-74.58 581,-80.49 581,-80.49 581,-83.45 578.04,-86.41 575.08,-86.41"/>
<text text-anchor="start" x="515.25" y="-73.86" font-family="Helvetica,sans-Serif" font-size="9.00">wichFactory.js</text>
</a>
</g>
</g>
<!-- src/Gameboard.js&#45;&gt;src/wichFactory.js -->
<g id="edge2" class="edge">
<title>src/Gameboard.js&#45;&gt;src/wichFactory.js</title>
<path fill="none" stroke="#000000" stroke-width="2" stroke-opacity="0.200000" d="M478.09,-96.21C485.82,-93.99 494.17,-91.59 502.22,-89.28"/>
<polygon fill="#000000" fill-opacity="0.200000" stroke="#000000" stroke-width="2" stroke-opacity="0.200000" points="503.61,-90.49 508.8,-86.82 502.45,-86.46 503.61,-90.49"/>
</g>
<!-- src/wichFactory.js&#45;&gt;src/updateDomMessage.js -->
<g id="edge16" class="edge">
<title>src/wichFactory.js&#45;&gt;src/updateDomMessage.js</title>
<path fill="none" stroke="#000000" stroke-width="2" stroke-opacity="0.200000" d="M581.48,-81.41C582.59,-81.53 583.71,-81.65 584.84,-81.77"/>
<polygon fill="#000000" fill-opacity="0.200000" stroke="#000000" stroke-width="2" stroke-opacity="0.200000" points="584.41,-84.16 590.6,-82.71 584.86,-79.98 584.41,-84.16"/>
</g>
<!-- src/Gameboard.test.js -->
<g id="node4" class="node">
<title>src/Gameboard.test.js</title>
<g id="a_node4"><a xlink:href="src/Gameboard.test.js" xlink:title="Gameboard.test.js">
<path fill="#ffffcc" stroke="black" d="M376.08,-62.41C376.08,-62.41 297.67,-62.41 297.67,-62.41 294.71,-62.41 291.75,-59.45 291.75,-56.49 291.75,-56.49 291.75,-50.58 291.75,-50.58 291.75,-47.62 294.71,-44.66 297.67,-44.66 297.67,-44.66 376.08,-44.66 376.08,-44.66 379.04,-44.66 382,-47.62 382,-50.58 382,-50.58 382,-56.49 382,-56.49 382,-59.45 379.04,-62.41 376.08,-62.41"/>
<text text-anchor="start" x="299.75" y="-49.86" font-family="Helvetica,sans-Serif" font-size="9.00">Gameboard.test.js</text>
</a>
</g>
</g>
<!-- src/Gameboard.test.js&#45;&gt;src/Gameboard.js -->
<g id="edge4" class="edge">
<title>src/Gameboard.test.js&#45;&gt;src/Gameboard.js</title>
<path fill="none" stroke="#000000" stroke-width="2" stroke-opacity="0.200000" d="M355.06,-62.76C363.4,-67.46 373.44,-73.46 382,-79.53 388.17,-83.92 388.36,-86.9 395,-90.53 396.48,-91.35 398.01,-92.12 399.58,-92.86"/>
<polygon fill="#000000" fill-opacity="0.200000" stroke="#000000" stroke-width="2" stroke-opacity="0.200000" points="399.28,-94.85 405.62,-95.24 400.91,-90.98 399.28,-94.85"/>
</g>
<!-- src/Gameboard.test.js&#45;&gt;src/wichFactory.js -->
<g id="edge5" class="edge">
<title>src/Gameboard.test.js&#45;&gt;src/wichFactory.js</title>
<path fill="none" stroke="#000000" stroke-width="2" stroke-opacity="0.200000" d="M382.42,-52.12C413.93,-51.95 457.02,-53.38 494.25,-60.53 500.18,-61.67 506.36,-63.38 512.26,-65.29"/>
<polygon fill="#000000" fill-opacity="0.200000" stroke="#000000" stroke-width="2" stroke-opacity="0.200000" points="512.27,-68.21 518.63,-68.18 513.64,-64.24 512.27,-68.21"/>
</g>
<!-- src/buildHTMLBoards.js -->
<g id="node5" class="node">
<title>src/buildHTMLBoards.js</title>
<g id="a_node5"><a xlink:href="src/buildHTMLBoards.js" xlink:title="buildHTMLBoards.js">
<path fill="#ffffcc" stroke="black" d="M488.33,-40.41C488.33,-40.41 400.92,-40.41 400.92,-40.41 397.96,-40.41 395,-37.45 395,-34.49 395,-34.49 395,-28.58 395,-28.58 395,-25.62 397.96,-22.66 400.92,-22.66 400.92,-22.66 488.33,-22.66 488.33,-22.66 491.29,-22.66 494.25,-25.62 494.25,-28.58 494.25,-28.58 494.25,-34.49 494.25,-34.49 494.25,-37.45 491.29,-40.41 488.33,-40.41"/>
<text text-anchor="start" x="403" y="-27.86" font-family="Helvetica,sans-Serif" font-size="9.00">buildHTMLBoards.js</text>
</a>
</g>
</g>
<!-- src/Gameboard.test.js&#45;&gt;src/buildHTMLBoards.js -->
<g id="edge3" class="edge">
<title>src/Gameboard.test.js&#45;&gt;src/buildHTMLBoards.js</title>
<path fill="none" stroke="#000000" stroke-width="2" stroke-opacity="0.200000" d="M382.42,-44.27C384.96,-43.74 387.52,-43.21 390.09,-42.67"/>
<polygon fill="#000000" fill-opacity="0.200000" stroke="#000000" stroke-width="2" stroke-opacity="0.200000" points="391.35,-44.14 396.8,-40.86 390.49,-40.03 391.35,-44.14"/>
</g>
<!-- src/Player.js -->
<g id="node6" class="node">
<title>src/Player.js</title>
<g id="a_node6"><a xlink:href="src/Player.js" xlink:title="Player.js">
<path fill="#ffffcc" stroke="black" d="M357.96,-103.41C357.96,-103.41 315.79,-103.41 315.79,-103.41 312.83,-103.41 309.88,-100.45 309.88,-97.49 309.88,-97.49 309.88,-91.58 309.88,-91.58 309.88,-88.62 312.83,-85.66 315.79,-85.66 315.79,-85.66 357.96,-85.66 357.96,-85.66 360.92,-85.66 363.88,-88.62 363.88,-91.58 363.88,-91.58 363.88,-97.49 363.88,-97.49 363.88,-100.45 360.92,-103.41 357.96,-103.41"/>
<text text-anchor="start" x="319.25" y="-90.86" font-family="Helvetica,sans-Serif" font-size="9.00">Player.js</text>
</a>
</g>
</g>
<!-- src/Player.js&#45;&gt;src/Gameboard.js -->
<g id="edge6" class="edge">
<title>src/Player.js&#45;&gt;src/Gameboard.js</title>
<path fill="none" stroke="#000000" stroke-width="2" stroke-opacity="0.200000" d="M364.29,-97.28C374.72,-98.37 387,-99.65 398.75,-100.87"/>
<polygon fill="#000000" fill-opacity="0.200000" stroke="#000000" stroke-width="2" stroke-opacity="0.200000" points="398.4,-103.25 404.59,-101.79 398.84,-99.08 398.4,-103.25"/>
</g>
<!-- src/gameLoopEvents.js -->
<g id="node7" class="node">
<title>src/gameLoopEvents.js</title>
<g id="a_node7"><a xlink:href="src/gameLoopEvents.js" xlink:title="gameLoopEvents.js">
<path fill="#ffffcc" stroke="black" d="M174.08,-54.41C174.08,-54.41 88.92,-54.41 88.92,-54.41 85.96,-54.41 83,-51.45 83,-48.49 83,-48.49 83,-42.58 83,-42.58 83,-39.62 85.96,-36.66 88.92,-36.66 88.92,-36.66 174.08,-36.66 174.08,-36.66 177.04,-36.66 180,-39.62 180,-42.58 180,-42.58 180,-48.49 180,-48.49 180,-51.45 177.04,-54.41 174.08,-54.41"/>
<text text-anchor="start" x="91" y="-41.86" font-family="Helvetica,sans-Serif" font-size="9.00">gameLoopEvents.js</text>
</a>
</g>
</g>
<!-- src/playerCreation.js -->
<g id="node8" class="node">
<title>src/playerCreation.js</title>
<g id="a_node8"><a xlink:href="src/playerCreation.js" xlink:title="playerCreation.js">
<path fill="#ffffcc" stroke="black" d="M272.83,-89.41C272.83,-89.41 198.92,-89.41 198.92,-89.41 195.96,-89.41 193,-86.45 193,-83.49 193,-83.49 193,-77.58 193,-77.58 193,-74.62 195.96,-71.66 198.92,-71.66 198.92,-71.66 272.83,-71.66 272.83,-71.66 275.79,-71.66 278.75,-74.62 278.75,-77.58 278.75,-77.58 278.75,-83.49 278.75,-83.49 278.75,-86.45 275.79,-89.41 272.83,-89.41"/>
<text text-anchor="start" x="201" y="-76.86" font-family="Helvetica,sans-Serif" font-size="9.00">playerCreation.js</text>
</a>
</g>
</g>
<!-- src/gameLoopEvents.js&#45;&gt;src/playerCreation.js -->
<g id="edge7" class="edge">
<title>src/gameLoopEvents.js&#45;&gt;src/playerCreation.js</title>
<path fill="none" stroke="#000000" stroke-width="2" stroke-opacity="0.200000" d="M159.67,-54.82C171.81,-58.98 186.3,-63.93 199.29,-68.37"/>
<polygon fill="#000000" fill-opacity="0.200000" stroke="#000000" stroke-width="2" stroke-opacity="0.200000" points="199.23,-71.25 205.58,-71.2 200.58,-67.28 199.23,-71.25"/>
</g>
<!-- src/playerCreation.js&#45;&gt;src/Player.js -->
<g id="edge14" class="edge">
<title>src/playerCreation.js&#45;&gt;src/Player.js</title>
<path fill="none" stroke="#000000" stroke-width="2" stroke-opacity="0.200000" d="M279.15,-86.51C286.39,-87.54 293.84,-88.59 300.87,-89.58"/>
<polygon fill="#000000" fill-opacity="0.200000" stroke="#000000" stroke-width="2" stroke-opacity="0.200000" points="301.26,-92.04 307.49,-90.8 301.85,-87.88 301.26,-92.04"/>
</g>
<!-- src/index.js -->
<g id="node9" class="node">
<title>src/index.js</title>
<g id="a_node9"><a xlink:href="src/index.js" xlink:title="index.js">
<path fill="#ffffcc" stroke="black" d="M64.08,-87.41C64.08,-87.41 21.92,-87.41 21.92,-87.41 18.96,-87.41 16,-84.45 16,-81.49 16,-81.49 16,-75.58 16,-75.58 16,-72.62 18.96,-69.66 21.92,-69.66 21.92,-69.66 64.08,-69.66 64.08,-69.66 67.04,-69.66 70,-72.62 70,-75.58 70,-75.58 70,-81.49 70,-81.49 70,-84.45 67.04,-87.41 64.08,-87.41"/>
<text text-anchor="start" x="27.25" y="-74.86" font-family="Helvetica,sans-Serif" font-size="9.00">index.js</text>
</a>
</g>
</g>
<!-- src/index.js&#45;&gt;src/buildHTMLBoards.js -->
<g id="edge8" class="edge">
<title>src/index.js&#45;&gt;src/buildHTMLBoards.js</title>
<path fill="none" stroke="#000000" stroke-width="2" stroke-opacity="0.200000" d="M48.25,-69.39C54.18,-57.85 66.13,-38.56 83,-30.53 188.17,19.52 330.94,-3.7 401.11,-20.14"/>
<polygon fill="#000000" fill-opacity="0.200000" stroke="#000000" stroke-width="2" stroke-opacity="0.200000" points="401.39,-22.84 407.71,-22.2 402.37,-18.76 401.39,-22.84"/>
</g>
<!-- src/index.js&#45;&gt;src/gameLoopEvents.js -->
<g id="edge9" class="edge">
<title>src/index.js&#45;&gt;src/gameLoopEvents.js</title>
<path fill="none" stroke="#000000" stroke-width="2" stroke-opacity="0.200000" d="M67.92,-69.31C72.9,-67.4 78.12,-65.4 83,-63.53 87.75,-61.72 92.77,-59.81 97.7,-57.94"/>
<polygon fill="#000000" fill-opacity="0.200000" stroke="#000000" stroke-width="2" stroke-opacity="0.200000" points="98.97,-59.95 103.84,-55.85 97.48,-56.02 98.97,-59.95"/>
</g>
<!-- src/index.js&#45;&gt;src/playerCreation.js -->
<g id="edge11" class="edge">
<title>src/index.js&#45;&gt;src/playerCreation.js</title>
<path fill="none" stroke="#000000" stroke-width="2" stroke-opacity="0.200000" d="M70.41,-75.46C74.61,-75.07 78.92,-74.74 83,-74.53 126.05,-72.33 136.95,-72.19 180,-74.53 181.29,-74.6 182.59,-74.68 183.9,-74.77"/>
<polygon fill="#000000" fill-opacity="0.200000" stroke="#000000" stroke-width="2" stroke-opacity="0.200000" points="183.53,-77.08 189.67,-75.45 183.85,-72.89 183.53,-77.08"/>
</g>
<!-- src/meyer&#45;reset.css -->
<g id="node10" class="node">
<title>src/meyer&#45;reset.css</title>
<g id="a_node10"><a xlink:href="src/meyer-reset.css" xlink:title="meyer&#45;reset.css">
<path fill="#ffffcc" stroke="black" d="M165.83,-98.41C165.83,-98.41 97.17,-98.41 97.17,-98.41 94.21,-98.41 91.25,-95.45 91.25,-92.49 91.25,-92.49 91.25,-86.58 91.25,-86.58 91.25,-83.62 94.21,-80.66 97.17,-80.66 97.17,-80.66 165.83,-80.66 165.83,-80.66 168.79,-80.66 171.75,-83.62 171.75,-86.58 171.75,-86.58 171.75,-92.49 171.75,-92.49 171.75,-95.45 168.79,-98.41 165.83,-98.41"/>
<text text-anchor="start" x="99.25" y="-85.86" font-family="Helvetica,sans-Serif" font-size="9.00">meyer&#45;reset.css</text>
</a>
</g>
</g>
<!-- src/index.js&#45;&gt;src/meyer&#45;reset.css -->
<g id="edge10" class="edge">
<title>src/index.js&#45;&gt;src/meyer&#45;reset.css</title>
<path fill="none" stroke="#000000" stroke-width="2" stroke-opacity="0.200000" d="M70.42,-81.89C74.16,-82.37 78.09,-82.87 82.08,-83.38"/>
<polygon fill="#000000" fill-opacity="0.200000" stroke="#000000" stroke-width="2" stroke-opacity="0.200000" points="81.64,-85.82 87.86,-84.49 82.17,-81.65 81.64,-85.82"/>
</g>
<!-- src/renderBoard.js -->
<g id="node11" class="node">
<title>src/renderBoard.js</title>
<g id="a_node11"><a xlink:href="src/renderBoard.js" xlink:title="renderBoard.js">
<path fill="#ffffcc" stroke="black" d="M163.96,-128.41C163.96,-128.41 99.04,-128.41 99.04,-128.41 96.08,-128.41 93.12,-125.45 93.12,-122.49 93.12,-122.49 93.12,-116.58 93.12,-116.58 93.12,-113.62 96.08,-110.66 99.04,-110.66 99.04,-110.66 163.96,-110.66 163.96,-110.66 166.92,-110.66 169.88,-113.62 169.88,-116.58 169.88,-116.58 169.88,-122.49 169.88,-122.49 169.88,-125.45 166.92,-128.41 163.96,-128.41"/>
<text text-anchor="start" x="101.12" y="-115.86" font-family="Helvetica,sans-Serif" font-size="9.00">renderBoard.js</text>
</a>
</g>
</g>
<!-- src/index.js&#45;&gt;src/renderBoard.js -->
<g id="edge12" class="edge">
<title>src/index.js&#45;&gt;src/renderBoard.js</title>
<path fill="none" stroke="#000000" stroke-width="2" stroke-opacity="0.200000" d="M56.11,-87.91C63.55,-93.33 73.46,-99.96 83,-104.53 84.77,-105.39 86.61,-106.2 88.48,-106.99"/>
<polygon fill="#000000" fill-opacity="0.200000" stroke="#000000" stroke-width="2" stroke-opacity="0.200000" points="88.47,-109.01 94.82,-109.21 89.98,-105.09 88.47,-109.01"/>
</g>
<!-- src/style.css -->
<g id="node12" class="node">
<title>src/style.css</title>
<g id="a_node12"><a xlink:href="src/style.css" xlink:title="style.css">
<path fill="#ffffcc" stroke="black" d="M152.58,-158.41C152.58,-158.41 110.42,-158.41 110.42,-158.41 107.46,-158.41 104.5,-155.45 104.5,-152.49 104.5,-152.49 104.5,-146.58 104.5,-146.58 104.5,-143.62 107.46,-140.66 110.42,-140.66 110.42,-140.66 152.58,-140.66 152.58,-140.66 155.54,-140.66 158.5,-143.62 158.5,-146.58 158.5,-146.58 158.5,-152.49 158.5,-152.49 158.5,-155.45 155.54,-158.41 152.58,-158.41"/>
<text text-anchor="start" x="114.25" y="-145.86" font-family="Helvetica,sans-Serif" font-size="9.00">style.css</text>
</a>
</g>
</g>
<!-- src/index.js&#45;&gt;src/style.css -->
<g id="edge13" class="edge">
<title>src/index.js&#45;&gt;src/style.css</title>
<path fill="none" stroke="#000000" stroke-width="2" stroke-opacity="0.200000" d="M48.12,-87.9C54.07,-100.34 66.2,-122.18 83,-134.53 86.92,-137.42 91.41,-139.76 96.03,-141.65"/>
<polygon fill="#000000" fill-opacity="0.200000" stroke="#000000" stroke-width="2" stroke-opacity="0.200000" points="96.04,-143.59 102.39,-143.61 97.44,-139.63 96.04,-143.59"/>
</g>
<!-- src/renderBoard.js&#45;&gt;src/playerCreation.js -->
<g id="edge15" class="edge">
<title>src/renderBoard.js&#45;&gt;src/playerCreation.js</title>
<path fill="none" stroke="#000000" stroke-width="2" stroke-opacity="0.200000" d="M163.83,-110.16C169.26,-108.39 174.82,-106.48 180,-104.53 188.83,-101.22 198.3,-97.24 206.84,-93.48"/>
<polygon fill="#000000" fill-opacity="0.200000" stroke="#000000" stroke-width="2" stroke-opacity="0.200000" points="208.39,-95.19 213.02,-90.83 206.68,-91.36 208.39,-95.19"/>
</g>
<!-- src/wichFactory.test.js -->
<g id="node13" class="node">
<title>src/wichFactory.test.js</title>
<g id="a_node13"><a xlink:href="src/wichFactory.test.js" xlink:title="wichFactory.test.js">
<path fill="#ffffcc" stroke="black" d="M483.83,-84.41C483.83,-84.41 405.42,-84.41 405.42,-84.41 402.46,-84.41 399.5,-81.45 399.5,-78.49 399.5,-78.49 399.5,-72.58 399.5,-72.58 399.5,-69.62 402.46,-66.66 405.42,-66.66 405.42,-66.66 483.83,-66.66 483.83,-66.66 486.79,-66.66 489.75,-69.62 489.75,-72.58 489.75,-72.58 489.75,-78.49 489.75,-78.49 489.75,-81.45 486.79,-84.41 483.83,-84.41"/>
<text text-anchor="start" x="407.5" y="-71.86" font-family="Helvetica,sans-Serif" font-size="9.00">wichFactory.test.js</text>
</a>
</g>
</g>
<!-- src/wichFactory.test.js&#45;&gt;src/wichFactory.js -->
<g id="edge17" class="edge">
<title>src/wichFactory.test.js&#45;&gt;src/wichFactory.js</title>
<path fill="none" stroke="#000000" stroke-width="2" stroke-opacity="0.200000" d="M490.1,-76.45C492.73,-76.5 495.39,-76.56 498.02,-76.61"/>
<polygon fill="#000000" fill-opacity="0.200000" stroke="#000000" stroke-width="2" stroke-opacity="0.200000" points="497.86,-78.77 503.9,-76.79 497.94,-74.57 497.86,-78.77"/>
</g>
</g>
</svg>
