<?xml version="1.0" encoding="UTF-8" standalone="no"?>
<!DOCTYPE svg PUBLIC "-//W3C//DTD SVG 1.1//EN"
 "http://www.w3.org/Graphics/SVG/1.1/DTD/svg11.dtd">
<!-- Generated by graphviz version 8.1.0 (20230707.0739)
 -->
<!-- Title: dependency&#45;cruiser output Pages: 1 -->
<svg width="1002pt" height="392pt"
 viewBox="0.00 0.00 1002.00 392.00" xmlns="http://www.w3.org/2000/svg" xmlns:xlink="http://www.w3.org/1999/xlink">
<g id="graph0" class="graph" transform="scale(1 1) rotate(0) translate(4 388)">
<title>dependency&#45;cruiser output</title>
<polygon fill="white" stroke="none" points="-4,4 -4,-388 998,-388 998,4 -4,4"/>
<g id="clust1" class="cluster">
<title>cluster_src</title>
<path fill="#ffffff" stroke="black" stroke-width="2" d="M20,-8C20,-8 974,-8 974,-8 980,-8 986,-14 986,-20 986,-20 986,-364 986,-364 986,-370 980,-376 974,-376 974,-376 20,-376 20,-376 14,-376 8,-370 8,-364 8,-364 8,-20 8,-20 8,-14 14,-8 20,-8"/>
<text text-anchor="middle" x="497" y="-363.45" font-family="Helvetica,sans-Serif" font-weight="bold" font-size="9.00">src</text>
</g>
<!-- src/Gameboard.js -->
<g id="node1" class="node">
<title>src/Gameboard.js</title>
<g id="a_node1"><a xlink:href="src/Gameboard.js" xlink:title="Gameboard.js">
<path fill="#ffffcc" stroke="black" d="M753.58,-249.88C753.58,-249.88 691.67,-249.88 691.67,-249.88 688.71,-249.88 685.75,-246.92 685.75,-243.96 685.75,-243.96 685.75,-238.04 685.75,-238.04 685.75,-235.08 688.71,-232.12 691.67,-232.12 691.67,-232.12 753.58,-232.12 753.58,-232.12 756.54,-232.12 759.5,-235.08 759.5,-238.04 759.5,-238.04 759.5,-243.96 759.5,-243.96 759.5,-246.92 756.54,-249.88 753.58,-249.88"/>
<text text-anchor="start" x="693.75" y="-237.32" font-family="Helvetica,sans-Serif" font-size="9.00">Gameboard.js</text>
</a>
</g>
</g>
<!-- src/updateDomMessage.js -->
<g id="node2" class="node">
<title>src/updateDomMessage.js</title>
<g id="a_node2"><a xlink:href="src/updateDomMessage.js" xlink:title="updateDomMessage.js">
<path fill="#ffffcc" stroke="black" d="M972.08,-264.88C972.08,-264.88 873.42,-264.88 873.42,-264.88 870.46,-264.88 867.5,-261.92 867.5,-258.96 867.5,-258.96 867.5,-253.04 867.5,-253.04 867.5,-250.08 870.46,-247.12 873.42,-247.12 873.42,-247.12 972.08,-247.12 972.08,-247.12 975.04,-247.12 978,-250.08 978,-253.04 978,-253.04 978,-258.96 978,-258.96 978,-261.92 975.04,-264.88 972.08,-264.88"/>
<text text-anchor="start" x="875.5" y="-252.32" font-family="Helvetica,sans-Serif" font-size="9.00">updateDomMessage.js</text>
</a>
</g>
</g>
<!-- src/Gameboard.js&#45;&gt;src/updateDomMessage.js -->
<g id="edge1" class="edge">
<title>src/Gameboard.js&#45;&gt;src/updateDomMessage.js</title>
<path fill="none" stroke="#000000" stroke-width="2" stroke-opacity="0.200000" d="M759.96,-243.75C787.55,-245.84 826.16,-248.76 858.74,-251.23"/>
<polygon fill="#000000" fill-opacity="0.200000" stroke="#000000" stroke-width="2" stroke-opacity="0.200000" points="858.18,-253.52 864.32,-251.88 858.5,-249.33 858.18,-253.52"/>
</g>
<!-- src/wichFactory.js -->
<g id="node3" class="node">
<title>src/wichFactory.js</title>
<g id="a_node3"><a xlink:href="src/wichFactory.js" xlink:title="wichFactory.js">
<path fill="#ffffcc" stroke="black" d="M848.58,-275.88C848.58,-275.88 786.67,-275.88 786.67,-275.88 783.71,-275.88 780.75,-272.92 780.75,-269.96 780.75,-269.96 780.75,-264.04 780.75,-264.04 780.75,-261.08 783.71,-258.12 786.67,-258.12 786.67,-258.12 848.58,-258.12 848.58,-258.12 851.54,-258.12 854.5,-261.08 854.5,-264.04 854.5,-264.04 854.5,-269.96 854.5,-269.96 854.5,-272.92 851.54,-275.88 848.58,-275.88"/>
<text text-anchor="start" x="788.75" y="-263.32" font-family="Helvetica,sans-Serif" font-size="9.00">wichFactory.js</text>
</a>
</g>
</g>
<!-- src/Gameboard.js&#45;&gt;src/wichFactory.js -->
<g id="edge2" class="edge">
<title>src/Gameboard.js&#45;&gt;src/wichFactory.js</title>
<path fill="none" stroke="#000000" stroke-width="2" stroke-opacity="0.200000" d="M756.94,-250.31C762.68,-251.92 768.72,-253.61 774.65,-255.27"/>
<polygon fill="#000000" fill-opacity="0.200000" stroke="#000000" stroke-width="2" stroke-opacity="0.200000" points="774.89,-258.07 781.23,-257.66 776.02,-254.03 774.89,-258.07"/>
</g>
<!-- src/wichFactory.js&#45;&gt;src/updateDomMessage.js -->
<g id="edge40" class="edge">
<title>src/wichFactory.js&#45;&gt;src/updateDomMessage.js</title>
<path fill="none" stroke="#000000" stroke-width="2" stroke-opacity="0.200000" d="M854.98,-263.12C856.09,-263 857.21,-262.88 858.34,-262.76"/>
<polygon fill="#000000" fill-opacity="0.200000" stroke="#000000" stroke-width="2" stroke-opacity="0.200000" points="858.36,-264.55 864.1,-261.83 857.91,-260.38 858.36,-264.55"/>
</g>
<!-- src/Gameboard.test.js -->
<g id="node4" class="node">
<title>src/Gameboard.test.js</title>
<g id="a_node4"><a xlink:href="src/Gameboard.test.js" xlink:title="Gameboard.test.js">
<path fill="#ffffcc" stroke="black" d="M369.71,-311.88C369.71,-311.88 291.29,-311.88 291.29,-311.88 288.33,-311.88 285.38,-308.92 285.38,-305.96 285.38,-305.96 285.38,-300.04 285.38,-300.04 285.38,-297.08 288.33,-294.12 291.29,-294.12 291.29,-294.12 369.71,-294.12 369.71,-294.12 372.67,-294.12 375.62,-297.08 375.62,-300.04 375.62,-300.04 375.62,-305.96 375.62,-305.96 375.62,-308.92 372.67,-311.88 369.71,-311.88"/>
<text text-anchor="start" x="293.38" y="-299.32" font-family="Helvetica,sans-Serif" font-size="9.00">Gameboard.test.js</text>
</a>
</g>
</g>
<!-- src/Gameboard.test.js&#45;&gt;src/Gameboard.js -->
<g id="edge4" class="edge">
<title>src/Gameboard.test.js&#45;&gt;src/Gameboard.js</title>
<path fill="none" stroke="#000000" stroke-width="2" stroke-opacity="0.200000" d="M376.02,-299.67C409.8,-296.85 457.34,-292.27 498.75,-286 560.95,-276.58 632.09,-261.45 676.92,-251.37"/>
<polygon fill="#000000" fill-opacity="0.200000" stroke="#000000" stroke-width="2" stroke-opacity="0.200000" points="678.14,-252.79 683.53,-249.42 677.22,-248.7 678.14,-252.79"/>
</g>
<!-- src/Gameboard.test.js&#45;&gt;src/wichFactory.js -->
<g id="edge5" class="edge">
<title>src/Gameboard.test.js&#45;&gt;src/wichFactory.js</title>
<path fill="none" stroke="#000000" stroke-width="2" stroke-opacity="0.200000" d="M376.06,-309C383.86,-309.83 391.91,-310.55 399.5,-311 563.26,-320.6 608.09,-323.67 767.75,-286 774.6,-284.38 781.78,-282.01 788.45,-279.48"/>
<polygon fill="#000000" fill-opacity="0.200000" stroke="#000000" stroke-width="2" stroke-opacity="0.200000" points="789.78,-281.42 794.58,-277.25 788.23,-277.52 789.78,-281.42"/>
</g>
<!-- src/buildHTMLBoards.js -->
<g id="node5" class="node">
<title>src/buildHTMLBoards.js</title>
<g id="a_node5"><a xlink:href="src/buildHTMLBoards.js" xlink:title="buildHTMLBoards.js">
<path fill="#ffffcc" stroke="black" d="M492.83,-279.88C492.83,-279.88 405.42,-279.88 405.42,-279.88 402.46,-279.88 399.5,-276.92 399.5,-273.96 399.5,-273.96 399.5,-268.04 399.5,-268.04 399.5,-265.08 402.46,-262.12 405.42,-262.12 405.42,-262.12 492.83,-262.12 492.83,-262.12 495.79,-262.12 498.75,-265.08 498.75,-268.04 498.75,-268.04 498.75,-273.96 498.75,-273.96 498.75,-276.92 495.79,-279.88 492.83,-279.88"/>
<text text-anchor="start" x="407.5" y="-267.32" font-family="Helvetica,sans-Serif" font-size="9.00">buildHTMLBoards.js</text>
</a>
</g>
</g>
<!-- src/Gameboard.test.js&#45;&gt;src/buildHTMLBoards.js -->
<g id="edge3" class="edge">
<title>src/Gameboard.test.js&#45;&gt;src/buildHTMLBoards.js</title>
<path fill="none" stroke="#000000" stroke-width="2" stroke-opacity="0.200000" d="M365.55,-293.66C378.12,-290.21 392.53,-286.25 405.75,-282.63"/>
<polygon fill="#000000" fill-opacity="0.200000" stroke="#000000" stroke-width="2" stroke-opacity="0.200000" points="407.01,-283.91 412.24,-280.3 405.9,-279.86 407.01,-283.91"/>
</g>
<!-- src/playerCreation.js -->
<g id="node11" class="node">
<title>src/playerCreation.js</title>
<g id="a_node11"><a xlink:href="src/playerCreation.js" xlink:title="playerCreation.js">
<path fill="#ffffcc" stroke="black" d="M591.58,-155.88C591.58,-155.88 517.67,-155.88 517.67,-155.88 514.71,-155.88 511.75,-152.92 511.75,-149.96 511.75,-149.96 511.75,-144.04 511.75,-144.04 511.75,-141.08 514.71,-138.12 517.67,-138.12 517.67,-138.12 591.58,-138.12 591.58,-138.12 594.54,-138.12 597.5,-141.08 597.5,-144.04 597.5,-144.04 597.5,-149.96 597.5,-149.96 597.5,-152.92 594.54,-155.88 591.58,-155.88"/>
<text text-anchor="start" x="519.75" y="-143.32" font-family="Helvetica,sans-Serif" font-size="9.00">playerCreation.js</text>
</a>
</g>
</g>
<!-- src/buildHTMLBoards.js&#45;&gt;src/playerCreation.js -->
<g id="edge12" class="edge">
<title>src/buildHTMLBoards.js&#45;&gt;src/playerCreation.js</title>
<path fill="none" stroke="#000000" stroke-width="2" stroke-opacity="0.200000" d="M471.6,-261.84C481.39,-256.57 492.23,-248.99 498.75,-239 516.3,-212.09 493.4,-191.82 512.81,-163.25"/>
<polygon fill="#000000" fill-opacity="0.200000" stroke="#000000" stroke-width="2" stroke-opacity="0.200000" points="515.29,-164.23 517.34,-158.21 511.98,-161.63 515.29,-164.23"/>
</g>
<!-- src/Player.js -->
<g id="node6" class="node">
<title>src/Player.js</title>
<g id="a_node6"><a xlink:href="src/Player.js" xlink:title="Player.js">
<path fill="#ffffcc" stroke="black" d="M658.58,-170.88C658.58,-170.88 616.42,-170.88 616.42,-170.88 613.46,-170.88 610.5,-167.92 610.5,-164.96 610.5,-164.96 610.5,-159.04 610.5,-159.04 610.5,-156.08 613.46,-153.12 616.42,-153.12 616.42,-153.12 658.58,-153.12 658.58,-153.12 661.54,-153.12 664.5,-156.08 664.5,-159.04 664.5,-159.04 664.5,-164.96 664.5,-164.96 664.5,-167.92 661.54,-170.88 658.58,-170.88"/>
<text text-anchor="start" x="619.88" y="-158.32" font-family="Helvetica,sans-Serif" font-size="9.00">Player.js</text>
</a>
</g>
</g>
<!-- src/Player.js&#45;&gt;src/Gameboard.js -->
<g id="edge6" class="edge">
<title>src/Player.js&#45;&gt;src/Gameboard.js</title>
<path fill="none" stroke="#000000" stroke-width="2" stroke-opacity="0.200000" d="M648.36,-171.37C662.49,-184.8 688.63,-209.64 705.57,-225.74"/>
<polygon fill="#000000" fill-opacity="0.200000" stroke="#000000" stroke-width="2" stroke-opacity="0.200000" points="703.98,-227.03 709.78,-229.64 706.87,-223.98 703.98,-227.03"/>
</g>
<!-- src/Player.test.js -->
<g id="node7" class="node">
<title>src/Player.test.js</title>
<g id="a_node7"><a xlink:href="src/Player.test.js" xlink:title="Player.test.js">
<path fill="#ffffcc" stroke="black" d="M582.58,-185.88C582.58,-185.88 526.67,-185.88 526.67,-185.88 523.71,-185.88 520.75,-182.92 520.75,-179.96 520.75,-179.96 520.75,-174.04 520.75,-174.04 520.75,-171.08 523.71,-168.12 526.67,-168.12 526.67,-168.12 582.58,-168.12 582.58,-168.12 585.54,-168.12 588.5,-171.08 588.5,-174.04 588.5,-174.04 588.5,-179.96 588.5,-179.96 588.5,-182.92 585.54,-185.88 582.58,-185.88"/>
<text text-anchor="start" x="528.75" y="-173.32" font-family="Helvetica,sans-Serif" font-size="9.00">Player.test.js</text>
</a>
</g>
</g>
<!-- src/Player.test.js&#45;&gt;src/Player.js -->
<g id="edge7" class="edge">
<title>src/Player.test.js&#45;&gt;src/Player.js</title>
<path fill="none" stroke="#000000" stroke-width="2" stroke-opacity="0.200000" d="M588.99,-170.81C593.22,-170.03 597.57,-169.22 601.82,-168.43"/>
<polygon fill="#000000" fill-opacity="0.200000" stroke="#000000" stroke-width="2" stroke-opacity="0.200000" points="602.86,-170 608.38,-166.84 602.1,-165.87 602.86,-170"/>
</g>
<!-- src/boardSetUp.js -->
<g id="node8" class="node">
<title>src/boardSetUp.js</title>
<g id="a_node8"><a xlink:href="src/boardSetUp.js" xlink:title="boardSetUp.js">
<path fill="#ffffcc" stroke="black" d="M255.58,-166.88C255.58,-166.88 192.92,-166.88 192.92,-166.88 189.96,-166.88 187,-163.92 187,-160.96 187,-160.96 187,-155.04 187,-155.04 187,-152.08 189.96,-149.12 192.92,-149.12 192.92,-149.12 255.58,-149.12 255.58,-149.12 258.54,-149.12 261.5,-152.08 261.5,-155.04 261.5,-155.04 261.5,-160.96 261.5,-160.96 261.5,-163.92 258.54,-166.88 255.58,-166.88"/>
<text text-anchor="start" x="195" y="-154.32" font-family="Helvetica,sans-Serif" font-size="9.00">boardSetUp.js</text>
</a>
</g>
</g>
<!-- src/boardSetUp.js&#45;&gt;src/updateDomMessage.js -->
<g id="edge11" class="edge">
<title>src/boardSetUp.js&#45;&gt;src/updateDomMessage.js</title>
<path fill="none" stroke="#000000" stroke-width="2" stroke-opacity="0.200000" d="M228.77,-167.17C235.63,-185.3 251.08,-227.07 261.5,-263 268.5,-287.12 255.59,-301.47 274.5,-318 303.69,-343.51 409.36,-335 448.12,-335 448.12,-335 448.12,-335 723.62,-335 792.82,-335 866.56,-292.91 901.35,-270.17"/>
<polygon fill="#000000" fill-opacity="0.200000" stroke="#000000" stroke-width="2" stroke-opacity="0.200000" points="902.72,-271.45 906.55,-266.37 900.39,-267.95 902.72,-271.45"/>
</g>
<!-- src/buildOneHTMLBoard.js -->
<g id="node9" class="node">
<title>src/buildOneHTMLBoard.js</title>
<g id="a_node9"><a xlink:href="src/buildOneHTMLBoard.js" xlink:title="buildOneHTMLBoard.js">
<path fill="#ffffcc" stroke="black" d="M380.58,-243.88C380.58,-243.88 280.42,-243.88 280.42,-243.88 277.46,-243.88 274.5,-240.92 274.5,-237.96 274.5,-237.96 274.5,-232.04 274.5,-232.04 274.5,-229.08 277.46,-226.12 280.42,-226.12 280.42,-226.12 380.58,-226.12 380.58,-226.12 383.54,-226.12 386.5,-229.08 386.5,-232.04 386.5,-232.04 386.5,-237.96 386.5,-237.96 386.5,-240.92 383.54,-243.88 380.58,-243.88"/>
<text text-anchor="start" x="282.5" y="-231.32" font-family="Helvetica,sans-Serif" font-size="9.00">buildOneHTMLBoard.js</text>
</a>
</g>
</g>
<!-- src/boardSetUp.js&#45;&gt;src/buildOneHTMLBoard.js -->
<g id="edge8" class="edge">
<title>src/boardSetUp.js&#45;&gt;src/buildOneHTMLBoard.js</title>
<path fill="none" stroke="#000000" stroke-width="2" stroke-opacity="0.200000" d="M237.62,-167.14C255.47,-180.32 288.64,-204.82 309.86,-220.49"/>
<polygon fill="#000000" fill-opacity="0.200000" stroke="#000000" stroke-width="2" stroke-opacity="0.200000" points="308.75,-222.76 314.82,-224.64 311.24,-219.38 308.75,-222.76"/>
</g>
<!-- src/gameLoop.js -->
<g id="node10" class="node">
<title>src/gameLoop.js</title>
<g id="a_node10"><a xlink:href="src/gameLoop.js" xlink:title="gameLoop.js">
<path fill="#ffffcc" stroke="black" d="M359.21,-166.88C359.21,-166.88 301.79,-166.88 301.79,-166.88 298.83,-166.88 295.88,-163.92 295.88,-160.96 295.88,-160.96 295.88,-155.04 295.88,-155.04 295.88,-152.08 298.83,-149.12 301.79,-149.12 301.79,-149.12 359.21,-149.12 359.21,-149.12 362.17,-149.12 365.12,-152.08 365.12,-155.04 365.12,-155.04 365.12,-160.96 365.12,-160.96 365.12,-163.92 362.17,-166.88 359.21,-166.88"/>
<text text-anchor="start" x="303.88" y="-154.32" font-family="Helvetica,sans-Serif" font-size="9.00">gameLoop.js</text>
</a>
</g>
</g>
<!-- src/boardSetUp.js&#45;&gt;src/gameLoop.js -->
<g id="edge9" class="edge">
<title>src/boardSetUp.js&#45;&gt;src/gameLoop.js</title>
<path fill="none" stroke="#000000" stroke-width="2" stroke-opacity="0.200000" d="M261.71,-158C269.82,-158 278.48,-158 286.81,-158"/>
<polygon fill="#000000" fill-opacity="0.200000" stroke="#000000" stroke-width="2" stroke-opacity="0.200000" points="286.68,-160.1 292.68,-158 286.68,-155.9 286.68,-160.1"/>
</g>
<!-- src/boardSetUp.js&#45;&gt;src/playerCreation.js -->
<g id="edge10" class="edge">
<title>src/boardSetUp.js&#45;&gt;src/playerCreation.js</title>
<path fill="none" stroke="#000000" stroke-width="2" stroke-opacity="0.200000" d="M244.19,-148.69C289.18,-127.88 405.62,-81.54 498.75,-110 513.07,-114.38 527.04,-123.89 537.3,-132.18"/>
<polygon fill="#000000" fill-opacity="0.200000" stroke="#000000" stroke-width="2" stroke-opacity="0.200000" points="536.13,-134.63 542.06,-136.9 538.84,-131.42 536.13,-134.63"/>
</g>
<!-- src/buildOneHTMLBoard.js&#45;&gt;src/Gameboard.js -->
<g id="edge13" class="edge">
<title>src/buildOneHTMLBoard.js&#45;&gt;src/Gameboard.js</title>
<path fill="none" stroke="#000000" stroke-width="2" stroke-opacity="0.200000" d="M386.79,-237.6C391.09,-237.75 395.37,-237.89 399.5,-238 498.35,-240.64 614.31,-241.06 676.59,-241.07"/>
<polygon fill="#000000" fill-opacity="0.200000" stroke="#000000" stroke-width="2" stroke-opacity="0.200000" points="676.39,-243.17 682.39,-241.07 676.39,-238.97 676.39,-243.17"/>
</g>
<!-- src/buildOneHTMLBoard.js&#45;&gt;src/updateDomMessage.js -->
<g id="edge16" class="edge">
<title>src/buildOneHTMLBoard.js&#45;&gt;src/updateDomMessage.js</title>
<path fill="none" stroke="#000000" stroke-width="2" stroke-opacity="0.200000" d="M340.65,-244.34C352.87,-256.19 375.75,-276.25 399.5,-286 463.46,-312.25 484.49,-307 553.62,-307 553.62,-307 553.62,-307 723.62,-307 785.04,-307 853.89,-283.73 892.1,-268.63"/>
<polygon fill="#000000" fill-opacity="0.200000" stroke="#000000" stroke-width="2" stroke-opacity="0.200000" points="893.45,-270.54 898.23,-266.35 891.88,-266.65 893.45,-270.54"/>
</g>
<!-- src/buildOneHTMLBoard.js&#45;&gt;src/playerCreation.js -->
<g id="edge14" class="edge">
<title>src/buildOneHTMLBoard.js&#45;&gt;src/playerCreation.js</title>
<path fill="none" stroke="#000000" stroke-width="2" stroke-opacity="0.200000" d="M386.97,-239.79C429.08,-242.15 482.43,-242 498.75,-228 519.58,-210.13 496.69,-188.55 513.03,-163.16"/>
<polygon fill="#000000" fill-opacity="0.200000" stroke="#000000" stroke-width="2" stroke-opacity="0.200000" points="515.37,-164.29 517.41,-158.27 512.06,-161.71 515.37,-164.29"/>
</g>
<!-- src/renderBoard.js -->
<g id="node12" class="node">
<title>src/renderBoard.js</title>
<g id="a_node12"><a xlink:href="src/renderBoard.js" xlink:title="renderBoard.js">
<path fill="#ffffcc" stroke="black" d="M481.58,-221.88C481.58,-221.88 416.67,-221.88 416.67,-221.88 413.71,-221.88 410.75,-218.92 410.75,-215.96 410.75,-215.96 410.75,-210.04 410.75,-210.04 410.75,-207.08 413.71,-204.12 416.67,-204.12 416.67,-204.12 481.58,-204.12 481.58,-204.12 484.54,-204.12 487.5,-207.08 487.5,-210.04 487.5,-210.04 487.5,-215.96 487.5,-215.96 487.5,-218.92 484.54,-221.88 481.58,-221.88"/>
<text text-anchor="start" x="418.75" y="-209.32" font-family="Helvetica,sans-Serif" font-size="9.00">renderBoard.js</text>
</a>
</g>
</g>
<!-- src/buildOneHTMLBoard.js&#45;&gt;src/renderBoard.js -->
<g id="edge15" class="edge">
<title>src/buildOneHTMLBoard.js&#45;&gt;src/renderBoard.js</title>
<path fill="none" stroke="#000000" stroke-width="2" stroke-opacity="0.200000" d="M380.96,-225.67C387.86,-224.37 394.92,-223.04 401.76,-221.75"/>
<polygon fill="#000000" fill-opacity="0.200000" stroke="#000000" stroke-width="2" stroke-opacity="0.200000" points="402.76,-223.32 408.27,-220.14 401.98,-219.19 402.76,-223.32"/>
</g>
<!-- src/gameLoop.js&#45;&gt;src/Gameboard.js -->
<g id="edge23" class="edge">
<title>src/gameLoop.js&#45;&gt;src/Gameboard.js</title>
<path fill="none" stroke="#000000" stroke-width="2" stroke-opacity="0.200000" d="M352.24,-167.33C365.51,-172.94 383.22,-179.8 399.5,-184 442.63,-195.14 454.81,-190.67 498.75,-198 560.7,-208.34 631.9,-222.47 676.82,-231.67"/>
<polygon fill="#000000" fill-opacity="0.200000" stroke="#000000" stroke-width="2" stroke-opacity="0.200000" points="677.14,-234.29 683.44,-233.44 677.98,-230.17 677.14,-234.29"/>
</g>
<!-- src/gameLoop.js&#45;&gt;src/updateDomMessage.js -->
<g id="edge27" class="edge">
<title>src/gameLoop.js&#45;&gt;src/updateDomMessage.js</title>
<path fill="none" stroke="#000000" stroke-width="2" stroke-opacity="0.200000" d="M340.65,-148.92C352.87,-137.47 375.75,-118.26 399.5,-110 499.14,-75.34 531.01,-97 636.5,-97 636.5,-97 636.5,-97 723.62,-97 784.19,-97 807.14,-97.24 854.5,-135 888.79,-162.34 908.37,-212.19 916.78,-238.56"/>
<polygon fill="#000000" fill-opacity="0.200000" stroke="#000000" stroke-width="2" stroke-opacity="0.200000" points="915.54,-239.7 919.3,-244.83 919.56,-238.48 915.54,-239.7"/>
</g>
<!-- src/gameLoop.js&#45;&gt;src/buildHTMLBoards.js -->
<g id="edge20" class="edge">
<title>src/gameLoop.js&#45;&gt;src/buildHTMLBoards.js</title>
<path fill="none" stroke="#000000" stroke-width="2" stroke-opacity="0.200000" d="M340.09,-167.28C352.78,-180.89 377.44,-206.95 399.5,-228 409.51,-237.55 421.09,-247.82 430.44,-255.93"/>
<polygon fill="#000000" fill-opacity="0.200000" stroke="#000000" stroke-width="2" stroke-opacity="0.200000" points="429.18,-258.34 435.1,-260.67 431.92,-255.16 429.18,-258.34"/>
</g>
<!-- src/gameLoop.js&#45;&gt;src/playerCreation.js -->
<g id="edge25" class="edge">
<title>src/gameLoop.js&#45;&gt;src/playerCreation.js</title>
<path fill="none" stroke="#000000" stroke-width="2" stroke-opacity="0.200000" d="M365.39,-155.92C376.28,-155.27 388.4,-154.58 399.5,-154 433.95,-152.2 472.74,-150.44 502.79,-149.14"/>
<polygon fill="#000000" fill-opacity="0.200000" stroke="#000000" stroke-width="2" stroke-opacity="0.200000" points="502.52,-151.12 508.42,-148.76 502.34,-146.93 502.52,-151.12"/>
</g>
<!-- src/gameLoop.js&#45;&gt;src/renderBoard.js -->
<g id="edge26" class="edge">
<title>src/gameLoop.js&#45;&gt;src/renderBoard.js</title>
<path fill="none" stroke="#000000" stroke-width="2" stroke-opacity="0.200000" d="M347.11,-167.33C360.68,-175.24 381.02,-186.61 399.5,-195 403.65,-196.88 408.05,-198.72 412.45,-200.47"/>
<polygon fill="#000000" fill-opacity="0.200000" stroke="#000000" stroke-width="2" stroke-opacity="0.200000" points="412.48,-202.5 418.84,-202.68 413.99,-198.57 412.48,-202.5"/>
</g>
<!-- src/checkWinner.js -->
<g id="node13" class="node">
<title>src/checkWinner.js</title>
<g id="a_node13"><a xlink:href="src/checkWinner.js" xlink:title="checkWinner.js">
<path fill="#ffffcc" stroke="black" d="M482.33,-133.88C482.33,-133.88 415.92,-133.88 415.92,-133.88 412.96,-133.88 410,-130.92 410,-127.96 410,-127.96 410,-122.04 410,-122.04 410,-119.08 412.96,-116.12 415.92,-116.12 415.92,-116.12 482.33,-116.12 482.33,-116.12 485.29,-116.12 488.25,-119.08 488.25,-122.04 488.25,-122.04 488.25,-127.96 488.25,-127.96 488.25,-130.92 485.29,-133.88 482.33,-133.88"/>
<text text-anchor="start" x="418" y="-121.33" font-family="Helvetica,sans-Serif" font-size="9.00">checkWinner.js</text>
</a>
</g>
</g>
<!-- src/gameLoop.js&#45;&gt;src/checkWinner.js -->
<g id="edge21" class="edge">
<title>src/gameLoop.js&#45;&gt;src/checkWinner.js</title>
<path fill="none" stroke="#000000" stroke-width="2" stroke-opacity="0.200000" d="M364.61,-148.63C377.77,-144.91 393.05,-140.58 406.92,-136.66"/>
<polygon fill="#000000" fill-opacity="0.200000" stroke="#000000" stroke-width="2" stroke-opacity="0.200000" points="408.14,-137.93 413.34,-134.28 406.99,-133.89 408.14,-137.93"/>
</g>
<!-- src/compTargeting.js -->
<g id="node14" class="node">
<title>src/compTargeting.js</title>
<g id="a_node14"><a xlink:href="src/compTargeting.js" xlink:title="compTargeting.js">
<path fill="#ffffcc" stroke="black" d="M486.08,-177.88C486.08,-177.88 412.17,-177.88 412.17,-177.88 409.21,-177.88 406.25,-174.92 406.25,-171.96 406.25,-171.96 406.25,-166.04 406.25,-166.04 406.25,-163.08 409.21,-160.12 412.17,-160.12 412.17,-160.12 486.08,-160.12 486.08,-160.12 489.04,-160.12 492,-163.08 492,-166.04 492,-166.04 492,-171.96 492,-171.96 492,-174.92 489.04,-177.88 486.08,-177.88"/>
<text text-anchor="start" x="414.25" y="-165.32" font-family="Helvetica,sans-Serif" font-size="9.00">compTargeting.js</text>
</a>
</g>
</g>
<!-- src/gameLoop.js&#45;&gt;src/compTargeting.js -->
<g id="edge22" class="edge">
<title>src/gameLoop.js&#45;&gt;src/compTargeting.js</title>
<path fill="none" stroke="#000000" stroke-width="2" stroke-opacity="0.200000" d="M365.55,-161.21C375.42,-162.14 386.43,-163.18 397.1,-164.19"/>
<polygon fill="#000000" fill-opacity="0.200000" stroke="#000000" stroke-width="2" stroke-opacity="0.200000" points="396.79,-166.55 402.96,-165.02 397.18,-162.37 396.79,-166.55"/>
</g>
<!-- src/gameLoopEvents.js -->
<g id="node15" class="node">
<title>src/gameLoopEvents.js</title>
<g id="a_node15"><a xlink:href="src/gameLoopEvents.js" xlink:title="gameLoopEvents.js">
<path fill="#ffffcc" stroke="black" d="M491.71,-75.88C491.71,-75.88 406.54,-75.88 406.54,-75.88 403.58,-75.88 400.62,-72.92 400.62,-69.96 400.62,-69.96 400.62,-64.04 400.62,-64.04 400.62,-61.08 403.58,-58.12 406.54,-58.12 406.54,-58.12 491.71,-58.12 491.71,-58.12 494.67,-58.12 497.62,-61.08 497.62,-64.04 497.62,-64.04 497.62,-69.96 497.62,-69.96 497.62,-72.92 494.67,-75.88 491.71,-75.88"/>
<text text-anchor="start" x="408.62" y="-63.33" font-family="Helvetica,sans-Serif" font-size="9.00">gameLoopEvents.js</text>
</a>
</g>
</g>
<!-- src/gameLoop.js&#45;&gt;src/gameLoopEvents.js -->
<g id="edge24" class="edge">
<title>src/gameLoop.js&#45;&gt;src/gameLoopEvents.js</title>
<path fill="none" stroke="#000000" stroke-width="2" stroke-opacity="0.200000" d="M341.29,-148.77C354.2,-136.78 377.82,-115.42 399.5,-99 407.68,-92.8 417.02,-86.49 425.32,-81.12"/>
<polygon fill="#000000" fill-opacity="0.200000" stroke="#000000" stroke-width="2" stroke-opacity="0.200000" points="426.94,-82.3 430.88,-77.3 424.69,-78.76 426.94,-82.3"/>
</g>
<!-- src/playerCreation.js&#45;&gt;src/Player.js -->
<g id="edge36" class="edge">
<title>src/playerCreation.js&#45;&gt;src/Player.js</title>
<path fill="none" stroke="#000000" stroke-width="2" stroke-opacity="0.200000" d="M597.96,-154.85C599.12,-155.07 600.28,-155.28 601.43,-155.5"/>
<polygon fill="#000000" fill-opacity="0.200000" stroke="#000000" stroke-width="2" stroke-opacity="0.200000" points="601.81,-158.07 608.09,-157.1 602.57,-153.94 601.81,-158.07"/>
</g>
<!-- src/renderBoard.js&#45;&gt;src/playerCreation.js -->
<g id="edge37" class="edge">
<title>src/renderBoard.js&#45;&gt;src/playerCreation.js</title>
<path fill="none" stroke="#000000" stroke-width="2" stroke-opacity="0.200000" d="M470.63,-203.72C479.97,-198.79 490.7,-192.08 498.75,-184 506.76,-175.95 502.99,-169.23 511.75,-162 512.16,-161.66 512.58,-161.33 513,-161.01"/>
<polygon fill="#000000" fill-opacity="0.200000" stroke="#000000" stroke-width="2" stroke-opacity="0.200000" points="514.45,-162.33 518.42,-157.37 512.22,-158.77 514.45,-162.33"/>
</g>
<!-- src/checkWinner.js&#45;&gt;src/updateDomMessage.js -->
<g id="edge18" class="edge">
<title>src/checkWinner.js&#45;&gt;src/updateDomMessage.js</title>
<path fill="none" stroke="#000000" stroke-width="2" stroke-opacity="0.200000" d="M488.68,-125C526.36,-125 585.38,-125 636.5,-125 636.5,-125 636.5,-125 723.62,-125 806.39,-125 881.17,-205.53 909.6,-240.31"/>
<polygon fill="#000000" fill-opacity="0.200000" stroke="#000000" stroke-width="2" stroke-opacity="0.200000" points="908.56,-241.62 913.95,-245 911.84,-239 908.56,-241.62"/>
</g>
<!-- src/checkWinner.js&#45;&gt;src/playerCreation.js -->
<g id="edge17" class="edge">
<title>src/checkWinner.js&#45;&gt;src/playerCreation.js</title>
<path fill="none" stroke="#000000" stroke-width="2" stroke-opacity="0.200000" d="M488.66,-133.19C493.33,-134.18 498.16,-135.21 502.97,-136.23"/>
<polygon fill="#000000" fill-opacity="0.200000" stroke="#000000" stroke-width="2" stroke-opacity="0.200000" points="503.27,-138.87 509.58,-138.06 504.15,-134.76 503.27,-138.87"/>
</g>
<!-- src/compTargeting.js&#45;&gt;src/playerCreation.js -->
<g id="edge19" class="edge">
<title>src/compTargeting.js&#45;&gt;src/playerCreation.js</title>
<path fill="none" stroke="#000000" stroke-width="2" stroke-opacity="0.200000" d="M492.22,-160.05C495.71,-159.31 499.26,-158.56 502.81,-157.8"/>
<polygon fill="#000000" fill-opacity="0.200000" stroke="#000000" stroke-width="2" stroke-opacity="0.200000" points="504.13,-159.24 509.56,-155.94 503.26,-155.13 504.13,-159.24"/>
</g>
<!-- src/index.js -->
<g id="node16" class="node">
<title>src/index.js</title>
<g id="a_node16"><a xlink:href="src/index.js" xlink:title="index.js">
<path fill="#ffffcc" stroke="black" d="M64.08,-86.88C64.08,-86.88 21.92,-86.88 21.92,-86.88 18.96,-86.88 16,-83.92 16,-80.96 16,-80.96 16,-75.04 16,-75.04 16,-72.08 18.96,-69.12 21.92,-69.12 21.92,-69.12 64.08,-69.12 64.08,-69.12 67.04,-69.12 70,-72.08 70,-75.04 70,-75.04 70,-80.96 70,-80.96 70,-83.92 67.04,-86.88 64.08,-86.88"/>
<text text-anchor="start" x="27.25" y="-74.33" font-family="Helvetica,sans-Serif" font-size="9.00">index.js</text>
</a>
</g>
</g>
<!-- src/index.js&#45;&gt;src/updateDomMessage.js -->
<g id="edge34" class="edge">
<title>src/index.js&#45;&gt;src/updateDomMessage.js</title>
<path fill="none" stroke="#000000" stroke-width="2" stroke-opacity="0.200000" d="M47.68,-68.94C53.25,-56.53 65.12,-34.69 83,-25 137.89,4.75 160.82,-17 223.25,-17 223.25,-17 223.25,-17 723.62,-17 791.57,-17 810.07,-44.6 854.5,-96 892,-139.38 910.91,-206.69 918.15,-238.37"/>
<polygon fill="#000000" fill-opacity="0.200000" stroke="#000000" stroke-width="2" stroke-opacity="0.200000" points="916.7,-239.58 920.02,-245 920.8,-238.69 916.7,-239.58"/>
</g>
<!-- src/index.js&#45;&gt;src/buildHTMLBoards.js -->
<g id="edge28" class="edge">
<title>src/index.js&#45;&gt;src/buildHTMLBoards.js</title>
<path fill="none" stroke="#000000" stroke-width="2" stroke-opacity="0.200000" d="M45.91,-87.27C49.91,-104.52 60.7,-141.78 83,-164 166.24,-246.94 310.11,-266.28 390.15,-270.36"/>
<polygon fill="#000000" fill-opacity="0.200000" stroke="#000000" stroke-width="2" stroke-opacity="0.200000" points="390.02,-272.59 396.11,-270.77 390.21,-268.4 390.02,-272.59"/>
</g>
<!-- src/index.js&#45;&gt;src/Player.js -->
<g id="edge31" class="edge">
<title>src/index.js&#45;&gt;src/Player.js</title>
<path fill="none" stroke="#000000" stroke-width="2" stroke-opacity="0.200000" d="M51.58,-68.7C58.75,-60.64 70.28,-49.45 83,-44 140.54,-19.35 160.65,-31 223.25,-31 223.25,-31 223.25,-31 331.5,-31 405.87,-31 429.84,-8.04 498.75,-36 555.58,-59.05 603.65,-116.86 624.87,-145.45"/>
<polygon fill="#000000" fill-opacity="0.200000" stroke="#000000" stroke-width="2" stroke-opacity="0.200000" points="623.9,-147.07 629.12,-150.69 627.3,-144.6 623.9,-147.07"/>
</g>
<!-- src/index.js&#45;&gt;src/playerCreation.js -->
<g id="edge32" class="edge">
<title>src/index.js&#45;&gt;src/playerCreation.js</title>
<path fill="none" stroke="#000000" stroke-width="2" stroke-opacity="0.200000" d="M70.29,-69.33C74.51,-68.1 78.86,-66.94 83,-66 144.46,-52.03 160.22,-45 223.25,-45 223.25,-45 223.25,-45 331.5,-45 368.7,-45 470.41,-27.91 498.75,-52 520.53,-70.52 496.54,-90.79 511.75,-115 516.11,-121.94 522.55,-127.94 529.07,-132.81"/>
<polygon fill="#000000" fill-opacity="0.200000" stroke="#000000" stroke-width="2" stroke-opacity="0.200000" points="527.96,-134.97 534.1,-136.65 530.34,-131.51 527.96,-134.97"/>
</g>
<!-- src/index.js&#45;&gt;src/gameLoopEvents.js -->
<g id="edge29" class="edge">
<title>src/index.js&#45;&gt;src/gameLoopEvents.js</title>
<path fill="none" stroke="#000000" stroke-width="2" stroke-opacity="0.200000" d="M70.41,-74.99C74.62,-74.6 78.92,-74.25 83,-74 191.94,-67.38 319.46,-66.5 391.32,-66.63"/>
<polygon fill="#000000" fill-opacity="0.200000" stroke="#000000" stroke-width="2" stroke-opacity="0.200000" points="391.22,-68.74 397.23,-66.65 391.23,-64.54 391.22,-68.74"/>
</g>
<!-- src/meyer&#45;reset.css -->
<g id="node17" class="node">
<title>src/meyer&#45;reset.css</title>
<g id="a_node17"><a xlink:href="src/meyer-reset.css" xlink:title="meyer&#45;reset.css">
<path fill="#ffffcc" stroke="black" d="M162.83,-127.88C162.83,-127.88 94.17,-127.88 94.17,-127.88 91.21,-127.88 88.25,-124.92 88.25,-121.96 88.25,-121.96 88.25,-116.04 88.25,-116.04 88.25,-113.08 91.21,-110.12 94.17,-110.12 94.17,-110.12 162.83,-110.12 162.83,-110.12 165.79,-110.12 168.75,-113.08 168.75,-116.04 168.75,-116.04 168.75,-121.96 168.75,-121.96 168.75,-124.92 165.79,-127.88 162.83,-127.88"/>
<text text-anchor="start" x="96.25" y="-115.33" font-family="Helvetica,sans-Serif" font-size="9.00">meyer&#45;reset.css</text>
</a>
</g>
</g>
<!-- src/index.js&#45;&gt;src/meyer&#45;reset.css -->
<g id="edge30" class="edge">
<title>src/index.js&#45;&gt;src/meyer&#45;reset.css</title>
<path fill="none" stroke="#000000" stroke-width="2" stroke-opacity="0.200000" d="M56.14,-87.31C63.6,-92.7 73.5,-99.34 83,-104 84.72,-104.85 86.51,-105.66 88.33,-106.45"/>
<polygon fill="#000000" fill-opacity="0.200000" stroke="#000000" stroke-width="2" stroke-opacity="0.200000" points="88.08,-108.42 94.43,-108.7 89.65,-104.52 88.08,-108.42"/>
</g>
<!-- src/style.css -->
<g id="node18" class="node">
<title>src/style.css</title>
<g id="a_node18"><a xlink:href="src/style.css" xlink:title="style.css">
<path fill="#ffffcc" stroke="black" d="M149.58,-157.88C149.58,-157.88 107.42,-157.88 107.42,-157.88 104.46,-157.88 101.5,-154.92 101.5,-151.96 101.5,-151.96 101.5,-146.04 101.5,-146.04 101.5,-143.08 104.46,-140.12 107.42,-140.12 107.42,-140.12 149.58,-140.12 149.58,-140.12 152.54,-140.12 155.5,-143.08 155.5,-146.04 155.5,-146.04 155.5,-151.96 155.5,-151.96 155.5,-154.92 152.54,-157.88 149.58,-157.88"/>
<text text-anchor="start" x="111.25" y="-145.32" font-family="Helvetica,sans-Serif" font-size="9.00">style.css</text>
</a>
</g>
</g>
<!-- src/index.js&#45;&gt;src/style.css -->
<g id="edge33" class="edge">
<title>src/index.js&#45;&gt;src/style.css</title>
<path fill="none" stroke="#000000" stroke-width="2" stroke-opacity="0.200000" d="M48.16,-87.32C54.14,-99.71 66.32,-121.48 83,-134 86.01,-136.26 89.38,-138.19 92.88,-139.84"/>
<polygon fill="#000000" fill-opacity="0.200000" stroke="#000000" stroke-width="2" stroke-opacity="0.200000" points="92.83,-141.89 99.18,-142.19 94.41,-138 92.83,-141.89"/>
</g>
<!-- src/welcomeScreen.js -->
<g id="node19" class="node">
<title>src/welcomeScreen.js</title>
<g id="a_node19"><a xlink:href="src/welcomeScreen.js" xlink:title="welcomeScreen.js">
<path fill="#ffffcc" stroke="black" d="M168.08,-97.88C168.08,-97.88 88.92,-97.88 88.92,-97.88 85.96,-97.88 83,-94.92 83,-91.96 83,-91.96 83,-86.04 83,-86.04 83,-83.08 85.96,-80.12 88.92,-80.12 88.92,-80.12 168.08,-80.12 168.08,-80.12 171.04,-80.12 174,-83.08 174,-86.04 174,-86.04 174,-91.96 174,-91.96 174,-94.92 171.04,-97.88 168.08,-97.88"/>
<text text-anchor="start" x="91" y="-85.33" font-family="Helvetica,sans-Serif" font-size="9.00">welcomeScreen.js</text>
</a>
</g>
</g>
<!-- src/index.js&#45;&gt;src/welcomeScreen.js -->
<g id="edge35" class="edge">
<title>src/index.js&#45;&gt;src/welcomeScreen.js</title>
<path fill="none" stroke="#000000" stroke-width="2" stroke-opacity="0.200000" d="M70.42,-81.48C71.52,-81.63 72.64,-81.77 73.77,-81.92"/>
<polygon fill="#000000" fill-opacity="0.200000" stroke="#000000" stroke-width="2" stroke-opacity="0.200000" points="73.41,-84.39 79.63,-83.09 73.96,-80.22 73.41,-84.39"/>
</g>
<!-- src/welcomeScreen.js&#45;&gt;src/updateDomMessage.js -->
<g id="edge39" class="edge">
<title>src/welcomeScreen.js&#45;&gt;src/updateDomMessage.js</title>
<path fill="none" stroke="#000000" stroke-width="2" stroke-opacity="0.200000" d="M167.34,-98.29C169.81,-99.9 172.07,-101.79 174,-104 194.48,-127.54 176.42,-143.64 187,-173 214.22,-248.51 207.54,-286.73 274.5,-331 339.22,-373.79 370.54,-349 448.12,-349 448.12,-349 448.12,-349 723.62,-349 747.3,-349 841.99,-321.75 854.5,-315 875.45,-303.69 895.42,-284.77 908.08,-271.41"/>
<polygon fill="#000000" fill-opacity="0.200000" stroke="#000000" stroke-width="2" stroke-opacity="0.200000" points="909.47,-272.83 911.99,-267 906.38,-269.99 909.47,-272.83"/>
</g>
<!-- src/welcomeScreen.js&#45;&gt;src/boardSetUp.js -->
<g id="edge38" class="edge">
<title>src/welcomeScreen.js&#45;&gt;src/boardSetUp.js</title>
<path fill="none" stroke="#000000" stroke-width="2" stroke-opacity="0.200000" d="M162.94,-98.18C166.81,-99.84 170.59,-101.77 174,-104 189.17,-113.9 202.73,-129.55 211.77,-141.45"/>
<polygon fill="#000000" fill-opacity="0.200000" stroke="#000000" stroke-width="2" stroke-opacity="0.200000" points="210.78,-143.04 216.02,-146.64 214.17,-140.56 210.78,-143.04"/>
</g>
<!-- src/wichFactory.test.js -->
<g id="node20" class="node">
<title>src/wichFactory.test.js</title>
<g id="a_node20"><a xlink:href="src/wichFactory.test.js" xlink:title="wichFactory.test.js">
<path fill="#ffffcc" stroke="black" d="M761.83,-279.88C761.83,-279.88 683.42,-279.88 683.42,-279.88 680.46,-279.88 677.5,-276.92 677.5,-273.96 677.5,-273.96 677.5,-268.04 677.5,-268.04 677.5,-265.08 680.46,-262.12 683.42,-262.12 683.42,-262.12 761.83,-262.12 761.83,-262.12 764.79,-262.12 767.75,-265.08 767.75,-268.04 767.75,-268.04 767.75,-273.96 767.75,-273.96 767.75,-276.92 764.79,-279.88 761.83,-279.88"/>
<text text-anchor="start" x="685.5" y="-267.32" font-family="Helvetica,sans-Serif" font-size="9.00">wichFactory.test.js</text>
</a>
</g>
</g>
<!-- src/wichFactory.test.js&#45;&gt;src/wichFactory.js -->
<g id="edge41" class="edge">
<title>src/wichFactory.test.js&#45;&gt;src/wichFactory.js</title>
<path fill="none" stroke="#000000" stroke-width="2" stroke-opacity="0.200000" d="M768.22,-269.08C769.37,-269.03 770.53,-268.98 771.68,-268.93"/>
<polygon fill="#000000" fill-opacity="0.200000" stroke="#000000" stroke-width="2" stroke-opacity="0.200000" points="771.55,-270.91 777.46,-268.56 771.37,-266.72 771.55,-270.91"/>
</g>
</g>
</svg>
