<?xml version="1.0" encoding="UTF-8" standalone="no"?>
<!DOCTYPE svg PUBLIC "-//W3C//DTD SVG 1.1//EN"
 "http://www.w3.org/Graphics/SVG/1.1/DTD/svg11.dtd">
<!-- Generated by graphviz version 8.1.0 (20230707.0739)
 -->
<!-- Title: dependency&#45;cruiser output Pages: 1 -->
<svg width="557pt" height="196pt"
 viewBox="0.00 0.00 556.75 196.00" xmlns="http://www.w3.org/2000/svg" xmlns:xlink="http://www.w3.org/1999/xlink">
<g id="graph0" class="graph" transform="scale(1 1) rotate(0) translate(4 192)">
<title>dependency&#45;cruiser output</title>
<polygon fill="white" stroke="none" points="-4,4 -4,-192 552.75,-192 552.75,4 -4,4"/>
<g id="clust1" class="cluster">
<title>cluster_src</title>
<path fill="#ffffff" stroke="black" stroke-width="2" d="M20,-8C20,-8 528.75,-8 528.75,-8 534.75,-8 540.75,-14 540.75,-20 540.75,-20 540.75,-168 540.75,-168 540.75,-174 534.75,-180 528.75,-180 528.75,-180 20,-180 20,-180 14,-180 8,-174 8,-168 8,-168 8,-20 8,-20 8,-14 14,-8 20,-8"/>
<text text-anchor="middle" x="274.38" y="-167.45" font-family="Helvetica,sans-Serif" font-weight="bold" font-size="9.00">src</text>
</g>
<!-- src/Gameboard.js -->
<g id="node1" class="node">
<title>src/Gameboard.js</title>
<g id="a_node1"><a xlink:href="src/Gameboard.js" xlink:title="Gameboard.js">
<path fill="#ffffcc" stroke="black" d="M195.33,-77.88C195.33,-77.88 133.42,-77.88 133.42,-77.88 130.46,-77.88 127.5,-74.92 127.5,-71.96 127.5,-71.96 127.5,-66.04 127.5,-66.04 127.5,-63.08 130.46,-60.12 133.42,-60.12 133.42,-60.12 195.33,-60.12 195.33,-60.12 198.29,-60.12 201.25,-63.08 201.25,-66.04 201.25,-66.04 201.25,-71.96 201.25,-71.96 201.25,-74.92 198.29,-77.88 195.33,-77.88"/>
<text text-anchor="start" x="135.5" y="-65.33" font-family="Helvetica,sans-Serif" font-size="9.00">Gameboard.js</text>
</a>
</g>
</g>
<!-- src/renderBoard.js -->
<g id="node2" class="node">
<title>src/renderBoard.js</title>
<g id="a_node2"><a xlink:href="src/renderBoard.js" xlink:title="renderBoard.js">
<path fill="#ffffcc" stroke="black" d="M293.33,-92.88C293.33,-92.88 228.42,-92.88 228.42,-92.88 225.46,-92.88 222.5,-89.92 222.5,-86.96 222.5,-86.96 222.5,-81.04 222.5,-81.04 222.5,-78.08 225.46,-75.12 228.42,-75.12 228.42,-75.12 293.33,-75.12 293.33,-75.12 296.29,-75.12 299.25,-78.08 299.25,-81.04 299.25,-81.04 299.25,-86.96 299.25,-86.96 299.25,-89.92 296.29,-92.88 293.33,-92.88"/>
<text text-anchor="start" x="230.5" y="-80.33" font-family="Helvetica,sans-Serif" font-size="9.00">renderBoard.js</text>
</a>
</g>
</g>
<!-- src/Gameboard.js&#45;&gt;src/renderBoard.js -->
<g id="edge1" class="edge">
<title>src/Gameboard.js&#45;&gt;src/renderBoard.js</title>
<g id="a_edge1"><a xlink:title="no&#45;circular">
<path fill="none" stroke="orange" stroke-width="2" d="M201.64,-74.76C205.55,-75.38 209.57,-76.02 213.58,-76.65"/>
<polygon fill="none" stroke="orange" stroke-width="2" points="214.04,-79.17 220.3,-78.04 214.7,-75.02 214.04,-79.17"/>
</a>
</g>
<text text-anchor="middle" x="233.83" y="-67.86" font-family="Helvetica,sans-Serif" font-size="9.00" fill="orange">no&#45;circular</text>
</g>
<!-- src/updateDomMessage.js -->
<g id="node3" class="node">
<title>src/updateDomMessage.js</title>
<g id="a_node3"><a xlink:href="src/updateDomMessage.js" xlink:title="updateDomMessage.js">
<path fill="#ffffcc" stroke="black" d="M416.83,-41.88C416.83,-41.88 318.17,-41.88 318.17,-41.88 315.21,-41.88 312.25,-38.92 312.25,-35.96 312.25,-35.96 312.25,-30.04 312.25,-30.04 312.25,-27.08 315.21,-24.12 318.17,-24.12 318.17,-24.12 416.83,-24.12 416.83,-24.12 419.79,-24.12 422.75,-27.08 422.75,-30.04 422.75,-30.04 422.75,-35.96 422.75,-35.96 422.75,-38.92 419.79,-41.88 416.83,-41.88"/>
<text text-anchor="start" x="320.25" y="-29.32" font-family="Helvetica,sans-Serif" font-size="9.00">updateDomMessage.js</text>
</a>
</g>
</g>
<!-- src/Gameboard.js&#45;&gt;src/updateDomMessage.js -->
<g id="edge2" class="edge">
<title>src/Gameboard.js&#45;&gt;src/updateDomMessage.js</title>
<path fill="none" stroke="#000000" stroke-width="2" stroke-opacity="0.200000" d="M201.62,-61.92C208.55,-60.59 215.74,-59.24 222.5,-58 248.85,-53.18 277.95,-48.08 303.05,-43.76"/>
<polygon fill="#000000" fill-opacity="0.200000" stroke="#000000" stroke-width="2" stroke-opacity="0.200000" points="304.2,-45.35 309.75,-42.26 303.49,-41.21 304.2,-45.35"/>
</g>
<!-- src/wichFactory.js -->
<g id="node4" class="node">
<title>src/wichFactory.js</title>
<g id="a_node4"><a xlink:href="src/wichFactory.js" xlink:title="wichFactory.js">
<path fill="#ffffcc" stroke="black" d="M291.83,-34.88C291.83,-34.88 229.92,-34.88 229.92,-34.88 226.96,-34.88 224,-31.92 224,-28.96 224,-28.96 224,-23.04 224,-23.04 224,-20.08 226.96,-17.12 229.92,-17.12 229.92,-17.12 291.83,-17.12 291.83,-17.12 294.79,-17.12 297.75,-20.08 297.75,-23.04 297.75,-23.04 297.75,-28.96 297.75,-28.96 297.75,-31.92 294.79,-34.88 291.83,-34.88"/>
<text text-anchor="start" x="232" y="-22.32" font-family="Helvetica,sans-Serif" font-size="9.00">wichFactory.js</text>
</a>
</g>
</g>
<!-- src/Gameboard.js&#45;&gt;src/wichFactory.js -->
<g id="edge3" class="edge">
<title>src/Gameboard.js&#45;&gt;src/wichFactory.js</title>
<path fill="none" stroke="#000000" stroke-width="2" stroke-opacity="0.200000" d="M189.39,-59.74C195.97,-57.06 203.06,-54.03 209.5,-51 215.44,-48.2 216.65,-46.98 222.5,-44 225.59,-42.43 228.84,-40.81 232.07,-39.22"/>
<polygon fill="#000000" fill-opacity="0.200000" stroke="#000000" stroke-width="2" stroke-opacity="0.200000" points="233.53,-40.87 238.01,-36.36 231.69,-37.1 233.53,-40.87"/>
</g>
<!-- src/index.js -->
<g id="node7" class="node">
<title>src/index.js</title>
<g id="a_node7"><a xlink:href="src/index.js" xlink:title="index.js">
<path fill="#ffffcc" stroke="black" d="M388.58,-92.88C388.58,-92.88 346.42,-92.88 346.42,-92.88 343.46,-92.88 340.5,-89.92 340.5,-86.96 340.5,-86.96 340.5,-81.04 340.5,-81.04 340.5,-78.08 343.46,-75.12 346.42,-75.12 346.42,-75.12 388.58,-75.12 388.58,-75.12 391.54,-75.12 394.5,-78.08 394.5,-81.04 394.5,-81.04 394.5,-86.96 394.5,-86.96 394.5,-89.92 391.54,-92.88 388.58,-92.88"/>
<text text-anchor="start" x="351.75" y="-80.33" font-family="Helvetica,sans-Serif" font-size="9.00">index.js</text>
</a>
</g>
</g>
<!-- src/renderBoard.js&#45;&gt;src/index.js -->
<g id="edge15" class="edge">
<title>src/renderBoard.js&#45;&gt;src/index.js</title>
<g id="a_edge15"><a xlink:title="no&#45;circular">
<path fill="none" stroke="orange" stroke-width="2" d="M299.65,-79.66C310.06,-79.43 321.31,-79.45 331.55,-79.73"/>
<polygon fill="none" stroke="orange" stroke-width="2" points="331.18,-81.92 337.25,-80.04 331.33,-77.73 331.18,-81.92"/>
</a>
</g>
<text text-anchor="middle" x="298.45" y="-70.98" font-family="Helvetica,sans-Serif" font-size="9.00" fill="orange">no&#45;circular</text>
</g>
<!-- src/wichFactory.js&#45;&gt;src/updateDomMessage.js -->
<g id="edge16" class="edge">
<title>src/wichFactory.js&#45;&gt;src/updateDomMessage.js</title>
<path fill="none" stroke="#000000" stroke-width="2" stroke-opacity="0.200000" d="M298.17,-28.43C299.86,-28.54 301.56,-28.66 303.29,-28.77"/>
<polygon fill="#000000" fill-opacity="0.200000" stroke="#000000" stroke-width="2" stroke-opacity="0.200000" points="302.87,-31.05 309,-29.35 303.16,-26.86 302.87,-31.05"/>
</g>
<!-- src/Gameboard.test.js -->
<g id="node5" class="node">
<title>src/Gameboard.test.js</title>
<g id="a_node5"><a xlink:href="src/Gameboard.test.js" xlink:title="Gameboard.test.js">
<path fill="#ffffcc" stroke="black" d="M100.33,-66.88C100.33,-66.88 21.92,-66.88 21.92,-66.88 18.96,-66.88 16,-63.92 16,-60.96 16,-60.96 16,-55.04 16,-55.04 16,-52.08 18.96,-49.12 21.92,-49.12 21.92,-49.12 100.33,-49.12 100.33,-49.12 103.29,-49.12 106.25,-52.08 106.25,-55.04 106.25,-55.04 106.25,-60.96 106.25,-60.96 106.25,-63.92 103.29,-66.88 100.33,-66.88"/>
<text text-anchor="start" x="24" y="-54.33" font-family="Helvetica,sans-Serif" font-size="9.00">Gameboard.test.js</text>
</a>
</g>
</g>
<!-- src/Gameboard.test.js&#45;&gt;src/Gameboard.js -->
<g id="edge4" class="edge">
<title>src/Gameboard.test.js&#45;&gt;src/Gameboard.js</title>
<path fill="none" stroke="#000000" stroke-width="2" stroke-opacity="0.200000" d="M106.53,-62.82C110.53,-63.26 114.57,-63.7 118.57,-64.13"/>
<polygon fill="#000000" fill-opacity="0.200000" stroke="#000000" stroke-width="2" stroke-opacity="0.200000" points="118.01,-66.51 124.2,-65.07 118.46,-62.33 118.01,-66.51"/>
</g>
<!-- src/Gameboard.test.js&#45;&gt;src/wichFactory.js -->
<g id="edge5" class="edge">
<title>src/Gameboard.test.js&#45;&gt;src/wichFactory.js</title>
<path fill="none" stroke="#000000" stroke-width="2" stroke-opacity="0.200000" d="M106.57,-54.32C135.96,-51.46 175.24,-46.81 209.5,-40 213.11,-39.28 216.83,-38.44 220.55,-37.54"/>
<polygon fill="#000000" fill-opacity="0.200000" stroke="#000000" stroke-width="2" stroke-opacity="0.200000" points="221.86,-38.85 227.15,-35.33 220.81,-34.79 221.86,-38.85"/>
</g>
<!-- src/Player.js -->
<g id="node6" class="node">
<title>src/Player.js</title>
<g id="a_node6"><a xlink:href="src/Player.js" xlink:title="Player.js">
<path fill="#ffffcc" stroke="black" d="M505.33,-33.88C505.33,-33.88 463.17,-33.88 463.17,-33.88 460.21,-33.88 457.25,-30.92 457.25,-27.96 457.25,-27.96 457.25,-22.04 457.25,-22.04 457.25,-19.08 460.21,-16.12 463.17,-16.12 463.17,-16.12 505.33,-16.12 505.33,-16.12 508.29,-16.12 511.25,-19.08 511.25,-22.04 511.25,-22.04 511.25,-27.96 511.25,-27.96 511.25,-30.92 508.29,-33.88 505.33,-33.88"/>
<text text-anchor="start" x="466.62" y="-21.32" font-family="Helvetica,sans-Serif" font-size="9.00">Player.js</text>
</a>
</g>
</g>
<!-- src/Player.js&#45;&gt;src/Gameboard.js -->
<g id="edge7" class="edge">
<title>src/Player.js&#45;&gt;src/Gameboard.js</title>
<g id="a_edge7"><a xlink:title="no&#45;circular">
<path fill="none" stroke="orange" stroke-width="2" d="M457.18,-31.97C450.09,-34.2 442.51,-36.91 435.75,-40 429.58,-42.82 429.2,-45.89 422.75,-48 384.58,-60.5 273.75,-65.79 210.67,-67.84"/>
<polygon fill="none" stroke="orange" stroke-width="2" points="210.66,-65.83 204.73,-68.12 210.79,-70.03 210.66,-65.83"/>
</a>
</g>
<text text-anchor="middle" x="308.55" y="-52.95" font-family="Helvetica,sans-Serif" font-size="9.00" fill="orange">no&#45;circular</text>
</g>
<!-- src/Player.js&#45;&gt;src/index.js -->
<g id="edge6" class="edge">
<title>src/Player.js&#45;&gt;src/index.js</title>
<g id="a_edge6"><a xlink:title="no&#45;circular">
<path fill="none" stroke="orange" stroke-width="2" d="M459.16,-34.31C451.01,-36.87 442.33,-40.39 435.75,-46 425.92,-54.39 432.52,-63.54 422.75,-72 417.14,-76.86 410.18,-80.41 403.14,-82.86"/>
<polygon fill="none" stroke="orange" stroke-width="2" points="402.09,-81.56 396.91,-85.24 403.26,-85.59 402.09,-81.56"/>
</a>
</g>
<text text-anchor="middle" x="407.25" y="-51.66" font-family="Helvetica,sans-Serif" font-size="9.00" fill="orange">no&#45;circular</text>
</g>
<!-- src/index.js&#45;&gt;src/renderBoard.js -->
<g id="edge13" class="edge">
<title>src/index.js&#45;&gt;src/renderBoard.js</title>
<g id="a_edge13"><a xlink:title="no&#45;circular">
<path fill="none" stroke="orange" stroke-width="2" d="M340.25,-87.96C330.65,-88.39 319.49,-88.57 308.64,-88.48"/>
<polygon fill="none" stroke="orange" stroke-width="2" points="308.68,-86.33 302.65,-88.34 308.61,-90.53 308.68,-86.33"/>
</a>
</g>
<text text-anchor="middle" x="298.11" y="-89.68" font-family="Helvetica,sans-Serif" font-size="9.00" fill="orange">no&#45;circular</text>
</g>
<!-- src/index.js&#45;&gt;src/Player.js -->
<g id="edge12" class="edge">
<title>src/index.js&#45;&gt;src/Player.js</title>
<g id="a_edge12"><a xlink:title="no&#45;circular">
<path fill="none" stroke="orange" stroke-width="2" d="M392.98,-74.65C403.12,-71.55 414.42,-67.21 422.75,-60 432.52,-51.54 425.92,-42.39 435.75,-34 439.53,-30.77 444.01,-28.24 448.68,-26.32"/>
<polygon fill="none" stroke="orange" stroke-width="2" points="450.16,-27.38 455.2,-23.5 448.84,-23.39 450.16,-27.38"/>
</a>
</g>
<text text-anchor="middle" x="406.91" y="-41.31" font-family="Helvetica,sans-Serif" font-size="9.00" fill="orange">no&#45;circular</text>
</g>
<!-- src/dom.js -->
<g id="node8" class="node">
<title>src/dom.js</title>
<g id="a_node8"><a xlink:href="src/dom.js" xlink:title="dom.js">
<path fill="#ffffcc" stroke="black" d="M505.33,-153.88C505.33,-153.88 463.17,-153.88 463.17,-153.88 460.21,-153.88 457.25,-150.92 457.25,-147.96 457.25,-147.96 457.25,-142.04 457.25,-142.04 457.25,-139.08 460.21,-136.12 463.17,-136.12 463.17,-136.12 505.33,-136.12 505.33,-136.12 508.29,-136.12 511.25,-139.08 511.25,-142.04 511.25,-142.04 511.25,-147.96 511.25,-147.96 511.25,-150.92 508.29,-153.88 505.33,-153.88"/>
<text text-anchor="start" x="470.75" y="-141.32" font-family="Helvetica,sans-Serif" font-size="9.00">dom.js</text>
</a>
</g>
</g>
<!-- src/index.js&#45;&gt;src/dom.js -->
<g id="edge9" class="edge">
<title>src/index.js&#45;&gt;src/dom.js</title>
<path fill="none" stroke="#000000" stroke-width="2" stroke-opacity="0.200000" d="M379.76,-93.25C392.63,-103.43 414.64,-119.73 435.75,-130 439.83,-131.98 444.22,-133.78 448.64,-135.39"/>
<polygon fill="#000000" fill-opacity="0.200000" stroke="#000000" stroke-width="2" stroke-opacity="0.200000" points="448.72,-138.31 455.08,-138.25 450.07,-134.33 448.72,-138.31"/>
</g>
<!-- src/gameLoopEvents.js -->
<g id="node9" class="node">
<title>src/gameLoopEvents.js</title>
<g id="a_node9"><a xlink:href="src/gameLoopEvents.js" xlink:title="gameLoopEvents.js">
<path fill="#ffffcc" stroke="black" d="M526.83,-63.88C526.83,-63.88 441.67,-63.88 441.67,-63.88 438.71,-63.88 435.75,-60.92 435.75,-57.96 435.75,-57.96 435.75,-52.04 435.75,-52.04 435.75,-49.08 438.71,-46.12 441.67,-46.12 441.67,-46.12 526.83,-46.12 526.83,-46.12 529.79,-46.12 532.75,-49.08 532.75,-52.04 532.75,-52.04 532.75,-57.96 532.75,-57.96 532.75,-60.92 529.79,-63.88 526.83,-63.88"/>
<text text-anchor="start" x="443.75" y="-51.33" font-family="Helvetica,sans-Serif" font-size="9.00">gameLoopEvents.js</text>
</a>
</g>
</g>
<!-- src/index.js&#45;&gt;src/gameLoopEvents.js -->
<g id="edge10" class="edge">
<title>src/index.js&#45;&gt;src/gameLoopEvents.js</title>
<g id="a_edge10"><a xlink:title="no&#45;circular">
<path fill="none" stroke="orange" stroke-width="2" d="M390.9,-74.69C401.18,-71.51 413.88,-68.02 426.54,-64.83"/>
<polygon fill="none" stroke="orange" stroke-width="2" points="427.95,-66.16 433.27,-62.68 426.94,-62.08 427.95,-66.16"/>
</a>
</g>
<text text-anchor="middle" x="434.74" y="-64.68" font-family="Helvetica,sans-Serif" font-size="9.00" fill="orange">no&#45;circular</text>
</g>
<!-- src/meyer&#45;reset.css -->
<g id="node10" class="node">
<title>src/meyer&#45;reset.css</title>
<g id="a_node10"><a xlink:href="src/meyer-reset.css" xlink:title="meyer&#45;reset.css">
<path fill="#ffffcc" stroke="black" d="M518.58,-93.88C518.58,-93.88 449.92,-93.88 449.92,-93.88 446.96,-93.88 444,-90.92 444,-87.96 444,-87.96 444,-82.04 444,-82.04 444,-79.08 446.96,-76.12 449.92,-76.12 449.92,-76.12 518.58,-76.12 518.58,-76.12 521.54,-76.12 524.5,-79.08 524.5,-82.04 524.5,-82.04 524.5,-87.96 524.5,-87.96 524.5,-90.92 521.54,-93.88 518.58,-93.88"/>
<text text-anchor="start" x="452" y="-81.33" font-family="Helvetica,sans-Serif" font-size="9.00">meyer&#45;reset.css</text>
</a>
</g>
</g>
<!-- src/index.js&#45;&gt;src/meyer&#45;reset.css -->
<g id="edge11" class="edge">
<title>src/index.js&#45;&gt;src/meyer&#45;reset.css</title>
<path fill="none" stroke="#000000" stroke-width="2" stroke-opacity="0.200000" d="M394.83,-84.23C406.66,-84.33 421.01,-84.46 434.68,-84.58"/>
<polygon fill="#000000" fill-opacity="0.200000" stroke="#000000" stroke-width="2" stroke-opacity="0.200000" points="434.52,-86.7 440.53,-84.65 434.55,-82.5 434.52,-86.7"/>
</g>
<!-- src/style.css -->
<g id="node11" class="node">
<title>src/style.css</title>
<g id="a_node11"><a xlink:href="src/style.css" xlink:title="style.css">
<path fill="#ffffcc" stroke="black" d="M505.33,-123.88C505.33,-123.88 463.17,-123.88 463.17,-123.88 460.21,-123.88 457.25,-120.92 457.25,-117.96 457.25,-117.96 457.25,-112.04 457.25,-112.04 457.25,-109.08 460.21,-106.12 463.17,-106.12 463.17,-106.12 505.33,-106.12 505.33,-106.12 508.29,-106.12 511.25,-109.08 511.25,-112.04 511.25,-112.04 511.25,-117.96 511.25,-117.96 511.25,-120.92 508.29,-123.88 505.33,-123.88"/>
<text text-anchor="start" x="467" y="-111.33" font-family="Helvetica,sans-Serif" font-size="9.00">style.css</text>
</a>
</g>
</g>
<!-- src/index.js&#45;&gt;src/style.css -->
<g id="edge14" class="edge">
<title>src/index.js&#45;&gt;src/style.css</title>
<path fill="none" stroke="#000000" stroke-width="2" stroke-opacity="0.200000" d="M394.83,-91.11C410.72,-95.4 431.15,-100.93 448.37,-105.58"/>
<polygon fill="#000000" fill-opacity="0.200000" stroke="#000000" stroke-width="2" stroke-opacity="0.200000" points="448.71,-108.38 455.05,-107.92 449.8,-104.33 448.71,-108.38"/>
</g>
<!-- src/gameLoopEvents.js&#45;&gt;src/index.js -->
<g id="edge8" class="edge">
<title>src/gameLoopEvents.js&#45;&gt;src/index.js</title>
<g id="a_edge8"><a xlink:title="no&#45;circular">
<path fill="none" stroke="orange" stroke-width="2" d="M460.91,-64.3C444.57,-69.34 422.08,-75.2 403.39,-79.36"/>
<polygon fill="none" stroke="orange" stroke-width="2" points="402.25,-77.89 396.83,-81.2 403.13,-81.99 402.25,-77.89"/>
</a>
</g>
<text text-anchor="middle" x="406.11" y="-74.7" font-family="Helvetica,sans-Serif" font-size="9.00" fill="orange">no&#45;circular</text>
</g>
<!-- src/wichFactory.test.js -->
<g id="node12" class="node">
<title>src/wichFactory.test.js</title>
<g id="a_node12"><a xlink:href="src/wichFactory.test.js" xlink:title="wichFactory.test.js">
<path fill="#ffffcc" stroke="black" d="M203.58,-33.88C203.58,-33.88 125.17,-33.88 125.17,-33.88 122.21,-33.88 119.25,-30.92 119.25,-27.96 119.25,-27.96 119.25,-22.04 119.25,-22.04 119.25,-19.08 122.21,-16.12 125.17,-16.12 125.17,-16.12 203.58,-16.12 203.58,-16.12 206.54,-16.12 209.5,-19.08 209.5,-22.04 209.5,-22.04 209.5,-27.96 209.5,-27.96 209.5,-30.92 206.54,-33.88 203.58,-33.88"/>
<text text-anchor="start" x="127.25" y="-21.32" font-family="Helvetica,sans-Serif" font-size="9.00">wichFactory.test.js</text>
</a>
</g>
</g>
<!-- src/wichFactory.test.js&#45;&gt;src/wichFactory.js -->
<g id="edge17" class="edge">
<title>src/wichFactory.test.js&#45;&gt;src/wichFactory.js</title>
<path fill="none" stroke="#000000" stroke-width="2" stroke-opacity="0.200000" d="M209.86,-25.47C211.44,-25.49 213.02,-25.5 214.6,-25.52"/>
<polygon fill="#000000" fill-opacity="0.200000" stroke="#000000" stroke-width="2" stroke-opacity="0.200000" points="214.55,-27.65 220.58,-25.62 214.6,-23.45 214.55,-27.65"/>
</g>
</g>
</svg>
