<?xml version="1.0" encoding="UTF-8" standalone="no"?>
<!DOCTYPE svg PUBLIC "-//W3C//DTD SVG 1.1//EN"
 "http://www.w3.org/Graphics/SVG/1.1/DTD/svg11.dtd">
<!-- Generated by graphviz version 8.1.0 (20230707.0739)
 -->
<!-- Title: dependency&#45;cruiser output Pages: 1 -->
<svg width="621pt" height="240pt"
 viewBox="0.00 0.00 620.75 240.00" xmlns="http://www.w3.org/2000/svg" xmlns:xlink="http://www.w3.org/1999/xlink">
<g id="graph0" class="graph" transform="scale(1 1) rotate(0) translate(4 236)">
<title>dependency&#45;cruiser output</title>
<polygon fill="white" stroke="none" points="-4,4 -4,-236 616.75,-236 616.75,4 -4,4"/>
<g id="clust1" class="cluster">
<title>cluster_src</title>
<path fill="#ffffff" stroke="black" stroke-width="2" d="M20,-8C20,-8 592.75,-8 592.75,-8 598.75,-8 604.75,-14 604.75,-20 604.75,-20 604.75,-212 604.75,-212 604.75,-218 598.75,-224 592.75,-224 592.75,-224 20,-224 20,-224 14,-224 8,-218 8,-212 8,-212 8,-20 8,-20 8,-14 14,-8 20,-8"/>
<text text-anchor="middle" x="306.38" y="-211.45" font-family="Helvetica,sans-Serif" font-weight="bold" font-size="9.00">src</text>
</g>
<!-- src/Gameboard.js -->
<g id="node1" class="node">
<title>src/Gameboard.js</title>
<g id="a_node1"><a xlink:href="src/Gameboard.js" xlink:title="Gameboard.js">
<path fill="#ffffcc" stroke="black" d="M187.08,-104.88C187.08,-104.88 125.17,-104.88 125.17,-104.88 122.21,-104.88 119.25,-101.92 119.25,-98.96 119.25,-98.96 119.25,-93.04 119.25,-93.04 119.25,-90.08 122.21,-87.12 125.17,-87.12 125.17,-87.12 187.08,-87.12 187.08,-87.12 190.04,-87.12 193,-90.08 193,-93.04 193,-93.04 193,-98.96 193,-98.96 193,-101.92 190.04,-104.88 187.08,-104.88"/>
<text text-anchor="start" x="127.25" y="-92.33" font-family="Helvetica,sans-Serif" font-size="9.00">Gameboard.js</text>
</a>
</g>
</g>
<!-- src/Player.js -->
<g id="node2" class="node">
<title>src/Player.js</title>
<g id="a_node2"><a xlink:href="src/Player.js" xlink:title="Player.js">
<path fill="#ffffcc" stroke="black" d="M254.08,-133.88C254.08,-133.88 211.92,-133.88 211.92,-133.88 208.96,-133.88 206,-130.92 206,-127.96 206,-127.96 206,-122.04 206,-122.04 206,-119.08 208.96,-116.12 211.92,-116.12 211.92,-116.12 254.08,-116.12 254.08,-116.12 257.04,-116.12 260,-119.08 260,-122.04 260,-122.04 260,-127.96 260,-127.96 260,-130.92 257.04,-133.88 254.08,-133.88"/>
<text text-anchor="start" x="215.38" y="-121.33" font-family="Helvetica,sans-Serif" font-size="9.00">Player.js</text>
</a>
</g>
</g>
<!-- src/Gameboard.js&#45;&gt;src/Player.js -->
<g id="edge1" class="edge">
<title>src/Gameboard.js&#45;&gt;src/Player.js</title>
<g id="a_edge1"><a xlink:title="no&#45;circular">
<path fill="none" stroke="orange" stroke-width="2" d="M192.81,-105.32C198.54,-107.52 204.33,-109.87 209.64,-112.18"/>
<polygon fill="none" stroke="orange" stroke-width="2" points="209.16,-114.18 215.5,-114.74 210.9,-110.35 209.16,-114.18"/>
</a>
</g>
<text text-anchor="middle" x="226.81" y="-101.68" font-family="Helvetica,sans-Serif" font-size="9.00" fill="orange">no&#45;circular</text>
</g>
<!-- src/renderBoard.js -->
<g id="node3" class="node">
<title>src/renderBoard.js</title>
<g id="a_node3"><a xlink:href="src/renderBoard.js" xlink:title="renderBoard.js">
<path fill="#ffffcc" stroke="black" d="M457.21,-77.88C457.21,-77.88 392.29,-77.88 392.29,-77.88 389.33,-77.88 386.38,-74.92 386.38,-71.96 386.38,-71.96 386.38,-66.04 386.38,-66.04 386.38,-63.08 389.33,-60.12 392.29,-60.12 392.29,-60.12 457.21,-60.12 457.21,-60.12 460.17,-60.12 463.12,-63.08 463.12,-66.04 463.12,-66.04 463.12,-71.96 463.12,-71.96 463.12,-74.92 460.17,-77.88 457.21,-77.88"/>
<text text-anchor="start" x="394.38" y="-65.33" font-family="Helvetica,sans-Serif" font-size="9.00">renderBoard.js</text>
</a>
</g>
</g>
<!-- src/Gameboard.js&#45;&gt;src/renderBoard.js -->
<g id="edge2" class="edge">
<title>src/Gameboard.js&#45;&gt;src/renderBoard.js</title>
<g id="a_edge2"><a xlink:title="no&#45;circular">
<path fill="none" stroke="orange" stroke-width="2" d="M193.33,-93.91C234.57,-91.32 303.92,-86.34 363.25,-79 367.87,-78.43 372.68,-77.76 377.48,-77.04"/>
<polygon fill="none" stroke="orange" stroke-width="2" points="378.45,-78.71 384.06,-75.72 377.81,-74.56 378.45,-78.71"/>
</a>
</g>
<text text-anchor="middle" x="268.22" y="-78.1" font-family="Helvetica,sans-Serif" font-size="9.00" fill="orange">no&#45;circular</text>
</g>
<!-- src/updateDomMessage.js -->
<g id="node4" class="node">
<title>src/updateDomMessage.js</title>
<g id="a_node4"><a xlink:href="src/updateDomMessage.js" xlink:title="updateDomMessage.js">
<path fill="#ffffcc" stroke="black" d="M590.83,-44.88C590.83,-44.88 492.17,-44.88 492.17,-44.88 489.21,-44.88 486.25,-41.92 486.25,-38.96 486.25,-38.96 486.25,-33.04 486.25,-33.04 486.25,-30.08 489.21,-27.12 492.17,-27.12 492.17,-27.12 590.83,-27.12 590.83,-27.12 593.79,-27.12 596.75,-30.08 596.75,-33.04 596.75,-33.04 596.75,-38.96 596.75,-38.96 596.75,-41.92 593.79,-44.88 590.83,-44.88"/>
<text text-anchor="start" x="494.25" y="-32.33" font-family="Helvetica,sans-Serif" font-size="9.00">updateDomMessage.js</text>
</a>
</g>
</g>
<!-- src/Gameboard.js&#45;&gt;src/updateDomMessage.js -->
<g id="edge3" class="edge">
<title>src/Gameboard.js&#45;&gt;src/updateDomMessage.js</title>
<path fill="none" stroke="#000000" stroke-width="2" stroke-opacity="0.200000" d="M193.39,-88.42C197.64,-87.58 201.91,-86.76 206,-86 275.66,-73.12 295.54,-80.81 363.25,-60 369.33,-58.13 370.12,-55.7 376.25,-54 394.88,-48.83 439.43,-44.11 477.44,-40.81"/>
<polygon fill="#000000" fill-opacity="0.200000" stroke="#000000" stroke-width="2" stroke-opacity="0.200000" points="477.14,-42.68 482.94,-40.08 476.79,-38.5 477.14,-42.68"/>
</g>
<!-- src/wichFactory.js -->
<g id="node5" class="node">
<title>src/wichFactory.js</title>
<g id="a_node5"><a xlink:href="src/wichFactory.js" xlink:title="wichFactory.js">
<path fill="#ffffcc" stroke="black" d="M455.71,-33.88C455.71,-33.88 393.79,-33.88 393.79,-33.88 390.83,-33.88 387.88,-30.92 387.88,-27.96 387.88,-27.96 387.88,-22.04 387.88,-22.04 387.88,-19.08 390.83,-16.12 393.79,-16.12 393.79,-16.12 455.71,-16.12 455.71,-16.12 458.67,-16.12 461.62,-19.08 461.62,-22.04 461.62,-22.04 461.62,-27.96 461.62,-27.96 461.62,-30.92 458.67,-33.88 455.71,-33.88"/>
<text text-anchor="start" x="395.88" y="-21.32" font-family="Helvetica,sans-Serif" font-size="9.00">wichFactory.js</text>
</a>
</g>
</g>
<!-- src/Gameboard.js&#45;&gt;src/wichFactory.js -->
<g id="edge4" class="edge">
<title>src/Gameboard.js&#45;&gt;src/wichFactory.js</title>
<path fill="none" stroke="#000000" stroke-width="2" stroke-opacity="0.200000" d="M171.96,-86.7C181.36,-81.24 193.98,-74.71 206,-71 273.31,-50.2 296.81,-74.43 363.25,-51 369.65,-48.74 370.16,-45.99 376.25,-43 380.2,-41.06 384.43,-39.18 388.66,-37.43"/>
<polygon fill="#000000" fill-opacity="0.200000" stroke="#000000" stroke-width="2" stroke-opacity="0.200000" points="389.94,-39.39 394.74,-35.22 388.39,-35.48 389.94,-39.39"/>
</g>
<!-- src/Player.js&#45;&gt;src/Gameboard.js -->
<g id="edge8" class="edge">
<title>src/Player.js&#45;&gt;src/Gameboard.js</title>
<g id="a_edge8"><a xlink:title="no&#45;circular">
<path fill="none" stroke="orange" stroke-width="2" d="M205.79,-119.16C197.26,-116.15 187.87,-112.46 179.64,-108.89"/>
<polygon fill="none" stroke="orange" stroke-width="2" points="179.89,-106.79 173.56,-106.23 178.16,-110.62 179.89,-106.79"/>
</a>
</g>
<text text-anchor="middle" x="166.71" y="-113.78" font-family="Helvetica,sans-Serif" font-size="9.00" fill="orange">no&#45;circular</text>
</g>
<!-- src/index.js -->
<g id="node7" class="node">
<title>src/index.js</title>
<g id="a_node7"><a xlink:href="src/index.js" xlink:title="index.js">
<path fill="#ffffcc" stroke="black" d="M339.21,-133.88C339.21,-133.88 297.04,-133.88 297.04,-133.88 294.08,-133.88 291.12,-130.92 291.12,-127.96 291.12,-127.96 291.12,-122.04 291.12,-122.04 291.12,-119.08 294.08,-116.12 297.04,-116.12 297.04,-116.12 339.21,-116.12 339.21,-116.12 342.17,-116.12 345.12,-119.08 345.12,-122.04 345.12,-122.04 345.12,-127.96 345.12,-127.96 345.12,-130.92 342.17,-133.88 339.21,-133.88"/>
<text text-anchor="start" x="302.38" y="-121.33" font-family="Helvetica,sans-Serif" font-size="9.00">index.js</text>
</a>
</g>
</g>
<!-- src/Player.js&#45;&gt;src/index.js -->
<g id="edge7" class="edge">
<title>src/Player.js&#45;&gt;src/index.js</title>
<g id="a_edge7"><a xlink:title="no&#45;circular">
<path fill="none" stroke="orange" stroke-width="2" d="M260.3,-120.78C267.12,-120.52 274.58,-120.44 281.79,-120.55"/>
<polygon fill="none" stroke="orange" stroke-width="2" points="281.66,-122.72 287.71,-120.78 281.77,-118.52 281.66,-122.72"/>
</a>
</g>
<text text-anchor="middle" x="253.92" y="-111.95" font-family="Helvetica,sans-Serif" font-size="9.00" fill="orange">no&#45;circular</text>
</g>
<!-- src/renderBoard.js&#45;&gt;src/index.js -->
<g id="edge19" class="edge">
<title>src/renderBoard.js&#45;&gt;src/index.js</title>
<g id="a_edge19"><a xlink:title="no&#45;circular">
<path fill="none" stroke="orange" stroke-width="2" d="M406.54,-78.34C397.28,-81.53 385.84,-85.2 376.25,-90 374.47,-90.89 359.71,-101.49 345.64,-110.9"/>
<polygon fill="none" stroke="orange" stroke-width="2" points="344.27,-109.6 340.41,-114.66 346.58,-113.11 344.27,-109.6"/>
</a>
</g>
<text text-anchor="middle" x="348.62" y="-95.12" font-family="Helvetica,sans-Serif" font-size="9.00" fill="orange">no&#45;circular</text>
</g>
<!-- src/wichFactory.js&#45;&gt;src/updateDomMessage.js -->
<g id="edge20" class="edge">
<title>src/wichFactory.js&#45;&gt;src/updateDomMessage.js</title>
<path fill="none" stroke="#000000" stroke-width="2" stroke-opacity="0.200000" d="M462.06,-28.48C466.94,-28.95 472.05,-29.44 477.23,-29.94"/>
<polygon fill="#000000" fill-opacity="0.200000" stroke="#000000" stroke-width="2" stroke-opacity="0.200000" points="476.81,-32.29 482.98,-30.77 477.21,-28.11 476.81,-32.29"/>
</g>
<!-- src/Gameboard.test.js -->
<g id="node6" class="node">
<title>src/Gameboard.test.js</title>
<g id="a_node6"><a xlink:href="src/Gameboard.test.js" xlink:title="Gameboard.test.js">
<path fill="#ffffcc" stroke="black" d="M100.33,-76.88C100.33,-76.88 21.92,-76.88 21.92,-76.88 18.96,-76.88 16,-73.92 16,-70.96 16,-70.96 16,-65.04 16,-65.04 16,-62.08 18.96,-59.12 21.92,-59.12 21.92,-59.12 100.33,-59.12 100.33,-59.12 103.29,-59.12 106.25,-62.08 106.25,-65.04 106.25,-65.04 106.25,-70.96 106.25,-70.96 106.25,-73.92 103.29,-76.88 100.33,-76.88"/>
<text text-anchor="start" x="24" y="-64.33" font-family="Helvetica,sans-Serif" font-size="9.00">Gameboard.test.js</text>
</a>
</g>
</g>
<!-- src/Gameboard.test.js&#45;&gt;src/Gameboard.js -->
<g id="edge5" class="edge">
<title>src/Gameboard.test.js&#45;&gt;src/Gameboard.js</title>
<path fill="none" stroke="#000000" stroke-width="2" stroke-opacity="0.200000" d="M93.09,-77.32C100.47,-79.54 108.43,-81.94 116.11,-84.25"/>
<polygon fill="#000000" fill-opacity="0.200000" stroke="#000000" stroke-width="2" stroke-opacity="0.200000" points="115.94,-87 122.29,-86.72 117.15,-82.98 115.94,-87"/>
</g>
<!-- src/Gameboard.test.js&#45;&gt;src/wichFactory.js -->
<g id="edge6" class="edge">
<title>src/Gameboard.test.js&#45;&gt;src/wichFactory.js</title>
<path fill="none" stroke="#000000" stroke-width="2" stroke-opacity="0.200000" d="M106.56,-64.69C177.96,-59.24 315.11,-48.16 363.25,-40 369.13,-39 375.28,-37.74 381.31,-36.37"/>
<polygon fill="#000000" fill-opacity="0.200000" stroke="#000000" stroke-width="2" stroke-opacity="0.200000" points="382.67,-37.74 388.02,-34.31 381.7,-33.65 382.67,-37.74"/>
</g>
<!-- src/index.js&#45;&gt;src/Gameboard.js -->
<g id="edge12" class="edge">
<title>src/index.js&#45;&gt;src/Gameboard.js</title>
<g id="a_edge12"><a xlink:title="no&#45;circular">
<path fill="none" stroke="orange" stroke-width="2" d="M294.66,-134.3C271.67,-142.4 235.26,-151.23 206,-140 191.42,-134.4 178.46,-122.22 169.56,-112.1"/>
<polygon fill="none" stroke="orange" stroke-width="2" points="170.28,-110.48 164.83,-107.21 167.05,-113.16 170.28,-110.48"/>
</a>
</g>
<text text-anchor="middle" x="184.24" y="-131.45" font-family="Helvetica,sans-Serif" font-size="9.00" fill="orange">no&#45;circular</text>
</g>
<!-- src/index.js&#45;&gt;src/Player.js -->
<g id="edge15" class="edge">
<title>src/index.js&#45;&gt;src/Player.js</title>
<g id="a_edge15"><a xlink:title="no&#45;circular">
<path fill="none" stroke="orange" stroke-width="2" d="M290.71,-129.22C283.88,-129.48 276.42,-129.56 269.22,-129.45"/>
<polygon fill="none" stroke="orange" stroke-width="2" points="269.35,-127.28 263.3,-129.22 269.24,-131.48 269.35,-127.28"/>
</a>
</g>
<text text-anchor="middle" x="253.58" y="-130.7" font-family="Helvetica,sans-Serif" font-size="9.00" fill="orange">no&#45;circular</text>
</g>
<!-- src/index.js&#45;&gt;src/renderBoard.js -->
<g id="edge16" class="edge">
<title>src/index.js&#45;&gt;src/renderBoard.js</title>
<g id="a_edge16"><a xlink:title="no&#45;circular">
<path fill="none" stroke="orange" stroke-width="2" d="M327.09,-115.79C342.16,-102.19 373.6,-79.33 376.25,-78 376.73,-77.76 377.22,-77.52 377.71,-77.28"/>
<polygon fill="none" stroke="orange" stroke-width="2" points="379.29,-79.03 383.97,-74.73 377.63,-75.17 379.29,-79.03"/>
</a>
</g>
<text text-anchor="middle" x="334.7" y="-83.65" font-family="Helvetica,sans-Serif" font-size="9.00" fill="orange">no&#45;circular</text>
</g>
<!-- src/index.js&#45;&gt;src/wichFactory.js -->
<g id="edge18" class="edge">
<title>src/index.js&#45;&gt;src/wichFactory.js</title>
<path fill="none" stroke="#000000" stroke-width="2" stroke-opacity="0.200000" d="M324.95,-115.87C334.44,-101.48 354.38,-73.21 376.25,-54 382.75,-48.29 390.52,-43.02 397.88,-38.59"/>
<polygon fill="#000000" fill-opacity="0.200000" stroke="#000000" stroke-width="2" stroke-opacity="0.200000" points="399.46,-39.94 403.61,-35.12 397.36,-36.31 399.46,-39.94"/>
</g>
<!-- src/dom.js -->
<g id="node8" class="node">
<title>src/dom.js</title>
<g id="a_node8"><a xlink:href="src/dom.js" xlink:title="dom.js">
<path fill="#ffffcc" stroke="black" d="M445.83,-167.88C445.83,-167.88 403.67,-167.88 403.67,-167.88 400.71,-167.88 397.75,-164.92 397.75,-161.96 397.75,-161.96 397.75,-156.04 397.75,-156.04 397.75,-153.08 400.71,-150.12 403.67,-150.12 403.67,-150.12 445.83,-150.12 445.83,-150.12 448.79,-150.12 451.75,-153.08 451.75,-156.04 451.75,-156.04 451.75,-161.96 451.75,-161.96 451.75,-164.92 448.79,-167.88 445.83,-167.88"/>
<text text-anchor="start" x="411.25" y="-155.32" font-family="Helvetica,sans-Serif" font-size="9.00">dom.js</text>
</a>
</g>
</g>
<!-- src/index.js&#45;&gt;src/dom.js -->
<g id="edge11" class="edge">
<title>src/index.js&#45;&gt;src/dom.js</title>
<path fill="none" stroke="#000000" stroke-width="2" stroke-opacity="0.200000" d="M345.55,-133.88C355.2,-137.1 366.21,-140.74 376.25,-144 380.46,-145.37 384.89,-146.78 389.27,-148.18"/>
<polygon fill="#000000" fill-opacity="0.200000" stroke="#000000" stroke-width="2" stroke-opacity="0.200000" points="389.24,-151.01 395.59,-150.82 390.51,-147 389.24,-151.01"/>
</g>
<!-- src/gameLoopEvents.js -->
<g id="node9" class="node">
<title>src/gameLoopEvents.js</title>
<g id="a_node9"><a xlink:href="src/gameLoopEvents.js" xlink:title="gameLoopEvents.js">
<path fill="#ffffcc" stroke="black" d="M467.33,-107.88C467.33,-107.88 382.17,-107.88 382.17,-107.88 379.21,-107.88 376.25,-104.92 376.25,-101.96 376.25,-101.96 376.25,-96.04 376.25,-96.04 376.25,-93.08 379.21,-90.12 382.17,-90.12 382.17,-90.12 467.33,-90.12 467.33,-90.12 470.29,-90.12 473.25,-93.08 473.25,-96.04 473.25,-96.04 473.25,-101.96 473.25,-101.96 473.25,-104.92 470.29,-107.88 467.33,-107.88"/>
<text text-anchor="start" x="384.25" y="-95.33" font-family="Helvetica,sans-Serif" font-size="9.00">gameLoopEvents.js</text>
</a>
</g>
</g>
<!-- src/index.js&#45;&gt;src/gameLoopEvents.js -->
<g id="edge13" class="edge">
<title>src/index.js&#45;&gt;src/gameLoopEvents.js</title>
<g id="a_edge13"><a xlink:title="no&#45;circular">
<path fill="none" stroke="orange" stroke-width="2" d="M341.57,-115.65C349.29,-113.31 358.32,-110.82 367.51,-108.49"/>
<polygon fill="none" stroke="orange" stroke-width="2" points="368.65,-109.87 373.97,-106.39 367.64,-105.8 368.65,-109.87"/>
</a>
</g>
<text text-anchor="middle" x="380.31" y="-112.02" font-family="Helvetica,sans-Serif" font-size="9.00" fill="orange">no&#45;circular</text>
</g>
<!-- src/meyer&#45;reset.css -->
<g id="node10" class="node">
<title>src/meyer&#45;reset.css</title>
<g id="a_node10"><a xlink:href="src/meyer-reset.css" xlink:title="meyer&#45;reset.css">
<path fill="#ffffcc" stroke="black" d="M459.08,-197.88C459.08,-197.88 390.42,-197.88 390.42,-197.88 387.46,-197.88 384.5,-194.92 384.5,-191.96 384.5,-191.96 384.5,-186.04 384.5,-186.04 384.5,-183.08 387.46,-180.12 390.42,-180.12 390.42,-180.12 459.08,-180.12 459.08,-180.12 462.04,-180.12 465,-183.08 465,-186.04 465,-186.04 465,-191.96 465,-191.96 465,-194.92 462.04,-197.88 459.08,-197.88"/>
<text text-anchor="start" x="392.5" y="-185.32" font-family="Helvetica,sans-Serif" font-size="9.00">meyer&#45;reset.css</text>
</a>
</g>
</g>
<!-- src/index.js&#45;&gt;src/meyer&#45;reset.css -->
<g id="edge14" class="edge">
<title>src/index.js&#45;&gt;src/meyer&#45;reset.css</title>
<path fill="none" stroke="#000000" stroke-width="2" stroke-opacity="0.200000" d="M327.56,-134.22C338.02,-145.14 356.84,-163.21 376.25,-174 377.58,-174.74 378.94,-175.44 380.34,-176.12"/>
<polygon fill="#000000" fill-opacity="0.200000" stroke="#000000" stroke-width="2" stroke-opacity="0.200000" points="380.23,-178.22 386.57,-178.67 381.89,-174.37 380.23,-178.22"/>
</g>
<!-- src/style.css -->
<g id="node11" class="node">
<title>src/style.css</title>
<g id="a_node11"><a xlink:href="src/style.css" xlink:title="style.css">
<path fill="#ffffcc" stroke="black" d="M445.83,-137.88C445.83,-137.88 403.67,-137.88 403.67,-137.88 400.71,-137.88 397.75,-134.92 397.75,-131.96 397.75,-131.96 397.75,-126.04 397.75,-126.04 397.75,-123.08 400.71,-120.12 403.67,-120.12 403.67,-120.12 445.83,-120.12 445.83,-120.12 448.79,-120.12 451.75,-123.08 451.75,-126.04 451.75,-126.04 451.75,-131.96 451.75,-131.96 451.75,-134.92 448.79,-137.88 445.83,-137.88"/>
<text text-anchor="start" x="407.5" y="-125.33" font-family="Helvetica,sans-Serif" font-size="9.00">style.css</text>
</a>
</g>
</g>
<!-- src/index.js&#45;&gt;src/style.css -->
<g id="edge17" class="edge">
<title>src/index.js&#45;&gt;src/style.css</title>
<path fill="none" stroke="#000000" stroke-width="2" stroke-opacity="0.200000" d="M345.53,-126.01C358.54,-126.51 374.41,-127.11 388.45,-127.65"/>
<polygon fill="#000000" fill-opacity="0.200000" stroke="#000000" stroke-width="2" stroke-opacity="0.200000" points="388.28,-129.86 394.36,-127.99 388.44,-125.66 388.28,-129.86"/>
</g>
<!-- src/gameLoopEvents.js&#45;&gt;src/Gameboard.js -->
<g id="edge9" class="edge">
<title>src/gameLoopEvents.js&#45;&gt;src/Gameboard.js</title>
<g id="a_edge9"><a xlink:title="no&#45;circular">
<path fill="none" stroke="orange" stroke-width="2" d="M375.87,-98.46C326.64,-97.91 250.55,-97.05 202.32,-96.51"/>
<polygon fill="none" stroke="orange" stroke-width="2" points="202.38,-94.38 196.36,-96.41 202.34,-98.58 202.38,-94.38"/>
</a>
</g>
<text text-anchor="middle" x="262.95" y="-88.89" font-family="Helvetica,sans-Serif" font-size="9.00" fill="orange">no&#45;circular</text>
</g>
<!-- src/gameLoopEvents.js&#45;&gt;src/index.js -->
<g id="edge10" class="edge">
<title>src/gameLoopEvents.js&#45;&gt;src/index.js</title>
<g id="a_edge10"><a xlink:title="no&#45;circular">
<path fill="none" stroke="orange" stroke-width="2" d="M401.26,-108.36C387.46,-112.55 369.51,-117.18 353.91,-120.62"/>
<polygon fill="none" stroke="orange" stroke-width="2" points="352.96,-119.1 347.53,-122.41 353.83,-123.21 352.96,-119.1"/>
</a>
</g>
<text text-anchor="middle" x="351.9" y="-107.4" font-family="Helvetica,sans-Serif" font-size="9.00" fill="orange">no&#45;circular</text>
</g>
<!-- src/wichFactory.test.js -->
<g id="node12" class="node">
<title>src/wichFactory.test.js</title>
<g id="a_node12"><a xlink:href="src/wichFactory.test.js" xlink:title="wichFactory.test.js">
<path fill="#ffffcc" stroke="black" d="M357.33,-33.88C357.33,-33.88 278.92,-33.88 278.92,-33.88 275.96,-33.88 273,-30.92 273,-27.96 273,-27.96 273,-22.04 273,-22.04 273,-19.08 275.96,-16.12 278.92,-16.12 278.92,-16.12 357.33,-16.12 357.33,-16.12 360.29,-16.12 363.25,-19.08 363.25,-22.04 363.25,-22.04 363.25,-27.96 363.25,-27.96 363.25,-30.92 360.29,-33.88 357.33,-33.88"/>
<text text-anchor="start" x="281" y="-21.32" font-family="Helvetica,sans-Serif" font-size="9.00">wichFactory.test.js</text>
</a>
</g>
</g>
<!-- src/wichFactory.test.js&#45;&gt;src/wichFactory.js -->
<g id="edge21" class="edge">
<title>src/wichFactory.test.js&#45;&gt;src/wichFactory.js</title>
<path fill="none" stroke="#000000" stroke-width="2" stroke-opacity="0.200000" d="M363.5,-25C368.51,-25 373.62,-25 378.64,-25"/>
<polygon fill="#000000" fill-opacity="0.200000" stroke="#000000" stroke-width="2" stroke-opacity="0.200000" points="378.54,-27.1 384.54,-25 378.54,-22.9 378.54,-27.1"/>
</g>
</g>
</svg>
