<?xml version="1.0" encoding="UTF-8" standalone="no"?>
<!DOCTYPE svg PUBLIC "-//W3C//DTD SVG 1.1//EN"
 "http://www.w3.org/Graphics/SVG/1.1/DTD/svg11.dtd">
<!-- Generated by graphviz version 8.1.0 (20230707.0739)
 -->
<!-- Title: dependency&#45;cruiser output Pages: 1 -->
<svg width="1002pt" height="392pt"
 viewBox="0.00 0.00 1002.00 392.00" xmlns="http://www.w3.org/2000/svg" xmlns:xlink="http://www.w3.org/1999/xlink">
<g id="graph0" class="graph" transform="scale(1 1) rotate(0) translate(4 388)">
<title>dependency&#45;cruiser output</title>
<polygon fill="white" stroke="none" points="-4,4 -4,-388 998,-388 998,4 -4,4"/>
<g id="clust1" class="cluster">
<title>cluster_src</title>
<path fill="#ffffff" stroke="black" stroke-width="2" d="M20,-8C20,-8 974,-8 974,-8 980,-8 986,-14 986,-20 986,-20 986,-364 986,-364 986,-370 980,-376 974,-376 974,-376 20,-376 20,-376 14,-376 8,-370 8,-364 8,-364 8,-20 8,-20 8,-14 14,-8 20,-8"/>
<text text-anchor="middle" x="497" y="-363.45" font-family="Helvetica,sans-Serif" font-weight="bold" font-size="9.00">src</text>
</g>
<!-- src/Gameboard.js -->
<g id="node1" class="node">
<title>src/Gameboard.js</title>
<g id="a_node1"><a xlink:href="src/Gameboard.js" xlink:title="Gameboard.js">
<path fill="#ffffcc" stroke="black" d="M753.58,-222.88C753.58,-222.88 691.67,-222.88 691.67,-222.88 688.71,-222.88 685.75,-219.92 685.75,-216.96 685.75,-216.96 685.75,-211.04 685.75,-211.04 685.75,-208.08 688.71,-205.12 691.67,-205.12 691.67,-205.12 753.58,-205.12 753.58,-205.12 756.54,-205.12 759.5,-208.08 759.5,-211.04 759.5,-211.04 759.5,-216.96 759.5,-216.96 759.5,-219.92 756.54,-222.88 753.58,-222.88"/>
<text text-anchor="start" x="693.75" y="-210.32" font-family="Helvetica,sans-Serif" font-size="9.00">Gameboard.js</text>
</a>
</g>
</g>
<!-- src/updateDomMessage.js -->
<g id="node2" class="node">
<title>src/updateDomMessage.js</title>
<g id="a_node2"><a xlink:href="src/updateDomMessage.js" xlink:title="updateDomMessage.js">
<path fill="#ffffcc" stroke="black" d="M972.08,-95.88C972.08,-95.88 873.42,-95.88 873.42,-95.88 870.46,-95.88 867.5,-92.92 867.5,-89.96 867.5,-89.96 867.5,-84.04 867.5,-84.04 867.5,-81.08 870.46,-78.12 873.42,-78.12 873.42,-78.12 972.08,-78.12 972.08,-78.12 975.04,-78.12 978,-81.08 978,-84.04 978,-84.04 978,-89.96 978,-89.96 978,-92.92 975.04,-95.88 972.08,-95.88"/>
<text text-anchor="start" x="875.5" y="-83.33" font-family="Helvetica,sans-Serif" font-size="9.00">updateDomMessage.js</text>
</a>
</g>
</g>
<!-- src/Gameboard.js&#45;&gt;src/updateDomMessage.js -->
<g id="edge1" class="edge">
<title>src/Gameboard.js&#45;&gt;src/updateDomMessage.js</title>
<path fill="none" stroke="#000000" stroke-width="2" stroke-opacity="0.200000" d="M745.89,-204.7C772.74,-193.03 818.71,-171.53 854.5,-147 873.84,-133.74 893.59,-115.44 906.63,-102.55"/>
<polygon fill="#000000" fill-opacity="0.200000" stroke="#000000" stroke-width="2" stroke-opacity="0.200000" points="908.06,-104.09 910.81,-98.36 905.08,-101.12 908.06,-104.09"/>
</g>
<!-- src/wichFactory.js -->
<g id="node3" class="node">
<title>src/wichFactory.js</title>
<g id="a_node3"><a xlink:href="src/wichFactory.js" xlink:title="wichFactory.js">
<path fill="#ffffcc" stroke="black" d="M848.58,-261.88C848.58,-261.88 786.67,-261.88 786.67,-261.88 783.71,-261.88 780.75,-258.92 780.75,-255.96 780.75,-255.96 780.75,-250.04 780.75,-250.04 780.75,-247.08 783.71,-244.12 786.67,-244.12 786.67,-244.12 848.58,-244.12 848.58,-244.12 851.54,-244.12 854.5,-247.08 854.5,-250.04 854.5,-250.04 854.5,-255.96 854.5,-255.96 854.5,-258.92 851.54,-261.88 848.58,-261.88"/>
<text text-anchor="start" x="788.75" y="-249.32" font-family="Helvetica,sans-Serif" font-size="9.00">wichFactory.js</text>
</a>
</g>
</g>
<!-- src/Gameboard.js&#45;&gt;src/wichFactory.js -->
<g id="edge2" class="edge">
<title>src/Gameboard.js&#45;&gt;src/wichFactory.js</title>
<path fill="none" stroke="#000000" stroke-width="2" stroke-opacity="0.200000" d="M745.66,-223.24C757.85,-228.35 773.17,-234.78 786.46,-240.35"/>
<polygon fill="#000000" fill-opacity="0.200000" stroke="#000000" stroke-width="2" stroke-opacity="0.200000" points="786.08,-242.3 792.42,-242.69 787.7,-238.43 786.08,-242.3"/>
</g>
<!-- src/wichFactory.js&#45;&gt;src/updateDomMessage.js -->
<g id="edge41" class="edge">
<title>src/wichFactory.js&#45;&gt;src/updateDomMessage.js</title>
<path fill="none" stroke="#000000" stroke-width="2" stroke-opacity="0.200000" d="M824.17,-244.08C840.75,-217.39 890.11,-137.93 911.58,-103.37"/>
<polygon fill="#000000" fill-opacity="0.200000" stroke="#000000" stroke-width="2" stroke-opacity="0.200000" points="913.8,-104.17 915.18,-97.97 910.23,-101.96 913.8,-104.17"/>
</g>
<!-- src/Gameboard.test.js -->
<g id="node4" class="node">
<title>src/Gameboard.test.js</title>
<g id="a_node4"><a xlink:href="src/Gameboard.test.js" xlink:title="Gameboard.test.js">
<path fill="#ffffcc" stroke="black" d="M369.71,-329.88C369.71,-329.88 291.29,-329.88 291.29,-329.88 288.33,-329.88 285.38,-326.92 285.38,-323.96 285.38,-323.96 285.38,-318.04 285.38,-318.04 285.38,-315.08 288.33,-312.12 291.29,-312.12 291.29,-312.12 369.71,-312.12 369.71,-312.12 372.67,-312.12 375.62,-315.08 375.62,-318.04 375.62,-318.04 375.62,-323.96 375.62,-323.96 375.62,-326.92 372.67,-329.88 369.71,-329.88"/>
<text text-anchor="start" x="293.38" y="-317.32" font-family="Helvetica,sans-Serif" font-size="9.00">Gameboard.test.js</text>
</a>
</g>
</g>
<!-- src/Gameboard.test.js&#45;&gt;src/Gameboard.js -->
<g id="edge4" class="edge">
<title>src/Gameboard.test.js&#45;&gt;src/Gameboard.js</title>
<path fill="none" stroke="#000000" stroke-width="2" stroke-opacity="0.200000" d="M375.79,-326.67C410.73,-329.23 459.88,-328.48 498.75,-311 506.2,-307.65 504.93,-302.5 511.75,-298 564.43,-263.26 633.72,-239.02 677.98,-225.8"/>
<polygon fill="#000000" fill-opacity="0.200000" stroke="#000000" stroke-width="2" stroke-opacity="0.200000" points="679.32,-227.01 684.49,-223.3 678.14,-222.98 679.32,-227.01"/>
</g>
<!-- src/Gameboard.test.js&#45;&gt;src/wichFactory.js -->
<g id="edge5" class="edge">
<title>src/Gameboard.test.js&#45;&gt;src/wichFactory.js</title>
<path fill="none" stroke="#000000" stroke-width="2" stroke-opacity="0.200000" d="M375.86,-328.81C440.37,-338.64 563.41,-351.56 664.5,-328 714.83,-316.27 767.65,-285.37 795.89,-267.1"/>
<polygon fill="#000000" fill-opacity="0.200000" stroke="#000000" stroke-width="2" stroke-opacity="0.200000" points="797.32,-268.36 801.18,-263.31 795.01,-264.85 797.32,-268.36"/>
</g>
<!-- src/buildHTMLBoards.js -->
<g id="node5" class="node">
<title>src/buildHTMLBoards.js</title>
<g id="a_node5"><a xlink:href="src/buildHTMLBoards.js" xlink:title="buildHTMLBoards.js">
<path fill="#ffffcc" stroke="black" d="M492.83,-293.88C492.83,-293.88 405.42,-293.88 405.42,-293.88 402.46,-293.88 399.5,-290.92 399.5,-287.96 399.5,-287.96 399.5,-282.04 399.5,-282.04 399.5,-279.08 402.46,-276.12 405.42,-276.12 405.42,-276.12 492.83,-276.12 492.83,-276.12 495.79,-276.12 498.75,-279.08 498.75,-282.04 498.75,-282.04 498.75,-287.96 498.75,-287.96 498.75,-290.92 495.79,-293.88 492.83,-293.88"/>
<text text-anchor="start" x="407.5" y="-281.32" font-family="Helvetica,sans-Serif" font-size="9.00">buildHTMLBoards.js</text>
</a>
</g>
</g>
<!-- src/Gameboard.test.js&#45;&gt;src/buildHTMLBoards.js -->
<g id="edge3" class="edge">
<title>src/Gameboard.test.js&#45;&gt;src/buildHTMLBoards.js</title>
<path fill="none" stroke="#000000" stroke-width="2" stroke-opacity="0.200000" d="M361.84,-311.64C376.42,-307.14 394.05,-301.69 409.57,-296.9"/>
<polygon fill="#000000" fill-opacity="0.200000" stroke="#000000" stroke-width="2" stroke-opacity="0.200000" points="410.83,-298.09 415.94,-294.32 409.59,-294.08 410.83,-298.09"/>
</g>
<!-- src/playerCreation.js -->
<g id="node11" class="node">
<title>src/playerCreation.js</title>
<g id="a_node11"><a xlink:href="src/playerCreation.js" xlink:title="playerCreation.js">
<path fill="#ffffcc" stroke="black" d="M591.58,-219.88C591.58,-219.88 517.67,-219.88 517.67,-219.88 514.71,-219.88 511.75,-216.92 511.75,-213.96 511.75,-213.96 511.75,-208.04 511.75,-208.04 511.75,-205.08 514.71,-202.12 517.67,-202.12 517.67,-202.12 591.58,-202.12 591.58,-202.12 594.54,-202.12 597.5,-205.08 597.5,-208.04 597.5,-208.04 597.5,-213.96 597.5,-213.96 597.5,-216.92 594.54,-219.88 591.58,-219.88"/>
<text text-anchor="start" x="519.75" y="-207.32" font-family="Helvetica,sans-Serif" font-size="9.00">playerCreation.js</text>
</a>
</g>
</g>
<!-- src/buildHTMLBoards.js&#45;&gt;src/playerCreation.js -->
<g id="edge12" class="edge">
<title>src/buildHTMLBoards.js&#45;&gt;src/playerCreation.js</title>
<path fill="none" stroke="#000000" stroke-width="2" stroke-opacity="0.200000" d="M481.71,-275.63C487.6,-273.24 493.54,-270.38 498.75,-267 515.56,-256.11 531.17,-239.24 541.41,-226.86"/>
<polygon fill="#000000" fill-opacity="0.200000" stroke="#000000" stroke-width="2" stroke-opacity="0.200000" points="543.67,-228.16 545.79,-222.17 540.39,-225.53 543.67,-228.16"/>
</g>
<!-- src/Player.js -->
<g id="node6" class="node">
<title>src/Player.js</title>
<g id="a_node6"><a xlink:href="src/Player.js" xlink:title="Player.js">
<path fill="#ffffcc" stroke="black" d="M658.58,-321.88C658.58,-321.88 616.42,-321.88 616.42,-321.88 613.46,-321.88 610.5,-318.92 610.5,-315.96 610.5,-315.96 610.5,-310.04 610.5,-310.04 610.5,-307.08 613.46,-304.12 616.42,-304.12 616.42,-304.12 658.58,-304.12 658.58,-304.12 661.54,-304.12 664.5,-307.08 664.5,-310.04 664.5,-310.04 664.5,-315.96 664.5,-315.96 664.5,-318.92 661.54,-321.88 658.58,-321.88"/>
<text text-anchor="start" x="619.88" y="-309.32" font-family="Helvetica,sans-Serif" font-size="9.00">Player.js</text>
</a>
</g>
</g>
<!-- src/Player.js&#45;&gt;src/Gameboard.js -->
<g id="edge6" class="edge">
<title>src/Player.js&#45;&gt;src/Gameboard.js</title>
<path fill="none" stroke="#000000" stroke-width="2" stroke-opacity="0.200000" d="M653.78,-303.75C657.49,-301.16 661.3,-298.17 664.5,-295 684.24,-275.43 701.82,-248.3 712.1,-230.95"/>
<polygon fill="#000000" fill-opacity="0.200000" stroke="#000000" stroke-width="2" stroke-opacity="0.200000" points="714.35,-231.53 715.54,-225.29 710.71,-229.43 714.35,-231.53"/>
</g>
<!-- src/Player.test.js -->
<g id="node7" class="node">
<title>src/Player.test.js</title>
<g id="a_node7"><a xlink:href="src/Player.test.js" xlink:title="Player.test.js">
<path fill="#ffffcc" stroke="black" d="M582.58,-321.88C582.58,-321.88 526.67,-321.88 526.67,-321.88 523.71,-321.88 520.75,-318.92 520.75,-315.96 520.75,-315.96 520.75,-310.04 520.75,-310.04 520.75,-307.08 523.71,-304.12 526.67,-304.12 526.67,-304.12 582.58,-304.12 582.58,-304.12 585.54,-304.12 588.5,-307.08 588.5,-310.04 588.5,-310.04 588.5,-315.96 588.5,-315.96 588.5,-318.92 585.54,-321.88 582.58,-321.88"/>
<text text-anchor="start" x="528.75" y="-309.32" font-family="Helvetica,sans-Serif" font-size="9.00">Player.test.js</text>
</a>
</g>
</g>
<!-- src/Player.test.js&#45;&gt;src/Player.js -->
<g id="edge7" class="edge">
<title>src/Player.test.js&#45;&gt;src/Player.js</title>
<path fill="none" stroke="#000000" stroke-width="2" stroke-opacity="0.200000" d="M588.99,-313C593.11,-313 597.34,-313 601.49,-313"/>
<polygon fill="#000000" fill-opacity="0.200000" stroke="#000000" stroke-width="2" stroke-opacity="0.200000" points="601.38,-315.1 607.38,-313 601.38,-310.9 601.38,-315.1"/>
</g>
<!-- src/boardSetUp.js -->
<g id="node8" class="node">
<title>src/boardSetUp.js</title>
<g id="a_node8"><a xlink:href="src/boardSetUp.js" xlink:title="boardSetUp.js">
<path fill="#ffffcc" stroke="black" d="M255.58,-183.88C255.58,-183.88 192.92,-183.88 192.92,-183.88 189.96,-183.88 187,-180.92 187,-177.96 187,-177.96 187,-172.04 187,-172.04 187,-169.08 189.96,-166.12 192.92,-166.12 192.92,-166.12 255.58,-166.12 255.58,-166.12 258.54,-166.12 261.5,-169.08 261.5,-172.04 261.5,-172.04 261.5,-177.96 261.5,-177.96 261.5,-180.92 258.54,-183.88 255.58,-183.88"/>
<text text-anchor="start" x="195" y="-171.32" font-family="Helvetica,sans-Serif" font-size="9.00">boardSetUp.js</text>
</a>
</g>
</g>
<!-- src/boardSetUp.js&#45;&gt;src/updateDomMessage.js -->
<g id="edge11" class="edge">
<title>src/boardSetUp.js&#45;&gt;src/updateDomMessage.js</title>
<path fill="none" stroke="#000000" stroke-width="2" stroke-opacity="0.200000" d="M226.72,-165.77C230.52,-145.22 242.69,-95.66 274.5,-72 337.16,-25.39 370.03,-45 448.12,-45 448.12,-45 448.12,-45 723.62,-45 782.12,-45 797.83,-44.5 854.5,-59 868.44,-62.57 883.27,-68.49 895.44,-73.98"/>
<polygon fill="#000000" fill-opacity="0.200000" stroke="#000000" stroke-width="2" stroke-opacity="0.200000" points="895.08,-76.05 901.41,-76.67 896.84,-72.24 895.08,-76.05"/>
</g>
<!-- src/buildOneHTMLBoard.js -->
<g id="node9" class="node">
<title>src/buildOneHTMLBoard.js</title>
<g id="a_node9"><a xlink:href="src/buildOneHTMLBoard.js" xlink:title="buildOneHTMLBoard.js">
<path fill="#ffffcc" stroke="black" d="M380.58,-95.88C380.58,-95.88 280.42,-95.88 280.42,-95.88 277.46,-95.88 274.5,-92.92 274.5,-89.96 274.5,-89.96 274.5,-84.04 274.5,-84.04 274.5,-81.08 277.46,-78.12 280.42,-78.12 280.42,-78.12 380.58,-78.12 380.58,-78.12 383.54,-78.12 386.5,-81.08 386.5,-84.04 386.5,-84.04 386.5,-89.96 386.5,-89.96 386.5,-92.92 383.54,-95.88 380.58,-95.88"/>
<text text-anchor="start" x="282.5" y="-83.33" font-family="Helvetica,sans-Serif" font-size="9.00">buildOneHTMLBoard.js</text>
</a>
</g>
</g>
<!-- src/boardSetUp.js&#45;&gt;src/buildOneHTMLBoard.js -->
<g id="edge8" class="edge">
<title>src/boardSetUp.js&#45;&gt;src/buildOneHTMLBoard.js</title>
<path fill="none" stroke="#000000" stroke-width="2" stroke-opacity="0.200000" d="M236.01,-165.91C253.96,-150.76 290.17,-120.2 311.88,-101.87"/>
<polygon fill="#000000" fill-opacity="0.200000" stroke="#000000" stroke-width="2" stroke-opacity="0.200000" points="313.41,-102.64 316.64,-97.17 310.7,-99.43 313.41,-102.64"/>
</g>
<!-- src/gameLoop.js -->
<g id="node10" class="node">
<title>src/gameLoop.js</title>
<g id="a_node10"><a xlink:href="src/gameLoop.js" xlink:title="gameLoop.js">
<path fill="#ffffcc" stroke="black" d="M359.21,-183.88C359.21,-183.88 301.79,-183.88 301.79,-183.88 298.83,-183.88 295.88,-180.92 295.88,-177.96 295.88,-177.96 295.88,-172.04 295.88,-172.04 295.88,-169.08 298.83,-166.12 301.79,-166.12 301.79,-166.12 359.21,-166.12 359.21,-166.12 362.17,-166.12 365.12,-169.08 365.12,-172.04 365.12,-172.04 365.12,-177.96 365.12,-177.96 365.12,-180.92 362.17,-183.88 359.21,-183.88"/>
<text text-anchor="start" x="303.88" y="-171.32" font-family="Helvetica,sans-Serif" font-size="9.00">gameLoop.js</text>
</a>
</g>
</g>
<!-- src/boardSetUp.js&#45;&gt;src/gameLoop.js -->
<g id="edge9" class="edge">
<title>src/boardSetUp.js&#45;&gt;src/gameLoop.js</title>
<g id="a_edge9"><a xlink:title="no&#45;circular">
<path fill="none" stroke="orange" stroke-width="2" d="M261.71,-170.69C269.82,-170.49 278.48,-170.45 286.81,-170.57"/>
<polygon fill="none" stroke="orange" stroke-width="2" points="286.64,-172.73 292.68,-170.76 286.73,-168.53 286.64,-172.73"/>
</a>
</g>
<text text-anchor="middle" x="256.79" y="-161.95" font-family="Helvetica,sans-Serif" font-size="9.00" fill="orange">no&#45;circular</text>
</g>
<!-- src/boardSetUp.js&#45;&gt;src/playerCreation.js -->
<g id="edge10" class="edge">
<title>src/boardSetUp.js&#45;&gt;src/playerCreation.js</title>
<path fill="none" stroke="#000000" stroke-width="2" stroke-opacity="0.200000" d="M239.4,-184.21C268.13,-202.31 335.98,-241.96 399.5,-256 442.57,-265.52 457.21,-270.85 498.75,-256 515.12,-250.15 530.11,-237.08 540.28,-226.52"/>
<polygon fill="#000000" fill-opacity="0.200000" stroke="#000000" stroke-width="2" stroke-opacity="0.200000" points="541.71,-227.89 544.22,-222.05 538.62,-225.05 541.71,-227.89"/>
</g>
<!-- src/buildOneHTMLBoard.js&#45;&gt;src/Gameboard.js -->
<g id="edge13" class="edge">
<title>src/buildOneHTMLBoard.js&#45;&gt;src/Gameboard.js</title>
<path fill="none" stroke="#000000" stroke-width="2" stroke-opacity="0.200000" d="M371.84,-77.64C406.22,-71.35 456.62,-66.16 498.75,-78 584.3,-102.04 669.54,-169.02 704.76,-199.08"/>
<polygon fill="#000000" fill-opacity="0.200000" stroke="#000000" stroke-width="2" stroke-opacity="0.200000" points="703.59,-201.57 709.5,-203.9 706.33,-198.39 703.59,-201.57"/>
</g>
<!-- src/buildOneHTMLBoard.js&#45;&gt;src/updateDomMessage.js -->
<g id="edge16" class="edge">
<title>src/buildOneHTMLBoard.js&#45;&gt;src/updateDomMessage.js</title>
<path fill="none" stroke="#000000" stroke-width="2" stroke-opacity="0.200000" d="M357.97,-77.65C370.41,-73.66 385.55,-69.38 399.5,-67 467.12,-55.47 485.03,-59 553.62,-59 553.62,-59 553.62,-59 723.62,-59 774.33,-59 831.62,-68.1 871.51,-75.93"/>
<polygon fill="#000000" fill-opacity="0.200000" stroke="#000000" stroke-width="2" stroke-opacity="0.200000" points="871.95,-78.56 878.25,-77.68 872.78,-74.44 871.95,-78.56"/>
</g>
<!-- src/buildOneHTMLBoard.js&#45;&gt;src/playerCreation.js -->
<g id="edge14" class="edge">
<title>src/buildOneHTMLBoard.js&#45;&gt;src/playerCreation.js</title>
<path fill="none" stroke="#000000" stroke-width="2" stroke-opacity="0.200000" d="M386.63,-82.62C428.55,-80.5 481.8,-80.77 498.75,-94 514.83,-106.55 503.73,-119.25 511.75,-138 520.47,-158.4 533.58,-180.29 542.81,-194.72"/>
<polygon fill="#000000" fill-opacity="0.200000" stroke="#000000" stroke-width="2" stroke-opacity="0.200000" points="541.45,-196.02 546.48,-199.91 544.97,-193.74 541.45,-196.02"/>
</g>
<!-- src/renderBoard.js -->
<g id="node12" class="node">
<title>src/renderBoard.js</title>
<g id="a_node12"><a xlink:href="src/renderBoard.js" xlink:title="renderBoard.js">
<path fill="#ffffcc" stroke="black" d="M481.58,-117.88C481.58,-117.88 416.67,-117.88 416.67,-117.88 413.71,-117.88 410.75,-114.92 410.75,-111.96 410.75,-111.96 410.75,-106.04 410.75,-106.04 410.75,-103.08 413.71,-100.12 416.67,-100.12 416.67,-100.12 481.58,-100.12 481.58,-100.12 484.54,-100.12 487.5,-103.08 487.5,-106.04 487.5,-106.04 487.5,-111.96 487.5,-111.96 487.5,-114.92 484.54,-117.88 481.58,-117.88"/>
<text text-anchor="start" x="418.75" y="-105.33" font-family="Helvetica,sans-Serif" font-size="9.00">renderBoard.js</text>
</a>
</g>
</g>
<!-- src/buildOneHTMLBoard.js&#45;&gt;src/renderBoard.js -->
<g id="edge15" class="edge">
<title>src/buildOneHTMLBoard.js&#45;&gt;src/renderBoard.js</title>
<path fill="none" stroke="#000000" stroke-width="2" stroke-opacity="0.200000" d="M380.96,-96.33C387.86,-97.63 394.92,-98.96 401.76,-100.25"/>
<polygon fill="#000000" fill-opacity="0.200000" stroke="#000000" stroke-width="2" stroke-opacity="0.200000" points="401.98,-102.81 408.27,-101.86 402.76,-98.68 401.98,-102.81"/>
</g>
<!-- src/gameLoop.js&#45;&gt;src/Gameboard.js -->
<g id="edge24" class="edge">
<title>src/gameLoop.js&#45;&gt;src/Gameboard.js</title>
<path fill="none" stroke="#000000" stroke-width="2" stroke-opacity="0.200000" d="M365.53,-174.81C399.37,-174.9 452.75,-175.82 498.75,-180 560.88,-185.65 632.03,-197.44 676.89,-205.54"/>
<polygon fill="#000000" fill-opacity="0.200000" stroke="#000000" stroke-width="2" stroke-opacity="0.200000" points="677.22,-208.1 683.5,-207.11 677.98,-203.97 677.22,-208.1"/>
</g>
<!-- src/gameLoop.js&#45;&gt;src/updateDomMessage.js -->
<g id="edge28" class="edge">
<title>src/gameLoop.js&#45;&gt;src/updateDomMessage.js</title>
<path fill="none" stroke="#000000" stroke-width="2" stroke-opacity="0.200000" d="M344.56,-165.7C357.74,-156.86 379,-144.05 399.5,-138 450.16,-123.05 583.68,-120 636.5,-120 636.5,-120 636.5,-120 723.62,-120 777.44,-120 838.37,-108.01 878.29,-98.48"/>
<polygon fill="#000000" fill-opacity="0.200000" stroke="#000000" stroke-width="2" stroke-opacity="0.200000" points="879.64,-99.83 884.97,-96.37 878.64,-95.75 879.64,-99.83"/>
</g>
<!-- src/gameLoop.js&#45;&gt;src/buildHTMLBoards.js -->
<g id="edge21" class="edge">
<title>src/gameLoop.js&#45;&gt;src/buildHTMLBoards.js</title>
<path fill="none" stroke="#000000" stroke-width="2" stroke-opacity="0.200000" d="M337.78,-184.37C348.86,-200.43 373.21,-233.63 399.5,-256 406.35,-261.83 414.51,-267.2 422.18,-271.69"/>
<polygon fill="#000000" fill-opacity="0.200000" stroke="#000000" stroke-width="2" stroke-opacity="0.200000" points="421.35,-273.76 427.61,-274.87 423.41,-270.1 421.35,-273.76"/>
</g>
<!-- src/gameLoop.js&#45;&gt;src/boardSetUp.js -->
<g id="edge20" class="edge">
<title>src/gameLoop.js&#45;&gt;src/boardSetUp.js</title>
<g id="a_edge20"><a xlink:title="no&#45;circular">
<path fill="none" stroke="orange" stroke-width="2" d="M295.68,-179.24C287.71,-179.48 279.08,-179.55 270.68,-179.47"/>
<polygon fill="none" stroke="orange" stroke-width="2" points="270.75,-177.32 264.71,-179.31 270.68,-181.52 270.75,-177.32"/>
</a>
</g>
<text text-anchor="middle" x="256.84" y="-180.7" font-family="Helvetica,sans-Serif" font-size="9.00" fill="orange">no&#45;circular</text>
</g>
<!-- src/gameLoop.js&#45;&gt;src/playerCreation.js -->
<g id="edge26" class="edge">
<title>src/gameLoop.js&#45;&gt;src/playerCreation.js</title>
<path fill="none" stroke="#000000" stroke-width="2" stroke-opacity="0.200000" d="M365.36,-177.83C399.31,-181 452.97,-186.92 498.75,-196 503.71,-196.99 508.89,-198.18 514,-199.45"/>
<polygon fill="#000000" fill-opacity="0.200000" stroke="#000000" stroke-width="2" stroke-opacity="0.200000" points="514.13,-202.18 520.47,-201.66 515.19,-198.12 514.13,-202.18"/>
</g>
<!-- src/gameLoop.js&#45;&gt;src/renderBoard.js -->
<g id="edge27" class="edge">
<title>src/gameLoop.js&#45;&gt;src/renderBoard.js</title>
<path fill="none" stroke="#000000" stroke-width="2" stroke-opacity="0.200000" d="M342.47,-165.89C355.45,-155.45 378.02,-138.31 399.5,-127 403.14,-125.08 407.03,-123.28 410.97,-121.6"/>
<polygon fill="#000000" fill-opacity="0.200000" stroke="#000000" stroke-width="2" stroke-opacity="0.200000" points="412.26,-123.54 417.05,-119.36 410.7,-119.65 412.26,-123.54"/>
</g>
<!-- src/checkWinner.js -->
<g id="node13" class="node">
<title>src/checkWinner.js</title>
<g id="a_node13"><a xlink:href="src/checkWinner.js" xlink:title="checkWinner.js">
<path fill="#ffffcc" stroke="black" d="M482.33,-161.88C482.33,-161.88 415.92,-161.88 415.92,-161.88 412.96,-161.88 410,-158.92 410,-155.96 410,-155.96 410,-150.04 410,-150.04 410,-147.08 412.96,-144.12 415.92,-144.12 415.92,-144.12 482.33,-144.12 482.33,-144.12 485.29,-144.12 488.25,-147.08 488.25,-150.04 488.25,-150.04 488.25,-155.96 488.25,-155.96 488.25,-158.92 485.29,-161.88 482.33,-161.88"/>
<text text-anchor="start" x="418" y="-149.32" font-family="Helvetica,sans-Serif" font-size="9.00">checkWinner.js</text>
</a>
</g>
</g>
<!-- src/gameLoop.js&#45;&gt;src/checkWinner.js -->
<g id="edge22" class="edge">
<title>src/gameLoop.js&#45;&gt;src/checkWinner.js</title>
<path fill="none" stroke="#000000" stroke-width="2" stroke-opacity="0.200000" d="M365.55,-168.58C376.69,-166.48 389.28,-164.1 401.2,-161.85"/>
<polygon fill="#000000" fill-opacity="0.200000" stroke="#000000" stroke-width="2" stroke-opacity="0.200000" points="402.23,-163.42 407.73,-160.24 401.45,-159.29 402.23,-163.42"/>
</g>
<!-- src/compTargeting.js -->
<g id="node14" class="node">
<title>src/compTargeting.js</title>
<g id="a_node14"><a xlink:href="src/compTargeting.js" xlink:title="compTargeting.js">
<path fill="#ffffcc" stroke="black" d="M486.08,-219.88C486.08,-219.88 412.17,-219.88 412.17,-219.88 409.21,-219.88 406.25,-216.92 406.25,-213.96 406.25,-213.96 406.25,-208.04 406.25,-208.04 406.25,-205.08 409.21,-202.12 412.17,-202.12 412.17,-202.12 486.08,-202.12 486.08,-202.12 489.04,-202.12 492,-205.08 492,-208.04 492,-208.04 492,-213.96 492,-213.96 492,-216.92 489.04,-219.88 486.08,-219.88"/>
<text text-anchor="start" x="414.25" y="-207.32" font-family="Helvetica,sans-Serif" font-size="9.00">compTargeting.js</text>
</a>
</g>
</g>
<!-- src/gameLoop.js&#45;&gt;src/compTargeting.js -->
<g id="edge23" class="edge">
<title>src/gameLoop.js&#45;&gt;src/compTargeting.js</title>
<path fill="none" stroke="#000000" stroke-width="2" stroke-opacity="0.200000" d="M361.84,-184.36C376.42,-188.86 394.05,-194.31 409.57,-199.1"/>
<polygon fill="#000000" fill-opacity="0.200000" stroke="#000000" stroke-width="2" stroke-opacity="0.200000" points="409.59,-201.92 415.94,-201.68 410.83,-197.91 409.59,-201.92"/>
</g>
<!-- src/gameLoopEvents.js -->
<g id="node15" class="node">
<title>src/gameLoopEvents.js</title>
<g id="a_node15"><a xlink:href="src/gameLoopEvents.js" xlink:title="gameLoopEvents.js">
<path fill="#ffffcc" stroke="black" d="M491.71,-249.88C491.71,-249.88 406.54,-249.88 406.54,-249.88 403.58,-249.88 400.62,-246.92 400.62,-243.96 400.62,-243.96 400.62,-238.04 400.62,-238.04 400.62,-235.08 403.58,-232.12 406.54,-232.12 406.54,-232.12 491.71,-232.12 491.71,-232.12 494.67,-232.12 497.62,-235.08 497.62,-238.04 497.62,-238.04 497.62,-243.96 497.62,-243.96 497.62,-246.92 494.67,-249.88 491.71,-249.88"/>
<text text-anchor="start" x="408.62" y="-237.32" font-family="Helvetica,sans-Serif" font-size="9.00">gameLoopEvents.js</text>
</a>
</g>
</g>
<!-- src/gameLoop.js&#45;&gt;src/gameLoopEvents.js -->
<g id="edge25" class="edge">
<title>src/gameLoop.js&#45;&gt;src/gameLoopEvents.js</title>
<path fill="none" stroke="#000000" stroke-width="2" stroke-opacity="0.200000" d="M341.35,-184.15C353.96,-195.41 376.89,-214.47 399.5,-226 401.19,-226.86 402.95,-227.69 404.74,-228.47"/>
<polygon fill="#000000" fill-opacity="0.200000" stroke="#000000" stroke-width="2" stroke-opacity="0.200000" points="404.41,-230.4 410.76,-230.67 405.96,-226.5 404.41,-230.4"/>
</g>
<!-- src/playerCreation.js&#45;&gt;src/Player.js -->
<g id="edge37" class="edge">
<title>src/playerCreation.js&#45;&gt;src/Player.js</title>
<path fill="none" stroke="#000000" stroke-width="2" stroke-opacity="0.200000" d="M562.8,-220.05C576.5,-237.32 606.52,-275.19 623.72,-296.88"/>
<polygon fill="#000000" fill-opacity="0.200000" stroke="#000000" stroke-width="2" stroke-opacity="0.200000" points="622.85,-298.43 628.22,-301.82 626.14,-295.82 622.85,-298.43"/>
</g>
<!-- src/renderBoard.js&#45;&gt;src/playerCreation.js -->
<g id="edge38" class="edge">
<title>src/renderBoard.js&#45;&gt;src/playerCreation.js</title>
<path fill="none" stroke="#000000" stroke-width="2" stroke-opacity="0.200000" d="M469.29,-118.18C478.74,-123.25 489.98,-130.12 498.75,-138 517.43,-154.78 534,-178.74 543.92,-194.58"/>
<polygon fill="#000000" fill-opacity="0.200000" stroke="#000000" stroke-width="2" stroke-opacity="0.200000" points="542.56,-196.01 547.48,-200.03 546.14,-193.82 542.56,-196.01"/>
</g>
<!-- src/checkWinner.js&#45;&gt;src/updateDomMessage.js -->
<g id="edge18" class="edge">
<title>src/checkWinner.js&#45;&gt;src/updateDomMessage.js</title>
<path fill="none" stroke="#000000" stroke-width="2" stroke-opacity="0.200000" d="M488.72,-155.63C561.82,-159.45 724.73,-162.34 854.5,-124 871.43,-119 888.85,-109.26 901.72,-101.03"/>
<polygon fill="#000000" fill-opacity="0.200000" stroke="#000000" stroke-width="2" stroke-opacity="0.200000" points="903.25,-102.22 907.1,-97.16 900.93,-98.71 903.25,-102.22"/>
</g>
<!-- src/checkWinner.js&#45;&gt;src/playerCreation.js -->
<g id="edge17" class="edge">
<title>src/checkWinner.js&#45;&gt;src/playerCreation.js</title>
<path fill="none" stroke="#000000" stroke-width="2" stroke-opacity="0.200000" d="M466.75,-162.32C483.65,-171.79 510.02,-186.56 529.27,-197.35"/>
<polygon fill="#000000" fill-opacity="0.200000" stroke="#000000" stroke-width="2" stroke-opacity="0.200000" points="528.78,-199.6 535.04,-200.7 530.83,-195.94 528.78,-199.6"/>
</g>
<!-- src/compTargeting.js&#45;&gt;src/playerCreation.js -->
<g id="edge19" class="edge">
<title>src/compTargeting.js&#45;&gt;src/playerCreation.js</title>
<path fill="none" stroke="#000000" stroke-width="2" stroke-opacity="0.200000" d="M492.22,-211C495.71,-211 499.26,-211 502.81,-211"/>
<polygon fill="#000000" fill-opacity="0.200000" stroke="#000000" stroke-width="2" stroke-opacity="0.200000" points="502.56,-213.1 508.56,-211 502.56,-208.9 502.56,-213.1"/>
</g>
<!-- src/index.js -->
<g id="node16" class="node">
<title>src/index.js</title>
<g id="a_node16"><a xlink:href="src/index.js" xlink:title="index.js">
<path fill="#ffffcc" stroke="black" d="M64.08,-276.88C64.08,-276.88 21.92,-276.88 21.92,-276.88 18.96,-276.88 16,-273.92 16,-270.96 16,-270.96 16,-265.04 16,-265.04 16,-262.08 18.96,-259.12 21.92,-259.12 21.92,-259.12 64.08,-259.12 64.08,-259.12 67.04,-259.12 70,-262.08 70,-265.04 70,-265.04 70,-270.96 70,-270.96 70,-273.92 67.04,-276.88 64.08,-276.88"/>
<text text-anchor="start" x="27.25" y="-264.32" font-family="Helvetica,sans-Serif" font-size="9.00">index.js</text>
</a>
</g>
</g>
<!-- src/index.js&#45;&gt;src/updateDomMessage.js -->
<g id="edge35" class="edge">
<title>src/index.js&#45;&gt;src/updateDomMessage.js</title>
<path fill="none" stroke="#000000" stroke-width="2" stroke-opacity="0.200000" d="M45.76,-258.77C54.98,-213.49 101.96,-17 223.25,-17 223.25,-17 223.25,-17 723.62,-17 781.93,-17 800.86,-3.15 854.5,-26 877.22,-35.68 897.32,-56.36 909.5,-70.95"/>
<polygon fill="#000000" fill-opacity="0.200000" stroke="#000000" stroke-width="2" stroke-opacity="0.200000" points="908.72,-72.58 914.12,-75.94 911.99,-69.94 908.72,-72.58"/>
</g>
<!-- src/index.js&#45;&gt;src/buildHTMLBoards.js -->
<g id="edge29" class="edge">
<title>src/index.js&#45;&gt;src/buildHTMLBoards.js</title>
<path fill="none" stroke="#000000" stroke-width="2" stroke-opacity="0.200000" d="M70.4,-268.39C96.67,-268.84 138.13,-269.67 174,-271 248.66,-273.77 334.68,-278.4 390.15,-281.57"/>
<polygon fill="#000000" fill-opacity="0.200000" stroke="#000000" stroke-width="2" stroke-opacity="0.200000" points="390.01,-283.84 396.12,-282.08 390.25,-279.64 390.01,-283.84"/>
</g>
<!-- src/index.js&#45;&gt;src/Player.js -->
<g id="edge32" class="edge">
<title>src/index.js&#45;&gt;src/Player.js</title>
<path fill="none" stroke="#000000" stroke-width="2" stroke-opacity="0.200000" d="M45.8,-277.26C49.52,-293.59 59.74,-327.16 83,-342 135.62,-375.56 160.84,-349 223.25,-349 223.25,-349 223.25,-349 450.12,-349 516.29,-349 533.47,-344.65 597.5,-328 600.47,-327.23 603.52,-326.3 606.55,-325.29"/>
<polygon fill="#000000" fill-opacity="0.200000" stroke="#000000" stroke-width="2" stroke-opacity="0.200000" points="607.98,-327.29 612.92,-323.29 606.56,-323.34 607.98,-327.29"/>
</g>
<!-- src/index.js&#45;&gt;src/playerCreation.js -->
<g id="edge33" class="edge">
<title>src/index.js&#45;&gt;src/playerCreation.js</title>
<path fill="none" stroke="#000000" stroke-width="2" stroke-opacity="0.200000" d="M70.28,-270.81C164.64,-280.77 481.68,-313.14 498.75,-300 516.61,-286.26 500.29,-270.4 511.75,-251 517.5,-241.26 526.29,-232.36 534.33,-225.44"/>
<polygon fill="#000000" fill-opacity="0.200000" stroke="#000000" stroke-width="2" stroke-opacity="0.200000" points="535.51,-226.54 538.82,-221.11 532.85,-223.29 535.51,-226.54"/>
</g>
<!-- src/index.js&#45;&gt;src/gameLoopEvents.js -->
<g id="edge30" class="edge">
<title>src/index.js&#45;&gt;src/gameLoopEvents.js</title>
<path fill="none" stroke="#000000" stroke-width="2" stroke-opacity="0.200000" d="M70.43,-265.93C74.63,-265.61 78.94,-265.29 83,-265 192.08,-257.22 319.55,-249.05 391.36,-244.53"/>
<polygon fill="#000000" fill-opacity="0.200000" stroke="#000000" stroke-width="2" stroke-opacity="0.200000" points="391.41,-246.45 397.27,-243.98 391.15,-242.26 391.41,-246.45"/>
</g>
<!-- src/meyer&#45;reset.css -->
<g id="node17" class="node">
<title>src/meyer&#45;reset.css</title>
<g id="a_node17"><a xlink:href="src/meyer-reset.css" xlink:title="meyer&#45;reset.css">
<path fill="#ffffcc" stroke="black" d="M162.83,-305.88C162.83,-305.88 94.17,-305.88 94.17,-305.88 91.21,-305.88 88.25,-302.92 88.25,-299.96 88.25,-299.96 88.25,-294.04 88.25,-294.04 88.25,-291.08 91.21,-288.12 94.17,-288.12 94.17,-288.12 162.83,-288.12 162.83,-288.12 165.79,-288.12 168.75,-291.08 168.75,-294.04 168.75,-294.04 168.75,-299.96 168.75,-299.96 168.75,-302.92 165.79,-305.88 162.83,-305.88"/>
<text text-anchor="start" x="96.25" y="-293.32" font-family="Helvetica,sans-Serif" font-size="9.00">meyer&#45;reset.css</text>
</a>
</g>
</g>
<!-- src/index.js&#45;&gt;src/meyer&#45;reset.css -->
<g id="edge31" class="edge">
<title>src/index.js&#45;&gt;src/meyer&#45;reset.css</title>
<path fill="none" stroke="#000000" stroke-width="2" stroke-opacity="0.200000" d="M70.42,-277.18C77.36,-279.59 84.95,-282.22 92.27,-284.76"/>
<polygon fill="#000000" fill-opacity="0.200000" stroke="#000000" stroke-width="2" stroke-opacity="0.200000" points="92.32,-287.7 98.68,-287.68 93.7,-283.73 92.32,-287.7"/>
</g>
<!-- src/style.css -->
<g id="node18" class="node">
<title>src/style.css</title>
<g id="a_node18"><a xlink:href="src/style.css" xlink:title="style.css">
<path fill="#ffffcc" stroke="black" d="M149.58,-335.88C149.58,-335.88 107.42,-335.88 107.42,-335.88 104.46,-335.88 101.5,-332.92 101.5,-329.96 101.5,-329.96 101.5,-324.04 101.5,-324.04 101.5,-321.08 104.46,-318.12 107.42,-318.12 107.42,-318.12 149.58,-318.12 149.58,-318.12 152.54,-318.12 155.5,-321.08 155.5,-324.04 155.5,-324.04 155.5,-329.96 155.5,-329.96 155.5,-332.92 152.54,-335.88 149.58,-335.88"/>
<text text-anchor="start" x="111.25" y="-323.32" font-family="Helvetica,sans-Serif" font-size="9.00">style.css</text>
</a>
</g>
</g>
<!-- src/index.js&#45;&gt;src/style.css -->
<g id="edge34" class="edge">
<title>src/index.js&#45;&gt;src/style.css</title>
<path fill="none" stroke="#000000" stroke-width="2" stroke-opacity="0.200000" d="M49.83,-277.02C56.67,-286.92 68.88,-302.64 83,-312 86.06,-314.03 89.42,-315.8 92.87,-317.36"/>
<polygon fill="#000000" fill-opacity="0.200000" stroke="#000000" stroke-width="2" stroke-opacity="0.200000" points="92.68,-319.33 99.03,-319.59 94.22,-315.43 92.68,-319.33"/>
</g>
<!-- src/welcomeScreen.js -->
<g id="node19" class="node">
<title>src/welcomeScreen.js</title>
<g id="a_node19"><a xlink:href="src/welcomeScreen.js" xlink:title="welcomeScreen.js">
<path fill="#ffffcc" stroke="black" d="M168.08,-183.88C168.08,-183.88 88.92,-183.88 88.92,-183.88 85.96,-183.88 83,-180.92 83,-177.96 83,-177.96 83,-172.04 83,-172.04 83,-169.08 85.96,-166.12 88.92,-166.12 88.92,-166.12 168.08,-166.12 168.08,-166.12 171.04,-166.12 174,-169.08 174,-172.04 174,-172.04 174,-177.96 174,-177.96 174,-180.92 171.04,-183.88 168.08,-183.88"/>
<text text-anchor="start" x="91" y="-171.32" font-family="Helvetica,sans-Serif" font-size="9.00">welcomeScreen.js</text>
</a>
</g>
</g>
<!-- src/index.js&#45;&gt;src/welcomeScreen.js -->
<g id="edge36" class="edge">
<title>src/index.js&#45;&gt;src/welcomeScreen.js</title>
<path fill="none" stroke="#000000" stroke-width="2" stroke-opacity="0.200000" d="M52.31,-258.74C66.57,-242.87 95.83,-210.27 113.35,-190.76"/>
<polygon fill="#000000" fill-opacity="0.200000" stroke="#000000" stroke-width="2" stroke-opacity="0.200000" points="114.78,-192.09 117.22,-186.22 111.65,-189.28 114.78,-192.09"/>
</g>
<!-- src/welcomeScreen.js&#45;&gt;src/updateDomMessage.js -->
<g id="edge40" class="edge">
<title>src/welcomeScreen.js&#45;&gt;src/updateDomMessage.js</title>
<path fill="none" stroke="#000000" stroke-width="2" stroke-opacity="0.200000" d="M135.71,-165.85C153.67,-140.21 208.62,-67.59 274.5,-37 296.8,-26.65 304.91,-31 329.5,-31 329.5,-31 329.5,-31 723.62,-31 782,-31 799.41,-22.71 854.5,-42 873.34,-48.6 891.99,-61.74 904.85,-72.12"/>
<polygon fill="#000000" fill-opacity="0.200000" stroke="#000000" stroke-width="2" stroke-opacity="0.200000" points="903.76,-74.62 909.71,-76.85 906.45,-71.39 903.76,-74.62"/>
</g>
<!-- src/welcomeScreen.js&#45;&gt;src/boardSetUp.js -->
<g id="edge39" class="edge">
<title>src/welcomeScreen.js&#45;&gt;src/boardSetUp.js</title>
<path fill="none" stroke="#000000" stroke-width="2" stroke-opacity="0.200000" d="M174.45,-175C175.59,-175 176.73,-175 177.86,-175"/>
<polygon fill="#000000" fill-opacity="0.200000" stroke="#000000" stroke-width="2" stroke-opacity="0.200000" points="177.51,-177.1 183.51,-175 177.51,-172.9 177.51,-177.1"/>
</g>
<!-- src/wichFactory.test.js -->
<g id="node20" class="node">
<title>src/wichFactory.test.js</title>
<g id="a_node20"><a xlink:href="src/wichFactory.test.js" xlink:title="wichFactory.test.js">
<path fill="#ffffcc" stroke="black" d="M761.83,-349.88C761.83,-349.88 683.42,-349.88 683.42,-349.88 680.46,-349.88 677.5,-346.92 677.5,-343.96 677.5,-343.96 677.5,-338.04 677.5,-338.04 677.5,-335.08 680.46,-332.12 683.42,-332.12 683.42,-332.12 761.83,-332.12 761.83,-332.12 764.79,-332.12 767.75,-335.08 767.75,-338.04 767.75,-338.04 767.75,-343.96 767.75,-343.96 767.75,-346.92 764.79,-349.88 761.83,-349.88"/>
<text text-anchor="start" x="685.5" y="-337.32" font-family="Helvetica,sans-Serif" font-size="9.00">wichFactory.test.js</text>
</a>
</g>
</g>
<!-- src/wichFactory.test.js&#45;&gt;src/wichFactory.js -->
<g id="edge42" class="edge">
<title>src/wichFactory.test.js&#45;&gt;src/wichFactory.js</title>
<path fill="none" stroke="#000000" stroke-width="2" stroke-opacity="0.200000" d="M752.95,-331.82C758.18,-329.43 763.36,-326.51 767.75,-323 785.92,-308.48 800.18,-285.45 808.5,-269.81"/>
<polygon fill="#000000" fill-opacity="0.200000" stroke="#000000" stroke-width="2" stroke-opacity="0.200000" points="810.63,-270.28 811.49,-263.98 806.89,-268.37 810.63,-270.28"/>
</g>
</g>
</svg>
